SplineFontDB: 3.2
FontName: GaramondMono-BoldItalic
FullName: Garamond Mono Bold Italic
FamilyName: Garamond Mono
Weight: Bold
Copyright: Copyright 2017 The EB Garamond Project Authors (https://github.com/octaviopardo/EBGaramond12)
Version: 0.002
ItalicAngle: -17.2
UnderlinePosition: -125
UnderlineWidth: 50
Ascent: 800
Descent: 200
InvalidEm: 0
LayerCount: 2
Layer: 0 0 "+gMyXYgAA" 1
Layer: 1 0 "+Uk2XYgAA" 0
XUID: [1021 501 934139072 10818797]
StyleMap: 0x0021
FSType: 0
OS2Version: 4
OS2_WeightWidthSlopeOnly: 0
OS2_UseTypoMetrics: 1
CreationTime: 1508950587
ModificationTime: 1713051177
PfmFamily: 49
TTFWeight: 700
TTFWidth: 5
LineGap: 0
VLineGap: 0
OS2TypoAscent: 1007
OS2TypoAOffset: 0
OS2TypoDescent: -298
OS2TypoDOffset: 0
OS2TypoLinegap: 0
OS2WinAscent: 1047
OS2WinAOffset: 0
OS2WinDescent: 390
OS2WinDOffset: 0
HheadAscent: 1007
HheadAOffset: 0
HheadDescent: -298
HheadDOffset: 0
OS2SubXSize: 650
OS2SubYSize: 600
OS2SubXOff: -23
OS2SubYOff: 75
OS2SupXSize: 650
OS2SupYSize: 600
OS2SupXOff: 108
OS2SupYOff: 350
OS2StrikeYSize: 50
OS2StrikeYPos: 240
OS2CapHeight: 650
OS2XHeight: 400
OS2FamilyClass: 258
OS2Vendor: 'PfEd'
Lookup: 1 0 0 "'ss01' Original glyphs" { "'ss01' Original glyphs-1" ("ss01") } ['ss01' ('DFLT' <'dflt' > 'latn' <'dflt' > ) ]
MarkAttachClasses: 1
DEI: 91125
TtTable: prep
PUSHW_1
 511
SCANCTRL
PUSHB_1
 4
SCANTYPE
EndTTInstrs
ShortTable: maxp 16
  1
  0
  2906
  582
  23
  582
  7
  1
  0
  0
  0
  0
  0
  0
  7
  1
EndShort
LangName: 1033 "" "" "Bold Italic" "" "" "" "" "" "Georg Duffner" "Georg Duffner and Octavio Pardo" "" "http://georgduffner.at/" "http://georgduffner.at/" "This Font Software is licensed under the SIL Open Font License, Version 1.1. This license is available with a FAQ at: http://scripts.sil.org/OFL" "http://scripts.sil.org/OFL"
GaspTable: 1 65535 15 1
OtfFeatName: 'ss01' 1033 "Original glyphs"
Encoding: UnicodeBmp
Compacted: 1
UnicodeInterp: none
NameList: AGL For New Fonts
DisplaySize: -48
AntiAlias: 1
FitToEm: 0
WinInfo: 0 32 8

StartChar: A
Encoding: 65 65 0
Width: 600
GlyphClass: 2
Flags: W
LayerCount: 2
Fore
SplineSet
-36 -5 m 0
 -42 -5 -46 -4 -49 -2 c 128
 -52 0 -53 5 -51 12 c 256
 -50 19 -47 24 -43 27 c 128
 -39 30 -34 33 -29 34 c 0
 -20 37 -9 41 5 46 c 128
 19 51 33 58 46 67 c 128
 59 76 70 86 79 98 c 0
 115 147 152 195 189 243 c 128
 226 291 261 340 298 388 c 128
 335 436 372 484 409 532 c 0
 420 546 429 560 436 574 c 128
 443 588 450 600 455 610 c 128
 460 620 464 625 467 625 c 0
 480 625 494 627 508 630 c 128
 522 633 534 637 544 644 c 0
 553 650 563 656 571 662 c 128
 579 668 586 672 591 672 c 0
 597 672 600 666 600 652 c 128
 600 638 598 623 594 606 c 2
 484 112 l 2
 480 91 481 75 488 63 c 128
 495 51 509 41 528 34 c 0
 533 32 538 30 542 28 c 128
 546 26 547 20 547 13 c 0
 547 8 543 5 537 2 c 128
 531 -1 525 -2 521 -2 c 0
 510 -2 498 -2 483 -1 c 128
 468 0 453 0 438 1 c 128
 423 2 410 2 398 2 c 0
 387 2 374 2 359 1 c 128
 344 0 329 -1 313 -2 c 128
 297 -3 283 -3 272 -3 c 0
 261 -3 257 2 259 12 c 0
 260 18 263 22 267 26 c 128
 271 30 276 33 282 34 c 0
 294 37 304 41 313 46 c 128
 322 51 328 58 334 66 c 128
 340 74 345 84 348 97 c 2
 380 219 l 2
 382 224 382 229 380 232 c 128
 378 235 375 236 371 236 c 2
 244 236 l 2
 240 236 236 234 233 230 c 128
 230 226 226 223 223 219 c 2
 169 140 l 2
 154 119 146 101 142 87 c 128
 138 73 140 62 146 54 c 128
 152 46 162 39 177 34 c 0
 182 33 186 30 190 26 c 128
 194 22 196 18 195 12 c 0
 194 7 190 4 185 2 c 128
 180 0 174 -2 168 -2 c 0
 151 -2 135 -1 119 -0 c 128
 103 1 87 1 71 1 c 0
 56 1 39 0 19 -2 c 128
 -1 -4 -19 -5 -36 -5 c 0
287 284 m 2
 383 284 l 2
 387 284 391 285 393 286 c 128
 395 287 396 290 397 295 c 2
 449 514 l 2
 450 518 452 522 452 525 c 128
 452 528 451 530 449 530 c 0
 448 530 447 529 445 528 c 128
 443 527 441 525 439 523 c 2
 280 302 l 2
 275 295 272 291 273 288 c 128
 274 285 278 284 287 284 c 2
EndSplineSet
EndChar

StartChar: B
Encoding: 66 66 1
Width: 600
GlyphClass: 2
Flags: W
LayerCount: 2
Fore
SplineSet
-25 -5 m 0
 -36 -5 -41 -1 -41 7 c 0
 -40 12 -38 16 -33 20 c 128
 -28 24 -21 28 -13 31 c 0
 11 38 28 44 39 52 c 128
 50 60 60 75 68 96 c 2
 209 551 l 2
 217 573 215 589 209 598 c 128
 203 607 190 614 171 619 c 0
 164 620 159 622 157 625 c 128
 155 628 154 631 154 634 c 0
 154 640 157 644 162 648 c 128
 167 652 174 654 181 654 c 0
 200 654 215 653 228 652 c 128
 241 651 251 649 263 648 c 128
 275 647 288 647 303 647 c 0
 317 647 332 648 344 649 c 128
 356 650 371 651 385 652 c 128
 399 653 417 654 437 654 c 0
 477 654 510 649 537 639 c 128
 564 629 583 615 597 596 c 128
 611 577 618 553 618 526 c 0
 618 506 613 487 602 469 c 128
 591 451 577 435 561 421 c 128
 545 407 526 396 505 386 c 128
 484 376 464 369 441 364 c 0
 438 363 435 362 434 360 c 128
 433 358 435 355 438 354 c 0
 475 341 505 322 527 297 c 128
 549 272 561 239 560 197 c 0
 560 160 550 130 534 104 c 128
 518 78 495 57 466 41 c 128
 437 25 404 13 367 6 c 128
 330 -1 290 -4 247 -4 c 0
 222 -4 198 -4 177 -2 c 128
 156 0 134 1 110 1 c 0
 97 1 83 1 67 0 c 128
 51 -1 35 -3 20 -4 c 128
 5 -5 -11 -5 -25 -5 c 0
257 28 m 0
 277 31 295 38 314 50 c 128
 333 62 349 79 364 98 c 128
 379 117 391 137 400 159 c 128
 409 181 414 203 414 226 c 0
 414 256 407 281 391 301 c 128
 375 321 353 331 323 331 c 0
 310 331 299 329 293 326 c 128
 287 323 282 317 278 308 c 2
 214 101 l 2
 212 93 211 84 211 75 c 128
 211 66 213 58 216 52 c 0
 219 47 225 41 232 36 c 128
 239 31 247 28 257 28 c 0
331 364 m 0
 346 364 359 366 371 370 c 128
 383 374 393 377 406 382 c 1
 428 399 448 420 465 446 c 128
 482 472 489 502 490 536 c 0
 490 559 483 580 469 598 c 128
 455 616 437 626 415 626 c 0
 401 626 390 623 382 618 c 128
 374 613 370 605 366 593 c 2
 304 389 l 2
 299 372 309 364 331 364 c 0
EndSplineSet
EndChar

StartChar: C
Encoding: 67 67 2
Width: 600
GlyphClass: 2
Flags: W
LayerCount: 2
Fore
SplineSet
286 -14 m 0
 254 -14 225 -7 197 6 c 128
 169 19 145 38 124 62 c 128
 103 86 88 113 77 145 c 128
 66 177 62 212 63 251 c 0
 65 311 77 366 99 416 c 128
 121 466 152 509 190 546 c 128
 228 583 271 612 321 633 c 128
 371 654 423 664 479 664 c 0
 499 664 518 662 534 658 c 128
 550 654 564 649 576 644 c 0
 588 640 596 636 603 634 c 128
 610 632 617 631 624 631 c 0
 628 631 633 631 636 632 c 128
 639 633 643 634 647 637 c 0
 652 640 655 642 660 644 c 128
 665 646 669 647 673 647 c 0
 679 647 683 645 684 641 c 128
 685 637 684 632 680 625 c 0
 672 614 663 598 654 578 c 128
 645 558 636 537 628 516 c 128
 620 495 613 475 608 458 c 0
 606 452 603 446 600 442 c 128
 597 438 592 436 586 436 c 0
 581 436 577 441 575 450 c 128
 573 459 573 470 574 483 c 0
 576 498 574 513 571 528 c 128
 568 543 562 557 555 570 c 0
 546 587 535 601 521 612 c 128
 507 623 491 628 475 628 c 0
 444 628 416 619 388 601 c 128
 360 583 334 558 312 528 c 128
 290 498 271 464 254 426 c 128
 237 388 225 348 215 306 c 128
 205 264 200 225 199 186 c 0
 199 159 199 134 205 114 c 128
 211 94 218 77 229 64 c 128
 240 51 253 40 268 34 c 128
 283 28 301 25 320 25 c 0
 345 25 367 30 390 42 c 128
 413 54 435 71 455 92 c 128
 476 113 495 138 515 166 c 0
 520 173 524 179 528 184 c 128
 532 189 536 192 540 192 c 256
 544 192 548 189 550 184 c 128
 552 179 553 173 551 166 c 0
 546 151 542 134 535 114 c 128
 528 94 521 75 512 56 c 128
 503 37 496 22 489 10 c 128
 482 -2 476 -9 472 -9 c 0
 467 -9 463 -8 460 -6 c 128
 457 -4 454 -1 451 2 c 256
 448 5 441 6 437 8 c 128
 433 10 426 11 418 11 c 0
 411 11 404 10 396 8 c 128
 388 6 379 2 369 -1 c 0
 358 -4 346 -7 332 -10 c 128
 318 -13 303 -14 286 -14 c 0
EndSplineSet
EndChar

StartChar: D
Encoding: 68 68 3
Width: 600
GlyphClass: 2
Flags: W
LayerCount: 2
Fore
SplineSet
249 -7 m 0
 227 -7 205 -6 183 -4 c 128
 161 -2 141 0 124 2 c 128
 107 4 94 4 87 4 c 0
 76 4 63 3 48 2 c 128
 33 1 18 0 2 -1 c 128
 -14 -2 -28 -3 -40 -3 c 0
 -43 -3 -46 -2 -48 1 c 128
 -50 4 -50 7 -49 12 c 0
 -45 23 -37 31 -26 34 c 0
 -11 38 1 42 10 46 c 128
 19 50 26 57 32 65 c 128
 38 73 43 84 46 97 c 2
 188 551 l 2
 192 566 193 578 192 586 c 128
 191 594 188 600 182 605 c 128
 176 610 166 614 153 618 c 0
 149 619 146 622 144 626 c 128
 142 630 142 634 144 640 c 0
 145 645 149 648 153 651 c 128
 157 654 162 655 165 655 c 0
 183 655 203 654 226 652 c 128
 249 650 269 650 286 650 c 0
 297 650 308 650 320 651 c 128
 332 652 344 652 359 653 c 128
 374 654 390 654 409 654 c 0
 460 654 503 642 537 617 c 128
 571 592 596 559 612 518 c 128
 628 477 634 433 632 385 c 0
 629 332 617 283 595 236 c 128
 573 189 545 146 510 110 c 128
 475 74 435 45 390 24 c 128
 345 3 298 -7 249 -7 c 0
251 31 m 0
 278 31 305 42 332 64 c 128
 359 86 384 114 407 150 c 128
 430 186 449 225 464 269 c 128
 479 313 487 357 489 402 c 0
 492 455 490 497 482 528 c 128
 474 559 463 580 447 594 c 128
 431 608 412 615 391 615 c 0
 380 615 372 614 364 611 c 128
 356 608 349 604 344 598 c 128
 339 592 335 583 332 572 c 2
 196 119 l 2
 189 97 188 79 193 66 c 128
 198 53 207 44 218 39 c 128
 229 34 240 31 251 31 c 0
EndSplineSet
EndChar

StartChar: E
Encoding: 69 69 4
Width: 600
GlyphClass: 2
Flags: W
LayerCount: 2
Fore
SplineSet
-24 -5 m 0
 -31 -5 -36 -3 -38 -0 c 128
 -40 3 -41 6 -40 10 c 0
 -38 20 -29 27 -12 31 c 0
 13 38 32 44 44 52 c 128
 56 60 65 75 72 96 c 2
 212 551 l 2
 219 574 220 589 214 598 c 128
 208 607 193 614 170 619 c 0
 162 621 157 624 154 628 c 128
 151 632 150 635 151 640 c 0
 152 644 156 647 163 650 c 128
 170 653 180 655 193 655 c 0
 202 655 214 655 228 654 c 128
 242 653 258 651 274 650 c 128
 290 649 305 649 318 649 c 2
 483 650 l 2
 513 650 538 652 556 654 c 128
 574 656 588 658 598 660 c 128
 608 662 615 662 618 662 c 0
 623 662 626 660 630 657 c 128
 634 654 636 649 636 642 c 0
 636 634 634 623 630 608 c 128
 626 593 620 578 616 561 c 128
 612 544 610 529 609 514 c 0
 609 507 608 502 604 499 c 128
 600 496 596 494 593 494 c 0
 590 494 587 495 584 498 c 128
 581 501 579 506 578 512 c 0
 575 549 569 576 560 592 c 128
 551 608 533 615 508 615 c 2
 430 615 l 2
 413 615 400 610 390 600 c 128
 380 590 370 572 361 543 c 2
 313 379 l 2
 310 370 311 364 314 360 c 128
 317 356 322 354 331 354 c 2
 422 354 l 2
 439 355 454 360 466 370 c 128
 478 380 490 395 500 412 c 0
 503 418 508 422 514 426 c 128
 520 430 524 432 528 432 c 256
 532 432 535 430 536 426 c 128
 537 422 536 415 533 408 c 0
 527 394 521 381 516 368 c 128
 511 355 506 342 503 329 c 0
 499 316 495 303 492 290 c 128
 489 277 485 263 482 248 c 0
 479 239 477 233 474 228 c 128
 471 223 467 221 464 221 c 0
 459 221 455 224 452 229 c 128
 449 234 447 240 448 246 c 0
 449 267 447 284 442 296 c 128
 437 308 429 313 416 313 c 2
 316 313 l 2
 308 313 302 312 296 308 c 128
 290 304 286 298 284 289 c 2
 233 114 l 2
 226 87 226 68 234 55 c 128
 242 42 258 36 284 36 c 2
 371 36 l 2
 385 36 398 38 412 43 c 128
 426 48 439 54 451 62 c 0
 464 71 477 84 489 102 c 128
 501 120 513 137 525 155 c 0
 528 160 532 163 534 165 c 128
 536 167 539 168 543 168 c 256
 547 168 550 166 551 162 c 128
 552 158 553 153 553 145 c 0
 553 138 550 127 545 110 c 128
 540 93 532 75 524 56 c 128
 516 37 508 22 499 9 c 0
 496 4 491 1 486 -1 c 128
 481 -3 476 -4 470 -4 c 0
 463 -4 449 -4 430 -4 c 128
 411 -4 389 -2 363 -2 c 128
 337 -2 309 -2 280 -2 c 128
 251 -2 223 0 194 -0 c 128
 165 0 139 0 116 0 c 0
 102 0 87 0 70 -1 c 128
 53 -2 37 -3 21 -4 c 128
 5 -5 -10 -5 -24 -5 c 0
EndSplineSet
EndChar

StartChar: F
Encoding: 70 70 5
Width: 600
GlyphClass: 2
Flags: W
LayerCount: 2
Fore
SplineSet
8 -3 m 0
 3 -3 -1 -2 -4 0 c 128
 -7 2 -8 6 -7 11 c 0
 -6 17 -3 22 2 25 c 128
 7 28 13 31 20 32 c 0
 47 37 67 44 78 52 c 128
 89 60 98 76 105 97 c 2
 246 551 l 2
 253 572 254 588 248 597 c 128
 242 606 229 613 210 618 c 0
 200 621 194 624 191 628 c 128
 188 632 188 635 189 640 c 0
 190 644 192 647 198 650 c 128
 204 653 211 655 220 655 c 0
 237 655 258 654 283 652 c 128
 308 650 331 650 351 650 c 2
 511 650 l 2
 557 650 592 652 615 657 c 128
 638 662 655 664 664 664 c 0
 669 664 673 663 677 660 c 128
 681 657 682 652 681 645 c 0
 680 641 679 637 678 633 c 128
 677 629 676 625 675 621 c 0
 672 608 667 592 660 572 c 128
 653 552 647 530 644 506 c 0
 643 499 641 494 638 491 c 128
 635 488 632 486 628 486 c 256
 624 486 621 487 619 490 c 128
 617 493 616 498 616 504 c 0
 615 521 614 536 612 549 c 128
 610 562 605 574 598 584 c 0
 592 594 584 602 574 608 c 128
 564 614 551 616 537 616 c 2
 470 617 l 2
 454 618 440 614 428 606 c 128
 416 598 409 586 405 572 c 0
 403 567 399 556 394 538 c 128
 389 520 382 500 376 479 c 128
 370 458 364 438 358 420 c 128
 352 402 349 388 346 381 c 0
 344 373 346 366 350 360 c 128
 354 354 366 351 385 351 c 2
 432 351 l 2
 473 352 505 370 528 407 c 0
 532 413 537 418 542 421 c 128
 547 424 551 426 555 426 c 0
 558 426 561 424 562 420 c 128
 563 416 563 411 561 404 c 0
 550 377 540 352 533 330 c 128
 526 308 519 283 514 258 c 0
 512 249 509 242 506 238 c 128
 503 234 499 232 496 232 c 0
 491 232 487 235 484 240 c 128
 481 245 480 250 480 256 c 0
 480 277 478 291 472 299 c 128
 466 307 457 311 445 311 c 0
 436 311 436 311 418 311 c 128
 400 311 398 311 380 311 c 128
 362 311 362 311 354 311 c 0
 343 311 333 309 326 304 c 128
 319 299 315 292 313 283 c 2
 259 101 l 2
 255 85 254 73 256 64 c 128
 258 55 266 48 277 43 c 128
 288 38 305 35 326 32 c 0
 332 31 336 29 338 26 c 128
 340 23 341 18 340 12 c 0
 339 7 336 4 332 1 c 128
 328 -2 323 -3 317 -3 c 0
 303 -3 286 -3 265 -2 c 128
 244 -1 224 0 204 1 c 128
 184 2 167 2 154 2 c 0
 133 2 109 2 82 -0 c 128
 55 -2 31 -3 8 -3 c 0
EndSplineSet
EndChar

StartChar: G
Encoding: 71 71 6
Width: 600
GlyphClass: 2
Flags: W
LayerCount: 2
Fore
SplineSet
268 -14 m 0
 227 -14 191 -6 159 12 c 128
 127 30 104 56 86 89 c 128
 68 122 58 162 56 208 c 128
 54 254 61 306 79 363 c 0
 92 404 111 442 135 478 c 128
 159 514 188 546 221 574 c 128
 254 602 291 624 332 640 c 128
 373 656 417 664 463 664 c 0
 482 664 499 662 513 658 c 128
 527 654 539 649 550 644 c 0
 560 640 568 636 574 634 c 128
 580 632 586 631 593 631 c 0
 597 631 601 631 604 632 c 128
 607 633 611 634 615 637 c 0
 619 640 624 643 628 645 c 128
 632 647 637 648 640 648 c 0
 646 648 649 645 650 640 c 128
 651 635 649 630 645 624 c 0
 637 613 629 597 620 578 c 128
 611 559 603 539 595 518 c 128
 587 497 580 477 575 460 c 0
 573 453 571 448 568 444 c 128
 565 440 560 437 554 437 c 0
 542 437 538 452 541 481 c 0
 543 502 544 521 543 538 c 128
 542 555 538 569 531 582 c 0
 524 595 514 606 500 615 c 128
 486 624 471 628 455 628 c 0
 432 628 410 622 387 609 c 128
 364 596 341 577 319 551 c 128
 297 525 275 492 254 451 c 128
 233 410 214 362 197 306 c 0
 185 267 178 230 178 196 c 128
 178 162 182 132 191 106 c 128
 200 80 214 60 232 45 c 128
 250 30 271 23 295 23 c 0
 314 23 332 32 348 48 c 128
 364 64 375 82 381 103 c 2
 416 215 l 2
 418 222 418 230 417 236 c 128
 416 242 412 247 405 251 c 0
 398 255 390 259 380 262 c 128
 370 265 362 267 355 269 c 0
 351 270 347 273 344 277 c 128
 341 281 339 286 341 292 c 0
 342 297 346 300 350 303 c 128
 354 306 359 307 364 307 c 0
 376 307 390 306 406 304 c 128
 422 302 438 302 454 300 c 128
 470 298 483 297 494 297 c 0
 510 297 526 299 544 302 c 128
 562 305 584 306 610 306 c 0
 619 306 621 301 618 291 c 0
 616 284 613 279 610 276 c 128
 607 273 603 271 597 270 c 0
 580 265 567 259 559 252 c 128
 551 245 543 234 536 221 c 0
 531 211 526 199 520 184 c 128
 514 169 509 156 505 143 c 128
 501 130 498 122 498 117 c 0
 498 110 499 103 502 97 c 128
 505 91 509 84 514 77 c 1
 508 65 495 54 476 43 c 128
 457 32 434 23 409 14 c 128
 384 5 359 -1 333 -6 c 128
 307 -11 286 -14 268 -14 c 0
EndSplineSet
EndChar

StartChar: H
Encoding: 72 72 7
Width: 600
GlyphClass: 2
Flags: W
LayerCount: 2
Fore
SplineSet
-25 -3 m 0
 -28 -3 -31 -2 -33 1 c 128
 -35 4 -35 7 -34 12 c 0
 -32 18 -30 22 -26 26 c 128
 -22 30 -17 33 -12 34 c 0
 7 39 20 46 29 54 c 128
 38 62 46 76 52 97 c 2
 193 551 l 2
 200 572 201 587 197 596 c 128
 193 605 183 612 167 618 c 0
 163 619 160 622 159 626 c 128
 158 630 158 634 160 640 c 0
 161 645 164 648 168 651 c 128
 172 654 176 655 179 655 c 0
 190 655 202 655 215 654 c 128
 228 653 241 653 253 652 c 128
 265 651 276 650 286 650 c 256
 296 650 309 650 324 651 c 128
 346 652 346 652 368 653 c 128
 383 654 395 654 406 654 c 0
 414 654 417 649 414 639 c 0
 412 632 409 628 406 625 c 128
 403 622 398 620 392 618 c 0
 376 613 365 607 356 602 c 128
 347 597 341 590 336 582 c 128
 331 574 326 563 322 550 c 2
 266 369 l 2
 263 359 266 354 274 354 c 2
 448 354 l 2
 455 354 460 359 463 369 c 2
 518 550 l 2
 524 570 526 584 522 592 c 128
 518 600 507 608 489 618 c 0
 486 620 483 622 481 625 c 128
 479 628 480 632 482 639 c 0
 484 644 486 648 489 650 c 128
 492 652 495 654 499 654 c 0
 510 654 523 654 537 653 c 128
 551 652 566 652 580 651 c 128
 594 650 606 650 615 650 c 0
 625 650 637 651 650 652 c 128
 663 653 676 653 690 654 c 128
 704 655 717 655 728 655 c 0
 731 655 734 654 736 651 c 128
 738 648 737 645 736 640 c 0
 732 629 724 621 714 618 c 0
 695 612 681 605 672 596 c 128
 663 587 656 572 649 551 c 2
 508 97 l 2
 502 76 501 62 505 54 c 128
 509 46 519 39 535 34 c 0
 539 33 541 30 543 26 c 128
 545 22 545 18 542 12 c 0
 541 7 538 4 534 1 c 128
 530 -2 526 -3 523 -3 c 0
 513 -3 502 -3 489 -2 c 128
 476 -1 463 0 450 1 c 128
 437 2 426 2 416 2 c 0
 406 2 393 2 378 1 c 128
 356 0 356 0 334 -1 c 128
 319 -2 306 -2 295 -2 c 0
 288 -2 286 3 288 13 c 0
 290 20 293 24 296 27 c 128
 299 30 305 32 310 34 c 0
 332 42 347 50 356 58 c 128
 365 66 372 79 378 98 c 2
 436 289 l 2
 438 294 438 299 438 302 c 128
 438 305 436 306 432 306 c 2
 259 306 l 2
 250 306 244 300 240 289 c 2
 182 98 l 2
 177 79 177 66 181 59 c 128
 185 52 196 43 213 34 c 0
 217 32 219 30 221 27 c 128
 223 24 222 20 220 13 c 0
 219 8 217 5 214 2 c 128
 211 -1 207 -2 203 -2 c 0
 192 -2 180 -2 166 -1 c 128
 152 0 137 0 123 1 c 128
 109 2 97 2 87 2 c 256
 77 2 65 2 51 1 c 128
 37 0 23 -1 10 -2 c 128
 -3 -3 -15 -3 -25 -3 c 0
EndSplineSet
EndChar

StartChar: I
Encoding: 73 73 8
Width: 600
GlyphClass: 2
Flags: W
LayerCount: 2
Fore
SplineSet
86 -3 m 0
 81 -3 77 -2 74 0 c 128
 71 2 70 6 71 11 c 0
 74 22 83 29 98 32 c 0
 125 38 145 45 157 53 c 128
 169 61 178 76 185 97 c 2
 326 551 l 2
 333 572 333 587 327 596 c 128
 321 605 306 612 281 619 c 0
 275 620 271 622 268 626 c 128
 265 630 265 635 267 640 c 0
 268 645 271 648 276 651 c 128
 281 654 286 655 291 655 c 0
 306 655 321 655 338 654 c 128
 355 653 372 653 388 652 c 128
 404 651 419 650 432 650 c 256
 445 650 461 650 478 651 c 128
 495 652 512 652 530 653 c 128
 548 654 564 654 579 654 c 0
 590 654 595 649 592 640 c 0
 591 633 588 629 583 626 c 128
 578 623 572 621 564 619 c 0
 545 614 529 608 518 603 c 128
 507 598 499 591 493 583 c 128
 487 575 482 564 478 550 c 2
 350 134 l 2
 343 109 338 91 337 78 c 128
 336 65 339 56 346 50 c 128
 353 44 363 40 378 36 c 0
 392 33 402 29 406 26 c 128
 410 23 411 18 409 12 c 0
 408 7 406 4 402 1 c 128
 398 -2 392 -3 387 -3 c 0
 372 -3 355 -3 336 -2 c 128
 317 -1 299 0 280 1 c 128
 261 2 245 2 232 2 c 0
 211 2 187 2 160 -0 c 128
 133 -2 109 -3 86 -3 c 0
EndSplineSet
EndChar

StartChar: J
Encoding: 74 74 9
Width: 600
GlyphClass: 2
Flags: W
LayerCount: 2
Fore
SplineSet
42 -200 m 0
 -5 -200 -39 -195 -58 -184 c 128
 -77 -173 -87 -160 -88 -143 c 0
 -88 -124 -85 -107 -78 -94 c 128
 -71 -81 -61 -75 -50 -75 c 0
 -41 -75 -32 -79 -21 -88 c 128
 -10 -97 1 -107 12 -118 c 0
 24 -128 36 -138 48 -147 c 128
 60 -156 70 -161 80 -161 c 0
 91 -161 102 -154 111 -142 c 128
 120 -130 130 -111 140 -84 c 128
 150 -57 162 -23 175 20 c 2
 339 551 l 2
 346 573 346 588 340 597 c 128
 334 606 319 613 295 619 c 0
 289 620 285 622 282 626 c 128
 279 630 279 635 281 640 c 0
 282 645 285 648 290 651 c 128
 295 654 299 655 304 655 c 0
 319 655 335 655 352 654 c 128
 369 653 386 653 402 652 c 128
 418 651 433 650 446 650 c 0
 459 650 473 650 490 651 c 128
 507 652 525 652 542 653 c 128
 559 654 575 654 590 654 c 0
 601 654 606 649 603 640 c 0
 602 633 599 629 594 626 c 128
 589 623 583 621 576 619 c 0
 557 614 542 608 531 603 c 128
 520 598 512 591 506 583 c 128
 500 575 496 564 492 550 c 2
 343 68 l 2
 337 47 330 28 321 10 c 128
 312 -8 303 -26 292 -42 c 128
 281 -58 269 -73 256 -87 c 128
 243 -101 229 -114 215 -126 c 0
 190 -148 162 -166 133 -180 c 128
 104 -194 73 -200 42 -200 c 0
EndSplineSet
EndChar

StartChar: K
Encoding: 75 75 10
Width: 600
GlyphClass: 2
Flags: W
LayerCount: 2
Fore
SplineSet
-15 -6 m 0
 -20 -6 -24 -4 -28 -1 c 128
 -32 2 -34 6 -33 11 c 0
 -30 22 -20 29 -5 32 c 0
 17 37 31 44 40 53 c 128
 49 62 57 77 63 98 c 2
 204 551 l 2
 211 573 211 588 207 597 c 128
 203 606 191 613 173 619 c 0
 168 620 164 622 163 624 c 128
 162 626 161 630 162 635 c 0
 163 640 165 645 170 649 c 128
 175 653 182 655 189 655 c 0
 198 655 209 655 221 654 c 128
 233 653 246 653 259 652 c 128
 272 651 283 650 293 650 c 0
 303 650 316 650 329 651 c 128
 342 652 356 652 369 653 c 128
 382 654 394 654 406 654 c 0
 414 654 419 650 419 643 c 256
 419 636 415 630 410 627 c 128
 405 624 400 621 394 619 c 0
 378 614 366 609 357 604 c 128
 348 599 341 592 337 584 c 128
 333 576 327 564 323 550 c 2
 268 370 l 2
 267 363 267 359 268 357 c 128
 269 355 274 354 279 354 c 0
 289 354 300 358 311 366 c 128
 322 374 335 386 349 401 c 2
 485 551 l 2
 491 558 495 564 500 570 c 128
 505 576 506 581 508 586 c 0
 510 593 509 599 503 604 c 128
 497 609 488 612 481 614 c 0
 475 616 471 619 469 622 c 128
 467 625 464 629 465 634 c 0
 466 640 467 644 472 647 c 128
 477 650 482 651 487 651 c 2
 546 651 l 2
 572 651 598 651 622 652 c 128
 646 653 672 654 701 654 c 0
 712 654 718 649 717 640 c 0
 716 634 713 630 706 626 c 128
 699 622 693 620 688 619 c 0
 660 616 635 610 615 600 c 128
 595 590 575 575 556 557 c 0
 537 539 518 520 498 501 c 128
 478 482 458 461 438 440 c 128
 418 419 400 398 380 377 c 0
 375 371 372 366 371 362 c 128
 370 358 370 352 371 347 c 0
 392 278 412 224 430 185 c 128
 448 146 464 115 478 93 c 0
 487 78 497 66 508 58 c 128
 519 50 530 42 542 36 c 0
 547 33 552 30 558 27 c 128
 564 24 567 19 566 13 c 0
 565 8 563 3 558 0 c 128
 553 -3 545 -5 535 -5 c 0
 520 -5 507 -5 494 -4 c 128
 481 -3 469 -1 456 0 c 128
 443 1 429 1 414 1 c 0
 402 1 391 0 381 0 c 128
 371 0 361 0 351 -1 c 128
 341 -2 329 -2 317 -2 c 0
 313 -2 310 -1 306 2 c 128
 302 5 299 8 300 13 c 0
 300 20 304 26 309 29 c 128
 314 32 321 35 327 36 c 0
 337 38 342 42 344 49 c 128
 346 56 348 64 346 72 c 128
 344 80 344 88 341 96 c 2
 281 286 l 2
 277 299 272 308 268 313 c 128
 264 318 261 321 258 321 c 0
 255 321 253 320 251 318 c 128
 249 316 249 313 248 309 c 2
 186 100 l 2
 179 79 179 65 181 56 c 128
 183 47 194 39 212 32 c 0
 216 30 220 28 223 26 c 128
 226 24 228 19 227 14 c 0
 226 8 223 3 217 0 c 128
 211 -3 205 -4 199 -4 c 0
 183 -4 169 -3 157 -2 c 128
 145 -1 135 1 125 2 c 128
 115 3 105 4 95 4 c 0
 79 4 64 2 48 -1 c 128
 32 -4 11 -6 -15 -6 c 0
EndSplineSet
EndChar

StartChar: L
Encoding: 76 76 11
Width: 600
GlyphClass: 2
Flags: W
LayerCount: 2
Fore
SplineSet
-11 -5 m 0
 -18 -5 -22 -3 -24 -0 c 128
 -26 3 -28 6 -27 10 c 0
 -25 20 -16 27 1 31 c 0
 25 38 43 44 56 52 c 128
 69 60 79 75 86 96 c 2
 227 553 l 2
 234 574 234 589 228 597 c 128
 222 605 207 612 183 619 c 0
 177 620 172 622 170 626 c 128
 168 630 168 635 169 640 c 0
 170 645 173 648 178 651 c 128
 183 654 187 655 192 655 c 0
 207 655 223 655 240 654 c 128
 257 653 273 653 289 652 c 128
 305 651 320 650 333 650 c 0
 347 650 362 650 380 651 c 128
 398 652 416 652 434 653 c 128
 452 654 468 654 483 654 c 0
 494 654 499 649 496 640 c 0
 495 633 492 629 487 626 c 128
 482 623 476 621 469 619 c 0
 449 614 433 609 422 604 c 128
 411 599 402 593 396 585 c 128
 390 577 384 566 380 553 c 2
 256 147 l 2
 243 104 240 75 246 60 c 128
 252 45 265 38 284 38 c 2
 320 38 l 2
 349 38 374 41 396 48 c 128
 418 55 438 63 454 74 c 0
 472 87 487 103 500 120 c 128
 513 137 525 157 536 178 c 0
 539 183 542 188 546 191 c 128
 550 194 553 196 557 196 c 0
 560 196 563 194 565 190 c 128
 567 186 568 183 568 178 c 0
 568 169 566 156 562 141 c 128
 558 126 553 110 546 94 c 128
 539 78 533 62 526 48 c 128
 519 34 513 22 507 13 c 0
 504 9 501 5 498 1 c 128
 495 -3 490 -5 484 -5 c 0
 470 -5 450 -5 422 -4 c 128
 394 -3 363 -2 329 -2 c 128
 295 -2 261 -2 226 -1 c 128
 191 0 159 0 130 0 c 0
 109 0 86 0 59 -2 c 128
 32 -4 9 -5 -11 -5 c 0
EndSplineSet
EndChar

StartChar: M
Encoding: 77 77 12
Width: 600
GlyphClass: 2
Flags: W
LayerCount: 2
Fore
SplineSet
213 -14 m 256
 210 -14 208 -12 207 -8 c 128
 206 -4 205 2 206 9 c 0
 216 85 223 158 229 230 c 128
 235 302 241 375 246 448 c 0
 247 455 245 457 242 455 c 128
 239 453 236 448 233 441 c 0
 214 396 195 350 177 305 c 128
 159 260 143 214 127 168 c 0
 118 141 112 118 109 99 c 128
 106 80 106 66 108 56 c 128
 110 46 116 38 124 34 c 0
 127 33 130 31 133 28 c 128
 136 25 136 20 134 13 c 0
 133 8 130 5 126 2 c 128
 122 -1 117 -2 114 -2 c 0
 103 -2 95 -2 89 -1 c 128
 83 0 78 0 73 0 c 128
 68 0 61 1 53 1 c 0
 44 1 33 1 22 0 c 128
 11 -1 2 -1 -6 -2 c 128
 -17 -3 -17 -3 -17 -3 c 2
 -27 -3 -30 2 -27 12 c 0
 -25 18 -23 22 -18 24 c 128
 -13 26 -9 27 -5 30 c 0
 6 36 15 43 24 50 c 128
 33 57 42 69 52 86 c 128
 62 103 74 128 88 161 c 2
 228 494 l 2
 239 521 246 543 249 559 c 128
 252 575 250 588 243 598 c 128
 236 608 222 617 204 624 c 0
 199 626 196 628 194 630 c 128
 192 632 190 636 191 643 c 0
 192 650 195 655 200 656 c 128
 205 657 210 658 215 658 c 0
 224 658 235 658 250 657 c 128
 265 656 280 655 296 654 c 128
 312 653 324 653 334 653 c 0
 345 653 352 648 354 637 c 128
 356 626 355 613 352 597 c 128
 349 581 348 565 347 548 c 2
 317 229 l 2
 316 223 317 219 319 217 c 128
 321 215 323 217 327 223 c 0
 353 258 379 298 405 340 c 128
 431 382 455 424 478 465 c 128
 501 506 520 542 536 573 c 0
 544 587 550 600 556 610 c 128
 562 620 566 629 570 637 c 0
 575 646 579 650 584 650 c 2
 615 650 l 2
 627 650 639 651 650 652 c 128
 661 653 671 655 681 656 c 128
 691 657 700 658 707 658 c 0
 712 658 715 658 717 656 c 128
 719 654 720 650 719 644 c 256
 718 638 716 633 709 628 c 128
 702 623 693 618 682 613 c 0
 672 609 663 603 656 595 c 128
 649 587 642 577 636 565 c 128
 630 553 625 539 621 522 c 0
 602 453 583 383 564 312 c 128
 545 241 526 169 509 98 c 0
 505 81 506 68 511 58 c 128
 516 48 523 39 533 34 c 0
 536 32 538 30 540 27 c 128
 542 24 542 20 540 13 c 0
 539 8 536 5 533 2 c 128
 530 -1 526 -2 523 -2 c 0
 514 -2 504 -2 492 -1 c 128
 480 0 468 0 456 1 c 128
 444 2 435 2 427 2 c 256
 419 2 409 2 398 1 c 128
 387 0 375 -1 364 -2 c 128
 353 -3 343 -3 334 -3 c 0
 331 -3 328 -2 326 1 c 128
 324 4 325 7 326 12 c 0
 328 18 330 22 334 26 c 128
 338 30 342 33 346 34 c 0
 363 41 376 48 384 56 c 128
 392 64 400 77 406 97 c 0
 418 134 428 172 438 208 c 128
 453 262 453 262 468 316 c 128
 478 352 488 389 497 426 c 0
 498 430 498 432 497 432 c 128
 496 432 494 429 491 424 c 2
 304 137 l 1
 231 5 l 2
 229 1 226 -4 222 -8 c 128
 218 -12 216 -14 213 -14 c 256
EndSplineSet
EndChar

StartChar: N
Encoding: 78 78 13
Width: 600
GlyphClass: 2
Flags: W
LayerCount: 2
Fore
SplineSet
2 -3 m 2
 -1 -3 -5 -2 -8 1 c 128
 -11 4 -11 7 -10 12 c 0
 -8 18 -6 23 -1 26 c 128
 4 29 9 31 14 33 c 0
 30 38 44 48 55 61 c 128
 66 74 77 92 85 115 c 2
 229 510 l 2
 238 535 242 555 240 570 c 128
 238 585 232 597 221 605 c 128
 210 613 194 618 174 620 c 0
 168 621 163 624 159 627 c 128
 155 630 154 635 155 642 c 0
 156 646 158 650 164 653 c 128
 170 656 176 658 181 658 c 0
 192 658 205 658 223 657 c 128
 241 656 260 655 279 654 c 128
 298 653 316 653 332 653 c 0
 339 653 345 652 349 648 c 128
 353 644 356 638 358 631 c 2
 474 199 l 2
 475 196 475 194 476 191 c 128
 477 188 479 187 480 187 c 0
 483 187 486 192 490 201 c 0
 492 206 495 212 498 222 c 128
 502 236 502 237 509 258 c 128
 513 272 518 288 523 306 c 128
 528 324 533 342 539 362 c 128
 545 382 550 402 555 424 c 128
 560 446 566 468 571 490 c 0
 582 535 583 566 574 584 c 128
 565 602 547 614 520 621 c 0
 511 623 508 628 509 636 c 0
 510 641 512 644 517 647 c 128
 522 650 527 651 530 651 c 0
 551 651 569 650 584 648 c 128
 599 646 611 645 618 645 c 0
 628 645 637 646 647 647 c 128
 657 648 667 649 678 650 c 128
 689 651 700 652 713 652 c 0
 723 652 727 647 726 637 c 0
 726 632 723 629 717 626 c 128
 711 623 706 620 700 619 c 0
 688 616 676 610 667 604 c 128
 658 598 649 587 641 572 c 128
 633 557 624 534 615 505 c 0
 609 485 610 484 602 460 c 128
 594 436 594 436 585 408 c 128
 579 389 574 370 568 350 c 128
 562 330 556 308 549 287 c 128
 542 266 535 244 529 222 c 128
 523 200 517 179 510 158 c 0
 504 137 500 122 500 110 c 128
 500 98 502 84 507 69 c 0
 509 64 512 59 514 52 c 128
 516 45 520 39 523 34 c 0
 527 29 529 26 532 24 c 128
 535 22 536 19 536 16 c 0
 535 9 533 5 530 3 c 128
 527 1 523 0 518 0 c 0
 503 0 491 -1 481 -2 c 128
 471 -3 463 -5 455 -6 c 128
 447 -7 438 -7 427 -8 c 0
 411 -9 399 -4 392 6 c 128
 385 16 380 31 375 52 c 0
 373 63 368 80 362 106 c 128
 356 132 349 161 341 194 c 128
 333 227 324 262 316 296 c 128
 308 330 300 361 293 390 c 128
 286 419 281 442 276 460 c 128
 271 478 268 487 268 486 c 1
 268 487 267 489 266 492 c 128
 265 495 265 496 264 496 c 0
 262 496 259 494 257 489 c 128
 255 484 254 480 252 477 c 0
 244 456 234 430 223 398 c 128
 212 366 200 333 188 298 c 128
 176 263 165 228 155 196 c 128
 145 164 138 136 132 113 c 0
 126 88 126 70 132 60 c 128
 138 50 151 41 172 34 c 0
 176 33 180 31 183 28 c 128
 186 25 187 20 185 13 c 0
 184 8 180 5 175 2 c 128
 170 -1 165 -2 161 -2 c 0
 147 -2 137 -2 129 -1 c 128
 121 0 115 0 109 0 c 128
 103 0 96 1 88 1 c 0
 76 1 63 1 50 0 c 128
 37 -1 26 -1 16 -2 c 128
 2 -3 2 -3 2 -3 c 2
EndSplineSet
EndChar

StartChar: O
Encoding: 79 79 14
Width: 600
GlyphClass: 2
Flags: W
LayerCount: 2
Fore
SplineSet
253 -14 m 0
 214 -14 179 -3 149 18 c 128
 119 39 95 69 78 108 c 128
 61 147 54 191 56 242 c 0
 58 297 70 350 91 401 c 128
 112 452 139 497 174 536 c 128
 209 575 248 607 293 630 c 128
 338 653 386 664 435 664 c 0
 474 664 508 653 539 632 c 128
 570 611 593 580 610 542 c 128
 627 504 634 459 632 408 c 0
 630 353 618 301 597 250 c 128
 576 199 548 154 513 114 c 128
 478 74 438 43 394 20 c 128
 350 -3 303 -14 253 -14 c 0
254 25 m 0
 278 25 301 36 324 56 c 128
 347 76 369 102 390 136 c 128
 411 170 430 207 447 247 c 128
 464 287 477 327 487 366 c 128
 497 405 503 441 504 473 c 0
 505 501 504 526 499 550 c 128
 494 574 487 594 476 608 c 128
 465 622 451 629 433 629 c 0
 409 629 385 619 362 598 c 128
 339 577 317 550 296 516 c 128
 275 482 256 444 240 404 c 128
 224 364 210 324 200 284 c 128
 190 244 184 208 183 176 c 0
 182 149 184 123 188 100 c 128
 192 77 200 60 211 46 c 128
 222 32 236 25 254 25 c 0
EndSplineSet
EndChar

StartChar: P
Encoding: 80 80 15
Width: 600
GlyphClass: 2
Flags: W
LayerCount: 2
Fore
SplineSet
-17 -3 m 0
 -21 -3 -26 -2 -30 0 c 128
 -34 2 -37 6 -36 11 c 0
 -36 17 -32 22 -25 25 c 128
 -18 28 -11 31 -4 32 c 0
 22 38 40 45 51 53 c 128
 62 61 72 76 79 98 c 2
 219 548 l 2
 226 571 227 588 220 598 c 128
 213 608 198 615 176 620 c 0
 168 621 162 624 158 628 c 128
 154 632 153 635 154 640 c 0
 155 644 159 647 166 650 c 128
 173 653 179 655 185 655 c 0
 197 655 210 655 226 654 c 128
 242 653 259 652 275 651 c 128
 291 650 304 650 316 650 c 0
 325 651 338 651 351 652 c 128
 364 653 378 655 393 656 c 128
 408 657 424 657 439 657 c 0
 484 657 522 648 554 632 c 128
 586 616 609 594 625 566 c 128
 641 538 649 505 648 468 c 0
 646 434 638 402 622 374 c 128
 606 346 586 321 560 300 c 128
 534 279 505 263 470 251 c 128
 435 239 398 233 358 233 c 0
 343 233 333 235 326 238 c 128
 319 241 316 247 316 255 c 0
 317 260 318 264 322 266 c 128
 326 268 331 269 337 270 c 0
 344 271 351 273 356 274 c 128
 361 275 369 277 377 278 c 0
 406 283 430 296 451 317 c 128
 472 338 487 362 498 390 c 128
 509 418 514 446 514 475 c 0
 514 514 511 544 502 564 c 128
 493 584 482 598 466 606 c 128
 450 614 434 617 415 617 c 0
 409 617 403 615 398 612 c 128
 393 609 388 603 383 592 c 128
 378 581 371 564 364 540 c 2
 228 100 l 2
 220 79 223 63 232 54 c 128
 241 45 259 38 284 32 c 0
 290 31 295 29 299 26 c 128
 303 23 306 18 306 12 c 0
 305 7 302 4 294 1 c 128
 286 -2 280 -3 273 -3 c 0
 260 -3 243 -3 224 -2 c 128
 205 -1 187 0 169 1 c 128
 151 2 137 2 124 2 c 0
 104 2 82 2 55 0 c 128
 28 -2 5 -3 -17 -3 c 0
EndSplineSet
EndChar

StartChar: Q
Encoding: 81 81 16
Width: 600
GlyphClass: 1
Flags: W
LayerCount: 2
Fore
SplineSet
474 -290 m 0
 441 -290 409 -280 375 -262 c 128
 341 -244 308 -225 275 -204 c 0
 246 -185 219 -168 192 -154 c 128
 165 -140 141 -133 118 -133 c 0
 109 -133 100 -134 92 -136 c 128
 84 -138 76 -139 70 -142 c 0
 62 -145 54 -149 47 -154 c 0
 41 -159 35 -162 30 -162 c 0
 25 -162 22 -160 19 -156 c 128
 16 -152 14 -149 14 -144 c 0
 14 -136 21 -128 33 -119 c 128
 45 -110 59 -102 77 -92 c 128
 95 -82 114 -73 134 -64 c 128
 154 -55 174 -46 192 -37 c 128
 210 -28 224 -21 235 -14 c 0
 297 25 345 70 383 122 c 128
 421 174 449 230 467 290 c 128
 485 350 495 410 498 473 c 0
 499 506 499 532 495 554 c 128
 491 576 484 593 473 604 c 128
 462 615 448 620 429 620 c 0
 406 620 382 611 359 592 c 128
 336 573 314 547 293 515 c 128
 272 483 254 447 238 408 c 128
 222 369 209 330 199 290 c 128
 189 250 183 211 181 176 c 0
 180 150 181 125 186 102 c 128
 191 79 200 61 214 47 c 128
 228 33 249 26 276 25 c 0
 283 25 290 25 298 26 c 128
 306 27 313 28 322 30 c 1
 291 -11 l 1
 284 -12 276 -12 269 -13 c 128
 262 -14 256 -14 249 -14 c 0
 211 -14 177 -3 147 18 c 128
 117 39 94 69 77 108 c 128
 60 147 54 191 56 242 c 0
 58 297 70 350 91 401 c 128
 112 452 139 497 174 536 c 128
 209 575 248 607 292 630 c 128
 336 653 383 664 432 664 c 0
 470 664 504 653 534 632 c 128
 564 611 587 580 603 542 c 128
 619 504 627 459 624 408 c 0
 622 356 611 307 590 261 c 128
 569 215 541 173 506 134 c 128
 471 95 432 60 388 29 c 0
 362 10 337 -6 315 -19 c 128
 293 -32 269 -44 243 -56 c 128
 217 -68 185 -81 148 -94 c 1
 149 -87 l 1
 165 -78 181 -71 200 -66 c 128
 219 -61 236 -58 251 -58 c 0
 272 -58 295 -65 321 -78 c 128
 347 -91 374 -105 401 -121 c 0
 429 -137 454 -152 479 -166 c 128
 504 -180 524 -186 541 -186 c 256
 558 -186 573 -181 586 -172 c 128
 599 -163 611 -152 621 -137 c 0
 629 -125 635 -118 641 -118 c 128
 647 -118 650 -121 652 -127 c 128
 654 -133 653 -140 650 -149 c 0
 644 -163 635 -178 623 -194 c 128
 611 -210 596 -226 580 -241 c 128
 564 -256 546 -267 528 -276 c 128
 510 -285 491 -290 474 -290 c 0
EndSplineSet
EndChar

StartChar: R
Encoding: 82 82 17
Width: 600
GlyphClass: 2
Flags: W
LayerCount: 2
Fore
SplineSet
-18 -3 m 0
 -21 -3 -24 -2 -26 1 c 128
 -28 4 -29 7 -28 12 c 0
 -24 23 -16 31 -6 34 c 0
 16 39 31 46 41 54 c 128
 51 62 59 76 65 97 c 2
 208 555 l 2
 213 570 215 580 214 588 c 128
 213 596 210 602 204 606 c 128
 198 610 190 615 179 618 c 0
 174 620 169 623 165 626 c 128
 161 629 159 634 159 639 c 256
 159 644 163 648 171 651 c 128
 179 654 185 655 190 655 c 0
 207 655 221 654 232 653 c 128
 243 652 253 650 263 649 c 128
 273 648 285 647 298 647 c 0
 311 647 322 648 332 650 c 128
 342 652 353 652 366 654 c 128
 379 656 394 657 413 657 c 0
 449 657 478 650 499 637 c 128
 520 624 534 606 543 583 c 128
 552 560 555 535 553 508 c 0
 551 478 544 450 529 426 c 128
 514 402 496 382 474 366 c 128
 452 350 429 338 404 331 c 0
 400 329 400 325 401 319 c 0
 406 298 411 279 416 262 c 128
 421 245 425 230 430 216 c 128
 435 202 439 187 444 174 c 128
 449 161 453 146 458 131 c 0
 465 109 474 90 487 74 c 128
 500 58 515 51 533 51 c 0
 540 51 545 49 551 46 c 128
 557 43 560 37 560 28 c 0
 559 16 550 8 534 5 c 128
 518 2 487 0 443 0 c 0
 414 0 392 5 375 14 c 128
 358 23 346 35 338 50 c 128
 330 65 325 82 321 100 c 0
 317 121 315 140 312 156 c 128
 309 172 306 188 303 206 c 128
 300 224 298 245 295 268 c 0
 294 277 292 285 288 291 c 128
 284 297 278 300 271 300 c 0
 267 300 264 298 261 294 c 128
 258 290 256 286 253 280 c 2
 197 98 l 2
 191 77 191 63 198 55 c 128
 205 47 218 40 238 34 c 0
 242 33 245 31 247 28 c 128
 249 25 248 20 246 13 c 0
 244 8 241 5 239 2 c 128
 237 -1 233 -2 228 -2 c 0
 217 -2 204 -2 188 -1 c 128
 172 0 155 0 139 1 c 128
 123 2 110 2 100 2 c 0
 85 2 65 2 42 -0 c 128
 19 -2 -1 -3 -18 -3 c 0
297 328 m 0
 316 328 333 333 349 342 c 128
 365 351 378 365 390 382 c 128
 402 399 412 420 419 444 c 128
 426 468 430 495 432 524 c 0
 434 551 430 575 421 594 c 128
 412 613 401 622 386 622 c 0
 380 622 375 621 370 618 c 128
 365 615 360 607 354 594 c 128
 348 581 342 561 333 532 c 2
 280 366 l 2
 276 353 276 343 279 337 c 128
 282 331 289 328 297 328 c 0
EndSplineSet
EndChar

StartChar: S
Encoding: 83 83 18
Width: 600
GlyphClass: 2
Flags: W
LayerCount: 2
Fore
SplineSet
257 -14 m 0
 233 -14 211 -13 190 -10 c 128
 169 -7 149 -1 130 6 c 0
 121 10 112 14 106 16 c 128
 100 18 96 19 94 19 c 0
 89 19 84 18 80 16 c 128
 76 14 72 13 69 12 c 0
 64 9 60 7 56 4 c 128
 52 1 48 0 45 0 c 0
 41 0 36 3 30 8 c 128
 24 13 22 18 22 23 c 0
 22 28 26 39 33 55 c 128
 40 71 48 91 56 114 c 128
 64 137 71 162 74 187 c 0
 78 209 87 220 100 220 c 0
 109 220 114 214 116 204 c 128
 118 194 119 178 119 157 c 256
 119 136 123 114 132 94 c 128
 141 74 154 58 172 45 c 128
 190 32 214 26 242 26 c 0
 282 26 314 37 336 58 c 128
 358 79 369 106 369 138 c 0
 369 153 366 167 361 180 c 128
 356 193 346 207 332 223 c 128
 318 239 297 259 270 283 c 0
 238 312 214 340 197 367 c 128
 180 394 172 428 172 468 c 0
 172 505 182 539 203 568 c 128
 224 597 252 621 288 638 c 128
 324 655 364 664 410 664 c 0
 433 664 453 662 472 658 c 128
 491 654 508 650 523 645 c 0
 536 641 547 638 555 636 c 128
 563 634 571 632 579 632 c 0
 588 632 597 634 604 638 c 0
 609 641 613 642 618 644 c 128
 623 646 627 647 631 647 c 0
 638 647 643 645 644 640 c 128
 645 635 644 630 640 625 c 0
 633 616 625 602 616 585 c 128
 607 568 599 548 592 528 c 128
 585 508 578 488 573 467 c 0
 571 460 568 454 565 449 c 128
 562 444 557 442 550 442 c 0
 544 442 539 445 536 452 c 128
 533 459 532 469 532 483 c 0
 532 527 522 562 500 588 c 128
 478 614 449 626 414 626 c 0
 391 626 370 620 354 610 c 128
 338 600 326 586 318 570 c 128
 310 554 306 538 306 521 c 0
 306 505 309 491 314 478 c 128
 319 465 328 451 342 436 c 128
 356 421 376 403 403 380 c 0
 443 347 470 316 485 288 c 128
 500 260 507 229 507 196 c 0
 507 162 497 128 477 96 c 128
 457 64 429 38 392 17 c 128
 355 -4 310 -14 257 -14 c 0
EndSplineSet
EndChar

StartChar: T
Encoding: 84 84 19
Width: 600
GlyphClass: 2
Flags: W
LayerCount: 2
Fore
SplineSet
116 -3 m 0
 112 -3 108 -2 105 0 c 128
 102 2 99 6 100 11 c 0
 102 17 106 22 111 25 c 128
 116 28 122 31 129 32 c 0
 153 37 170 44 183 53 c 128
 196 62 206 77 212 98 c 2
 343 523 l 2
 354 562 361 586 360 597 c 128
 359 608 355 613 345 613 c 2
 303 613 l 2
 282 613 261 607 241 594 c 128
 221 581 203 567 188 550 c 0
 183 545 178 538 171 530 c 128
 164 522 155 514 147 507 c 128
 139 500 133 497 126 497 c 0
 121 497 118 499 117 502 c 128
 116 505 116 510 117 515 c 0
 118 518 119 523 122 528 c 128
 125 533 127 537 131 542 c 0
 149 565 163 587 173 606 c 128
 183 625 192 646 200 669 c 0
 203 678 206 684 210 688 c 128
 214 692 220 694 225 694 c 0
 231 694 237 692 243 686 c 128
 249 680 255 675 260 670 c 0
 267 665 269 665 276 660 c 128
 281 657 289 654 299 652 c 128
 309 650 324 649 344 649 c 2
 590 649 l 2
 614 649 633 650 647 652 c 128
 661 654 670 656 677 659 c 128
 684 662 689 664 691 665 c 0
 703 670 712 675 719 682 c 128
 726 689 735 693 742 693 c 0
 750 693 751 688 748 678 c 0
 747 675 746 672 745 668 c 128
 744 664 742 660 740 657 c 0
 729 637 719 616 709 595 c 128
 699 574 692 551 684 526 c 0
 681 515 678 508 674 502 c 128
 670 496 666 493 661 493 c 0
 655 493 651 496 649 502 c 128
 647 508 646 516 647 529 c 0
 647 556 643 578 634 592 c 128
 625 606 608 613 583 613 c 2
 539 613 l 2
 530 613 522 610 516 606 c 128
 510 602 503 593 498 580 c 128
 493 567 487 549 479 525 c 2
 347 99 l 2
 341 79 341 65 348 56 c 128
 355 47 369 39 390 32 c 0
 395 30 399 28 402 25 c 128
 405 22 407 18 405 12 c 0
 403 7 400 4 396 1 c 128
 392 -2 387 -3 382 -3 c 0
 369 -3 355 -3 338 -2 c 128
 321 -1 306 0 290 1 c 128
 274 2 262 2 250 2 c 256
 238 2 223 2 207 1 c 128
 191 0 175 -1 159 -2 c 128
 143 -3 129 -3 116 -3 c 0
EndSplineSet
EndChar

StartChar: U
Encoding: 85 85 20
Width: 600
GlyphClass: 2
Flags: W
LayerCount: 2
Fore
SplineSet
265 -14 m 0
 229 -14 198 -8 172 5 c 128
 146 18 125 36 110 60 c 128
 95 84 87 113 85 146 c 128
 83 179 89 215 101 255 c 2
 188 538 l 2
 194 557 195 574 193 589 c 128
 191 604 184 614 171 618 c 0
 157 623 150 631 153 640 c 0
 154 645 158 648 164 651 c 128
 170 654 175 655 181 655 c 0
 198 655 217 654 235 652 c 128
 253 650 271 650 288 650 c 0
 304 650 323 651 345 652 c 128
 367 653 385 654 401 654 c 0
 416 654 423 649 420 639 c 0
 418 632 411 626 402 623 c 128
 393 620 383 615 372 610 c 0
 362 606 351 598 341 585 c 128
 331 572 322 554 315 531 c 2
 222 237 l 2
 211 202 208 171 214 144 c 128
 220 117 230 97 247 82 c 128
 264 67 285 60 308 60 c 0
 339 60 366 69 392 88 c 128
 418 107 441 131 461 162 c 128
 481 193 496 226 507 262 c 0
 517 291 526 317 534 342 c 128
 542 367 547 389 553 408 c 128
 559 427 563 441 566 450 c 0
 576 489 582 520 584 542 c 128
 586 564 585 580 580 591 c 128
 575 602 568 610 560 615 c 0
 554 619 549 623 542 626 c 128
 535 629 532 633 534 639 c 0
 535 644 536 648 542 650 c 128
 548 652 554 653 562 653 c 0
 575 653 587 652 596 652 c 128
 605 652 613 652 621 652 c 128
 629 652 637 651 647 651 c 0
 658 651 666 651 673 652 c 128
 680 653 686 653 693 654 c 128
 700 655 710 655 721 655 c 0
 727 655 732 654 735 652 c 128
 738 650 739 646 737 640 c 0
 734 631 725 624 708 619 c 0
 695 615 683 610 674 603 c 128
 665 596 657 587 651 576 c 128
 645 565 638 549 631 529 c 0
 615 482 601 437 587 393 c 128
 573 349 559 303 543 256 c 0
 526 203 506 156 481 115 c 128
 456 74 426 43 391 20 c 128
 356 -3 314 -14 265 -14 c 0
EndSplineSet
EndChar

StartChar: V
Encoding: 86 86 21
Width: 600
GlyphClass: 2
Flags: W
LayerCount: 2
Fore
SplineSet
151 -17 m 0
 133 -17 124 -5 122 18 c 128
 120 41 122 72 131 111 c 0
 148 193 165 270 178 342 c 128
 191 414 204 484 213 553 c 0
 215 572 214 586 210 596 c 128
 206 606 198 612 184 616 c 0
 175 620 168 624 163 626 c 128
 158 628 156 632 156 639 c 0
 157 644 159 648 164 650 c 128
 169 652 175 654 184 654 c 0
 201 654 220 653 242 652 c 128
 264 651 281 650 298 650 c 0
 308 650 322 651 337 652 c 128
 352 653 367 654 382 654 c 128
 397 654 410 654 421 654 c 0
 425 654 430 652 434 650 c 128
 438 648 440 645 438 640 c 0
 436 634 433 629 427 626 c 128
 421 623 415 620 409 619 c 0
 389 614 375 608 367 600 c 128
 359 592 352 577 347 555 c 2
 268 170 l 2
 267 166 267 164 267 162 c 128
 267 160 267 159 269 159 c 0
 270 159 271 160 273 162 c 128
 275 164 277 167 280 171 c 2
 501 469 l 2
 527 503 544 530 551 550 c 128
 558 570 560 585 555 596 c 128
 550 607 543 614 532 619 c 0
 526 620 521 622 517 626 c 128
 513 630 512 635 514 640 c 0
 516 645 518 648 524 650 c 128
 530 652 535 654 541 654 c 0
 558 654 573 653 585 652 c 128
 597 651 611 651 628 651 c 0
 644 651 657 652 671 654 c 128
 685 656 699 657 715 657 c 0
 721 657 727 656 732 653 c 128
 737 650 740 646 739 641 c 0
 739 635 735 631 727 628 c 128
 719 625 714 622 707 620 c 0
 689 615 672 606 655 592 c 128
 638 578 621 561 606 541 c 2
 286 129 l 2
 276 115 264 100 251 84 c 128
 238 68 224 51 210 36 c 128
 196 21 184 8 174 -2 c 128
 164 -12 156 -17 151 -17 c 0
EndSplineSet
EndChar

StartChar: W
Encoding: 87 87 22
Width: 600
GlyphClass: 2
Flags: W
LayerCount: 2
Fore
SplineSet
101 -18 m 256
 94 -18 90 -12 89 2 c 128
 88 16 89 34 91 56 c 128
 93 78 97 99 102 122 c 0
 110 160 119 197 127 233 c 128
 135 269 142 304 150 340 c 128
 158 376 165 412 173 447 c 128
 181 482 188 518 195 554 c 0
 197 566 199 576 199 584 c 128
 199 592 198 597 196 602 c 128
 194 607 189 612 184 615 c 0
 179 619 174 622 171 624 c 128
 168 626 167 631 168 638 c 0
 169 643 172 647 175 650 c 128
 178 653 183 654 188 654 c 0
 199 654 212 653 225 652 c 128
 238 651 249 650 260 650 c 0
 267 650 277 651 288 652 c 128
 299 653 310 653 322 654 c 128
 334 655 344 655 351 655 c 0
 354 655 356 654 359 651 c 128
 362 648 362 645 361 640 c 0
 359 634 356 630 352 626 c 128
 348 622 343 619 339 618 c 0
 330 615 323 611 317 606 c 128
 311 601 305 596 302 588 c 128
 299 580 296 569 292 555 c 0
 279 498 265 440 250 380 c 128
 235 320 221 263 208 206 c 0
 207 199 206 195 207 194 c 128
 208 193 211 196 215 202 c 2
 376 478 l 2
 384 492 392 506 399 520 c 128
 406 534 411 549 413 564 c 256
 415 579 415 590 413 597 c 128
 411 604 407 610 400 615 c 0
 395 619 390 622 387 624 c 128
 384 626 382 631 383 638 c 0
 384 643 387 647 390 650 c 128
 393 653 398 654 404 654 c 0
 411 654 420 654 428 653 c 128
 436 652 445 652 453 651 c 128
 461 650 468 650 475 650 c 0
 482 650 492 651 503 652 c 128
 514 653 525 653 537 654 c 128
 549 655 559 655 567 655 c 0
 576 655 579 650 578 640 c 0
 577 634 574 630 570 626 c 128
 566 622 561 619 557 618 c 0
 544 613 533 607 526 599 c 128
 519 591 513 576 508 555 c 2
 423 204 l 2
 422 197 421 194 423 195 c 128
 425 196 427 199 430 205 c 2
 576 466 l 2
 595 501 609 528 616 549 c 128
 623 570 625 585 624 596 c 128
 623 607 619 614 614 618 c 0
 611 620 609 623 606 626 c 128
 603 629 603 634 605 640 c 0
 606 645 609 648 613 650 c 128
 617 652 621 654 625 654 c 0
 633 654 641 654 647 653 c 128
 653 652 660 652 666 652 c 128
 672 652 680 651 687 651 c 0
 698 651 707 652 716 654 c 128
 725 656 735 657 746 657 c 0
 750 657 754 656 757 653 c 128
 760 650 760 646 760 641 c 0
 759 634 757 629 751 626 c 128
 745 623 741 621 737 620 c 0
 725 615 712 606 698 591 c 128
 684 576 671 559 659 540 c 2
 417 141 l 2
 401 114 385 90 371 66 c 128
 357 42 346 23 336 8 c 128
 326 -7 319 -14 314 -14 c 0
 308 -14 303 -11 300 -6 c 128
 297 -1 295 6 295 16 c 128
 295 26 296 38 299 54 c 128
 302 70 306 89 311 111 c 0
 319 146 329 184 339 225 c 128
 349 266 359 307 369 348 c 128
 379 389 387 425 394 457 c 1
 208 139 l 2
 200 125 191 109 181 91 c 128
 171 73 162 56 152 39 c 128
 142 22 133 9 124 -2 c 128
 115 -13 108 -18 101 -18 c 256
EndSplineSet
EndChar

StartChar: X
Encoding: 88 88 23
Width: 600
GlyphClass: 2
Flags: W
LayerCount: 2
Fore
SplineSet
-7 -7 m 0
 -13 -7 -20 -6 -25 -4 c 128
 -30 -2 -33 3 -33 9 c 0
 -33 16 -30 20 -24 23 c 128
 -18 26 -13 28 -6 30 c 0
 3 33 13 36 23 42 c 128
 33 48 45 58 59 71 c 128
 73 84 89 103 108 128 c 2
 249 309 l 2
 257 320 262 331 265 340 c 128
 268 349 267 361 264 376 c 2
 229 550 l 2
 226 566 221 578 215 588 c 128
 209 598 201 605 193 610 c 128
 185 615 176 618 166 619 c 0
 160 620 155 622 151 625 c 128
 147 628 147 633 147 640 c 0
 148 645 149 648 153 650 c 128
 157 652 161 654 165 654 c 0
 190 654 215 653 236 651 c 128
 257 649 279 648 302 648 c 0
 321 648 339 649 357 651 c 128
 375 653 391 654 410 654 c 0
 415 654 420 652 425 650 c 128
 430 648 434 645 433 640 c 0
 432 635 429 630 424 626 c 128
 419 622 413 620 407 619 c 0
 389 614 376 607 369 596 c 128
 362 585 359 567 364 544 c 2
 394 395 l 2
 396 386 399 381 404 381 c 128
 409 381 413 385 418 392 c 2
 498 504 l 2
 517 530 529 551 535 567 c 128
 541 583 543 595 539 603 c 128
 535 611 527 616 516 618 c 0
 510 619 505 622 500 626 c 128
 495 630 492 634 492 640 c 0
 493 645 495 648 501 650 c 128
 507 652 511 653 517 653 c 0
 529 653 542 653 554 652 c 128
 566 651 577 650 590 650 c 0
 606 650 619 652 632 654 c 128
 645 656 660 657 676 657 c 0
 682 657 688 656 693 654 c 128
 698 652 701 647 701 641 c 0
 701 634 698 630 692 628 c 128
 686 626 681 623 675 621 c 0
 666 618 657 614 646 608 c 128
 635 602 625 594 615 586 c 128
 605 578 595 568 587 558 c 2
 430 360 l 2
 422 349 417 340 415 332 c 128
 413 324 412 312 415 298 c 2
 460 95 l 2
 463 84 466 74 472 66 c 128
 478 58 484 51 492 46 c 128
 500 41 509 37 518 34 c 0
 524 33 529 30 536 26 c 128
 543 22 545 16 545 9 c 0
 544 4 543 0 538 -2 c 128
 533 -4 528 -5 522 -5 c 0
 501 -5 484 -5 467 -4 c 128
 450 -3 435 -1 420 0 c 128
 405 1 388 1 371 1 c 0
 354 1 338 1 322 0 c 128
 306 -1 289 -2 273 -2 c 0
 268 -2 264 -1 259 2 c 128
 254 5 250 8 251 13 c 0
 252 18 255 22 261 26 c 128
 267 30 273 33 278 34 c 0
 297 39 309 47 317 56 c 128
 325 65 327 79 324 97 c 2
 289 281 l 2
 287 289 285 294 280 294 c 128
 275 294 271 291 266 284 c 2
 163 133 l 2
 147 110 138 92 136 78 c 128
 134 64 136 54 143 47 c 128
 150 40 158 35 170 32 c 0
 176 30 181 27 186 24 c 128
 191 21 193 16 193 10 c 0
 193 6 190 2 185 0 c 128
 180 -2 174 -3 168 -3 c 0
 152 -3 138 -3 127 -2 c 128
 116 -1 103 0 87 0 c 0
 70 0 55 -2 40 -4 c 128
 25 -6 10 -7 -7 -7 c 0
EndSplineSet
EndChar

StartChar: Y
Encoding: 89 89 24
Width: 600
GlyphClass: 2
Flags: W
LayerCount: 2
Fore
SplineSet
110 -6 m 0
 102 -6 96 -5 93 -2 c 128
 90 1 88 5 89 10 c 0
 91 16 95 21 101 24 c 128
 107 27 116 30 124 31 c 0
 149 36 167 45 180 58 c 128
 193 71 203 89 209 110 c 2
 252 250 l 2
 258 269 262 285 262 300 c 128
 262 315 260 332 256 351 c 2
 205 553 l 2
 202 568 196 581 189 592 c 128
 182 603 174 610 162 614 c 0
 151 618 143 622 139 625 c 128
 135 628 134 633 135 640 c 0
 137 645 140 648 145 650 c 128
 150 652 154 654 159 654 c 0
 185 654 210 653 231 651 c 128
 252 649 276 648 302 648 c 0
 319 648 336 649 355 651 c 128
 374 653 391 654 411 654 c 0
 417 654 423 652 427 650 c 128
 431 648 434 645 432 640 c 0
 431 635 427 630 420 626 c 128
 413 622 406 620 400 619 c 0
 372 612 353 604 346 594 c 128
 339 584 336 567 340 546 c 2
 375 364 l 2
 377 353 379 346 381 343 c 128
 383 340 386 338 388 338 c 256
 390 338 393 340 397 343 c 128
 401 346 405 351 410 358 c 0
 431 385 453 414 475 444 c 128
 497 474 520 504 542 533 c 0
 560 556 569 574 569 589 c 128
 569 604 554 613 530 618 c 0
 523 619 520 622 515 626 c 128
 510 630 507 634 509 640 c 0
 511 645 514 648 521 650 c 128
 528 652 534 653 540 653 c 0
 554 653 568 652 582 651 c 128
 596 650 610 649 627 649 c 0
 645 649 663 650 679 652 c 128
 695 654 710 656 727 656 c 0
 734 656 741 655 745 653 c 128
 749 651 751 647 749 640 c 0
 747 634 744 630 738 628 c 128
 732 626 726 623 719 621 c 0
 706 617 693 612 680 605 c 128
 667 598 655 591 643 582 c 128
 631 573 622 564 614 555 c 0
 596 532 577 510 558 488 c 128
 539 466 521 443 502 421 c 128
 483 399 467 378 448 357 c 0
 436 344 426 329 418 313 c 128
 410 297 403 279 396 258 c 2
 351 110 l 2
 343 85 341 68 347 58 c 128
 353 48 366 38 388 31 c 0
 395 29 400 27 404 24 c 128
 408 21 410 17 408 11 c 0
 407 6 405 3 399 0 c 128
 393 -3 386 -5 379 -5 c 0
 366 -5 352 -4 335 -3 c 128
 318 -2 303 -1 287 0 c 128
 271 1 258 2 246 2 c 0
 233 2 218 1 203 0 c 128
 188 -1 172 -2 155 -4 c 128
 138 -6 123 -6 110 -6 c 0
EndSplineSet
EndChar

StartChar: Z
Encoding: 90 90 25
Width: 600
GlyphClass: 2
Flags: W
LayerCount: 2
Fore
SplineSet
471 -4 m 0
 465 -4 453 -4 436 -4 c 128
 419 -4 397 -3 371 -2 c 128
 345 -1 317 -1 287 0 c 128
 257 1 226 1 194 1 c 0
 162 1 133 1 107 0 c 128
 81 -1 56 -2 35 -3 c 128
 14 -4 -7 -5 -26 -6 c 0
 -31 -7 -34 -3 -33 6 c 128
 -32 15 -31 20 -29 22 c 0
 -21 32 -13 43 -5 54 c 128
 3 65 13 76 22 87 c 128
 31 98 40 109 49 119 c 0
 83 158 117 196 150 236 c 128
 183 276 216 316 249 356 c 128
 282 396 316 435 349 475 c 128
 382 515 417 555 452 595 c 0
 456 600 458 604 458 608 c 128
 458 612 454 615 445 615 c 0
 439 616 430 616 419 616 c 128
 408 616 395 615 382 614 c 128
 369 613 357 612 345 611 c 128
 333 610 325 610 318 609 c 0
 294 606 270 597 247 584 c 128
 224 571 202 551 180 522 c 0
 174 513 168 506 162 499 c 128
 156 492 147 489 138 489 c 0
 133 489 131 490 130 494 c 128
 129 498 129 502 130 507 c 0
 131 511 132 515 134 520 c 128
 136 525 136 529 139 534 c 0
 149 554 159 573 166 590 c 128
 173 607 178 623 185 638 c 0
 189 649 193 656 197 660 c 128
 201 664 208 667 215 667 c 0
 233 667 254 664 277 658 c 128
 300 652 326 650 354 649 c 0
 383 649 382 649 407 649 c 128
 432 649 432 649 459 649 c 0
 478 649 500 649 523 650 c 128
 546 651 570 652 592 653 c 128
 614 654 633 654 648 654 c 0
 653 654 657 651 659 644 c 128
 661 637 662 632 659 629 c 2
 567 522 l 2
 536 487 504 450 472 412 c 128
 440 374 408 336 376 298 c 128
 328 240 327 240 279 182 c 128
 247 144 215 106 184 69 c 0
 170 52 172 43 190 42 c 0
 206 42 206 42 239 42 c 128
 261 42 282 42 302 43 c 0
 320 43 337 44 354 46 c 128
 371 48 387 50 402 54 c 128
 417 58 430 63 442 69 c 0
 462 78 480 89 498 104 c 128
 516 119 533 138 548 161 c 0
 552 166 555 169 559 171 c 128
 563 173 565 174 569 174 c 256
 573 174 576 173 578 170 c 128
 580 167 580 163 579 158 c 0
 577 150 572 140 566 128 c 128
 560 116 553 104 546 91 c 128
 539 78 531 65 524 52 c 128
 517 39 509 26 503 15 c 0
 499 9 494 4 489 1 c 128
 484 -2 478 -4 471 -4 c 0
EndSplineSet
EndChar

StartChar: a
Encoding: 97 97 26
Width: 600
GlyphClass: 2
Flags: W
LayerCount: 2
Fore
SplineSet
68 -14 m 0
 59 -14 50 -11 40 -6 c 128
 30 -1 22 6 16 14 c 128
 10 22 6 30 6 37 c 0
 6 57 12 80 24 104 c 128
 36 128 56 157 83 192 c 128
 110 227 147 271 194 323 c 0
 223 354 251 380 276 399 c 128
 301 418 320 428 332 428 c 0
 350 428 370 419 391 402 c 0
 396 397 398 394 399 394 c 128
 400 394 400 393 401 393 c 0
 402 393 404 394 404 394 c 128
 404 394 405 396 407 400 c 0
 412 409 415 416 417 420 c 128
 419 424 421 429 422 432 c 0
 426 439 434 443 447 443 c 0
 457 443 468 441 480 436 c 128
 492 431 501 426 509 419 c 128
 517 412 521 406 521 400 c 0
 521 396 520 393 519 390 c 2
 419 118 l 2
 413 101 417 92 430 92 c 0
 437 92 449 98 465 110 c 128
 481 122 497 135 513 152 c 0
 515 154 516 154 516 154 c 128
 516 154 517 155 518 155 c 0
 521 155 524 153 526 150 c 128
 528 147 529 144 529 139 c 0
 529 130 522 116 510 100 c 128
 498 84 482 68 462 51 c 0
 438 31 414 16 391 4 c 128
 368 -8 348 -14 332 -14 c 0
 322 -14 312 -12 302 -6 c 128
 292 0 283 8 276 16 c 128
 269 24 266 32 266 41 c 0
 266 45 268 53 271 64 c 0
 272 67 273 72 276 79 c 128
 279 86 282 92 285 100 c 128
 288 108 292 116 296 124 c 128
 300 132 302 140 305 147 c 0
 307 151 306 154 304 156 c 128
 302 158 300 157 298 155 c 0
 264 116 234 83 206 58 c 128
 178 33 152 16 130 4 c 128
 108 -8 87 -14 68 -14 c 0
173 92 m 0
 184 92 202 103 227 124 c 128
 252 145 277 171 302 203 c 0
 324 229 342 252 354 272 c 128
 366 292 372 307 372 316 c 0
 372 322 365 331 352 342 c 0
 345 347 339 350 332 354 c 128
 325 358 320 360 315 360 c 0
 305 360 291 354 273 342 c 128
 255 330 238 316 222 300 c 0
 208 287 195 270 183 250 c 128
 171 230 161 208 154 186 c 128
 147 164 143 145 143 127 c 0
 143 116 146 108 151 102 c 128
 156 96 164 92 173 92 c 0
EndSplineSet
EndChar

StartChar: b
Encoding: 98 98 27
Width: 600
GlyphClass: 2
Flags: W
LayerCount: 2
Fore
SplineSet
218 -13 m 0
 180 -13 151 -3 130 16 c 128
 109 35 99 61 99 95 c 0
 99 108 101 123 104 138 c 128
 107 153 111 170 117 189 c 2
 227 539 l 2
 232 556 234 568 236 576 c 128
 238 584 239 591 239 599 c 0
 239 606 237 612 232 616 c 128
 227 620 218 624 205 628 c 0
 190 633 183 639 183 644 c 0
 183 649 184 652 188 655 c 128
 192 658 199 661 210 665 c 0
 223 669 237 673 254 678 c 128
 271 683 287 688 304 692 c 128
 321 696 336 700 348 703 c 128
 360 706 369 707 373 707 c 0
 390 707 399 703 399 694 c 256
 399 685 398 678 396 672 c 128
 394 666 392 660 389 653 c 0
 382 637 375 620 368 602 c 128
 361 584 352 564 344 542 c 128
 336 520 327 494 318 467 c 128
 309 440 299 409 288 376 c 128
 277 343 265 305 252 263 c 0
 251 258 251 255 252 254 c 128
 253 253 256 255 259 260 c 0
 298 315 336 358 375 388 c 128
 414 418 448 433 478 433 c 0
 503 433 523 425 540 408 c 128
 557 391 565 372 565 349 c 0
 565 316 558 283 544 249 c 128
 530 215 512 182 489 151 c 128
 466 120 439 92 409 67 c 128
 379 42 348 22 315 8 c 128
 282 -6 250 -13 218 -13 c 0
248 26 m 0
 257 26 267 30 279 38 c 128
 291 46 303 58 316 72 c 128
 329 86 341 102 352 118 c 0
 367 141 381 166 394 193 c 128
 407 220 418 245 426 269 c 128
 434 293 438 312 438 325 c 0
 438 334 435 340 430 346 c 128
 425 352 419 355 411 355 c 0
 397 355 379 346 356 328 c 128
 333 310 309 282 282 245 c 0
 258 212 240 181 226 153 c 128
 212 125 205 104 205 89 c 0
 205 75 209 61 218 47 c 128
 227 33 237 26 248 26 c 0
EndSplineSet
EndChar

StartChar: c
Encoding: 99 99 28
Width: 600
GlyphClass: 2
Flags: W
LayerCount: 2
Fore
SplineSet
263 -14 m 0
 236 -14 211 -8 188 4 c 0
 165 16 145 33 130 54 c 0
 115 75 106 96 106 122 c 0
 106 154 109 185 118 216 c 0
 127 247 141 275 158 302 c 0
 175 329 197 350 222 370 c 0
 247 390 275 405 306 416 c 0
 337 427 370 433 408 433 c 0
 437 433 468 427 484 416 c 0
 500 405 508 391 508 373 c 0
 508 360 504 348 496 336 c 0
 488 324 477 317 467 317 c 0
 462 317 458 319 454 323 c 0
 450 327 443 335 437 347 c 0
 430 359 422 370 414 378 c 0
 406 386 379 390 369 390 c 0
 352 390 329 383 312 371 c 0
 295 359 279 341 266 320 c 0
 253 299 242 276 236 251 c 0
 230 226 228 200 230 174 c 0
 231 149 241 130 258 116 c 0
 275 102 299 96 324 96 c 0
 346 96 380 101 396 109 c 0
 412 117 424 128 436 142 c 0
 439 146 443 149 446 151 c 0
 449 153 452 154 455 154 c 0
 461 154 465 151 465 143 c 0
 465 127 460 111 450 92 c 0
 440 73 424 56 407 40 c 0
 390 24 368 11 348 1 c 0
 328 -9 288 -14 263 -14 c 0
EndSplineSet
EndChar

StartChar: d
Encoding: 100 100 29
Width: 600
GlyphClass: 2
Flags: W
LayerCount: 2
Fore
SplineSet
96 -14 m 0
 73 -14 55 -6 40 10 c 128
 25 26 17 46 17 70 c 0
 17 95 22 121 32 150 c 128
 42 179 55 208 72 239 c 128
 89 270 110 299 134 328 c 0
 163 362 192 388 220 406 c 128
 248 424 274 434 299 434 c 0
 315 434 330 430 344 422 c 128
 358 414 370 407 383 398 c 0
 388 395 392 393 394 392 c 128
 396 391 398 391 400 391 c 0
 403 391 405 394 407 400 c 2
 454 550 l 2
 459 566 463 577 465 584 c 128
 467 591 468 596 468 598 c 128
 468 600 468 600 468 600 c 128
 468 600 468 602 468 605 c 0
 468 612 465 618 458 624 c 128
 451 630 441 635 428 640 c 0
 419 643 413 646 410 648 c 128
 407 650 406 652 406 655 c 0
 406 660 408 663 412 666 c 128
 416 669 424 673 436 677 c 0
 444 679 456 682 472 686 c 128
 488 690 504 693 522 696 c 128
 540 699 556 702 570 704 c 128
 584 706 594 707 599 707 c 0
 616 707 624 702 624 693 c 0
 624 687 623 681 622 676 c 128
 621 671 619 663 615 653 c 2
 434 116 l 2
 433 113 433 110 432 108 c 128
 431 106 431 103 431 101 c 0
 431 94 433 91 438 91 c 256
 443 91 450 94 460 100 c 128
 470 106 482 114 494 124 c 128
 506 134 516 144 526 154 c 0
 528 156 529 158 529 158 c 128
 529 158 530 158 531 158 c 0
 540 158 544 153 543 143 c 0
 543 133 538 122 529 108 c 128
 520 94 507 80 492 66 c 128
 477 52 461 38 443 26 c 128
 425 14 408 4 391 -3 c 128
 374 -10 360 -14 347 -14 c 0
 337 -14 326 -12 316 -6 c 128
 306 0 297 7 290 16 c 128
 283 25 280 33 280 42 c 0
 280 45 282 53 285 65 c 0
 288 72 292 81 296 92 c 128
 300 103 305 113 310 122 c 128
 315 131 318 138 321 143 c 128
 324 148 324 147 322 142 c 1
 324 147 324 150 321 151 c 128
 318 152 316 151 313 146 c 0
 268 91 227 50 192 24 c 128
 157 -2 125 -14 96 -14 c 0
182 84 m 0
 195 84 211 89 228 100 c 128
 245 111 261 126 278 144 c 128
 295 162 310 182 324 204 c 128
 338 226 350 248 359 270 c 128
 368 292 372 312 372 329 c 0
 372 347 368 361 361 370 c 128
 354 379 343 384 329 384 c 0
 317 384 304 378 288 365 c 128
 272 352 256 336 240 316 c 128
 224 296 210 274 196 250 c 128
 182 226 171 204 163 180 c 128
 155 156 151 135 151 117 c 0
 151 106 154 98 159 92 c 128
 164 86 172 84 182 84 c 0
EndSplineSet
EndChar

StartChar: e
Encoding: 101 101 30
Width: 600
GlyphClass: 2
Flags: W
LayerCount: 2
Fore
SplineSet
248 -15 m 0
 227 -15 205 -9 182 2 c 0
 159 13 139 28 122 46 c 0
 105 64 97 85 96 107 c 0
 94 148 100 189 116 228 c 0
 132 267 154 301 182 332 c 0
 210 363 241 387 279 405 c 0
 317 423 355 433 395 433 c 0
 437 433 470 427 490 412 c 0
 510 397 521 379 522 359 c 0
 523 336 515 316 498 300 c 0
 481 284 461 271 434 260 c 0
 407 249 376 238 344 231 c 0
 312 224 282 217 252 212 c 0
 248 211 243 209 242 208 c 0
 241 207 227 205 226 202 c 0
 224 197 223 191 222 186 c 0
 221 181 222 175 223 170 c 0
 224 147 234 127 251 109 c 0
 268 91 297 83 325 83 c 0
 348 83 368 88 386 98 c 0
 404 108 422 120 438 136 c 0
 447 143 452 147 457 147 c 0
 465 147 470 144 470 137 c 0
 470 135 470 132 470 130 c 0
 470 127 468 125 467 123 c 0
 454 99 436 76 415 55 c 0
 394 34 370 17 342 4 c 0
 314 -9 283 -15 248 -15 c 0
259 247 m 0
 273 251 292 255 311 260 c 0
 330 265 350 274 366 283 c 0
 382 292 397 303 408 316 c 0
 419 329 425 345 424 364 c 0
 423 372 420 380 413 387 c 0
 406 394 391 397 379 397 c 0
 364 397 347 394 332 385 c 0
 317 376 302 365 288 352 c 0
 274 339 262 323 253 306 c 0
 244 289 240 271 238 253 c 0
 237 248 252 246 259 247 c 0
EndSplineSet
EndChar

StartChar: f
Encoding: 102 102 31
Width: 600
GlyphClass: 1
Flags: W
LayerCount: 2
Fore
SplineSet
41 -291 m 0
 -6 -291 -39 -283 -60 -267 c 128
 -81 -251 -92 -234 -92 -215 c 0
 -92 -198 -86 -185 -75 -174 c 128
 -64 -163 -52 -158 -40 -158 c 0
 -34 -158 -28 -162 -20 -172 c 128
 -12 -182 -5 -192 2 -201 c 0
 9 -211 16 -221 24 -230 c 128
 32 -239 42 -243 54 -243 c 0
 64 -243 72 -238 80 -230 c 128
 88 -222 95 -210 102 -194 c 128
 109 -178 116 -160 122 -138 c 2
 258 346 l 2
 261 358 256 364 244 364 c 2
 184 363 l 2
 177 363 173 364 170 367 c 128
 167 370 166 374 166 380 c 0
 166 385 169 392 175 401 c 128
 181 410 189 414 200 415 c 2
 263 418 l 2
 268 418 272 423 275 432 c 2
 283 457 l 2
 302 518 326 566 356 602 c 128
 386 638 418 666 452 682 c 128
 486 698 518 706 548 706 c 256
 578 706 603 699 624 685 c 128
 645 671 655 653 655 631 c 0
 655 614 651 598 642 583 c 128
 633 568 622 561 609 561 c 0
 598 561 589 567 584 578 c 128
 579 589 574 601 569 614 c 256
 564 627 557 640 550 650 c 128
 543 660 532 665 519 665 c 0
 506 665 495 658 484 646 c 128
 473 634 464 618 455 598 c 128
 446 578 438 554 430 528 c 0
 426 514 423 501 420 488 c 128
 417 475 414 463 411 452 c 0
 410 449 410 445 410 442 c 128
 410 439 409 436 408 433 c 0
 407 427 409 423 412 421 c 128
 415 419 419 418 424 418 c 0
 442 418 459 419 474 420 c 128
 489 421 505 421 522 421 c 0
 529 421 532 416 532 407 c 0
 532 404 530 398 527 392 c 128
 524 386 520 381 516 376 c 128
 512 371 508 368 505 368 c 2
 424 365 l 2
 413 364 404 362 398 359 c 128
 392 356 389 350 386 341 c 0
 366 270 345 197 324 122 c 128
 303 47 283 -26 263 -99 c 0
 257 -122 245 -144 228 -166 c 128
 211 -188 191 -209 168 -228 c 128
 145 -247 122 -263 100 -274 c 128
 78 -285 58 -291 41 -291 c 0
EndSplineSet
EndChar

StartChar: g
Encoding: 103 103 32
Width: 600
GlyphClass: 2
Flags: W
LayerCount: 2
Fore
SplineSet
188 -290 m 0
 147 -290 110 -285 76 -276 c 128
 42 -267 15 -256 -5 -240 c 128
 -25 -224 -35 -206 -35 -186 c 0
 -35 -167 -26 -151 -9 -136 c 128
 8 -121 31 -107 60 -95 c 128
 89 -83 121 -72 156 -63 c 0
 164 -60 165 -57 158 -54 c 0
 145 -46 132 -36 121 -24 c 128
 110 -12 104 2 104 15 c 0
 104 30 112 42 128 54 c 128
 144 66 162 78 185 90 c 0
 189 93 192 96 194 98 c 128
 196 100 198 102 198 103 c 0
 198 106 195 108 188 111 c 0
 176 117 164 125 152 135 c 128
 140 145 130 158 122 172 c 128
 114 186 111 202 111 219 c 0
 111 240 116 264 126 288 c 128
 136 312 150 336 169 358 c 128
 188 380 211 398 239 412 c 128
 267 426 299 433 336 433 c 0
 349 433 361 432 372 428 c 128
 383 424 394 420 403 416 c 0
 414 411 423 408 432 404 c 128
 441 400 448 398 453 398 c 0
 464 398 475 399 486 402 c 128
 497 405 508 407 518 410 c 128
 528 413 538 414 547 414 c 0
 552 414 558 412 564 408 c 128
 570 404 573 398 573 387 c 0
 573 375 571 365 566 357 c 128
 561 349 554 345 546 345 c 0
 540 345 534 346 526 347 c 128
 518 348 510 349 502 350 c 128
 494 351 485 352 478 352 c 0
 475 352 472 351 469 350 c 128
 466 349 466 346 467 341 c 0
 468 336 470 332 470 328 c 128
 470 324 470 319 470 314 c 0
 470 287 465 260 454 234 c 128
 443 208 429 185 410 164 c 128
 391 143 368 126 342 113 c 128
 316 100 289 94 258 94 c 0
 252 94 246 94 240 94 c 128
 234 94 228 94 225 93 c 0
 218 88 215 83 215 76 c 0
 215 69 219 62 226 54 c 128
 233 46 242 38 254 29 c 0
 267 21 281 12 298 2 c 128
 315 -8 331 -19 348 -30 c 128
 365 -41 382 -51 397 -61 c 0
 413 -72 425 -84 434 -96 c 128
 443 -108 447 -121 447 -134 c 0
 447 -154 439 -174 424 -192 c 128
 409 -210 389 -226 364 -241 c 128
 339 -256 312 -267 282 -276 c 128
 252 -285 220 -290 188 -290 c 0
231 -254 m 0
 248 -254 265 -252 281 -246 c 128
 297 -240 310 -232 320 -222 c 128
 330 -212 335 -201 335 -189 c 0
 335 -182 333 -174 328 -166 c 128
 323 -158 316 -150 307 -145 c 0
 293 -136 276 -126 257 -114 c 128
 238 -102 222 -93 210 -87 c 0
 205 -84 200 -83 195 -83 c 0
 191 -83 187 -83 184 -84 c 128
 181 -85 178 -86 175 -87 c 0
 143 -96 118 -107 102 -120 c 128
 86 -133 78 -151 78 -174 c 0
 78 -188 83 -202 94 -214 c 128
 105 -226 122 -236 145 -243 c 128
 168 -250 196 -254 231 -254 c 0
241 134 m 0
 252 133 264 137 277 148 c 128
 290 159 302 173 313 191 c 128
 324 209 335 229 344 250 c 128
 353 271 360 290 366 310 c 128
 372 330 375 347 375 360 c 0
 375 373 373 383 368 390 c 128
 363 397 356 401 348 401 c 0
 337 401 326 395 314 384 c 128
 302 373 291 360 280 342 c 128
 269 324 258 304 249 284 c 128
 240 264 232 245 226 226 c 128
 220 207 218 190 218 177 c 0
 218 162 220 152 224 145 c 128
 228 138 234 135 241 134 c 0
EndSplineSet
EndChar

StartChar: h
Encoding: 104 104 33
Width: 600
GlyphClass: 2
Flags: W
LayerCount: 2
Fore
SplineSet
118 -15 m 0
 112 -15 104 -13 96 -9 c 128
 88 -5 81 1 74 8 c 128
 67 15 64 24 64 33 c 0
 64 44 66 55 68 66 c 128
 70 77 73 90 78 105 c 2
 212 539 l 2
 215 549 218 559 220 569 c 128
 222 579 223 588 223 596 c 0
 223 605 218 612 210 617 c 128
 202 622 193 626 184 629 c 0
 179 630 175 632 171 634 c 128
 167 636 165 640 165 644 c 0
 165 647 167 651 170 654 c 128
 173 657 180 660 191 665 c 0
 199 667 210 670 226 675 c 128
 242 680 259 685 276 690 c 128
 293 695 310 699 324 702 c 128
 338 705 348 707 353 707 c 256
 358 707 364 707 370 706 c 128
 376 705 379 701 379 694 c 0
 379 686 378 679 376 673 c 128
 374 667 372 661 370 654 c 2
 226 215 l 2
 225 210 225 208 228 208 c 128
 234 208 240 209 242 213 c 0
 266 255 290 293 313 326 c 128
 336 359 361 385 386 404 c 128
 411 423 437 433 465 433 c 0
 491 433 510 426 522 411 c 128
 534 396 539 379 540 358 c 128
 541 337 537 316 528 297 c 2
 453 120 l 2
 444 99 446 89 457 89 c 0
 461 89 467 91 474 95 c 128
 481 99 489 104 497 110 c 128
 505 116 513 120 520 126 c 128
 527 132 532 137 535 140 c 256
 538 143 542 147 546 150 c 128
 550 153 552 155 554 155 c 256
 556 155 558 154 560 152 c 128
 562 150 564 146 564 143 c 0
 564 130 560 118 551 107 c 0
 531 84 508 62 484 44 c 128
 460 26 435 12 409 2 c 128
 383 -8 358 -14 335 -14 c 0
 326 -14 317 -12 308 -6 c 128
 299 0 292 7 288 15 c 128
 284 23 284 31 287 40 c 0
 309 89 332 136 355 184 c 128
 378 232 399 281 418 331 c 0
 423 343 424 352 423 358 c 128
 422 364 417 368 410 368 c 0
 401 368 392 363 382 352 c 128
 372 341 360 328 349 312 c 128
 338 296 326 279 314 262 c 0
 308 254 300 241 289 224 c 128
 278 207 267 189 254 168 c 128
 241 147 228 127 216 106 c 128
 204 85 193 66 184 50 c 0
 173 32 163 16 152 4 c 128
 141 -8 130 -15 118 -15 c 0
EndSplineSet
Substitution2: "'ss01' Original glyphs-1" h.ss01
EndChar

StartChar: j
Encoding: 106 106 35
Width: 600
GlyphClass: 2
Flags: W
LayerCount: 2
Fore
SplineSet
15 -290 m 0
 -20 -290 -44 -284 -58 -273 c 0
 -72 -262 -80 -249 -80 -236 c 0
 -79 -224 -74 -214 -68 -206 c 0
 -62 -198 -56 -190 -48 -185 c 0
 -40 -180 -33 -177 -27 -177 c 0
 -17 -177 -8 -181 -1 -188 c 0
 6 -195 13 -203 19 -211 c 0
 25 -218 32 -224 38 -229 c 0
 44 -234 52 -237 62 -237 c 0
 79 -237 94 -226 107 -203 c 0
 120 -180 133 -151 145 -116 c 2
 269 267 l 2
 274 285 276 296 274 302 c 0
 272 308 268 311 262 311 c 0
 254 311 246 309 238 306 c 0
 230 303 220 299 210 294 c 0
 203 291 197 291 192 292 c 0
 187 293 185 297 185 302 c 256
 185 307 186 312 190 315 c 0
 194 318 199 322 205 327 c 0
 220 339 236 351 256 362 c 0
 276 373 296 382 316 391 c 0
 336 400 355 407 372 414 c 0
 389 421 401 427 410 431 c 0
 419 435 428 432 438 424 c 0
 448 416 451 408 448 399 c 0
 444 387 438 371 429 351 c 0
 420 331 412 309 404 286 c 2
 290 -62 l 2
 279 -94 263 -124 240 -151 c 0
 217 -178 190 -203 162 -224 c 0
 134 -245 106 -260 80 -272 c 0
 54 -284 32 -290 15 -290 c 0
407 506 m 0
 392 506 380 512 370 524 c 0
 360 536 355 548 355 563 c 0
 355 586 363 606 379 623 c 0
 395 640 415 649 439 649 c 0
 455 649 467 643 476 630 c 0
 485 617 489 603 489 588 c 0
 489 567 481 549 465 532 c 0
 449 515 430 506 407 506 c 0
EndSplineSet
EndChar

StartChar: k
Encoding: 107 107 36
Width: 600
GlyphClass: 2
Flags: W
LayerCount: 2
Fore
SplineSet
365 -15 m 0
 352 -15 340 -10 330 -2 c 128
 320 6 312 18 307 35 c 2
 264 160 l 2
 261 169 258 176 254 180 c 128
 250 184 246 187 241 187 c 256
 236 187 232 184 230 180 c 128
 228 176 225 170 222 161 c 0
 218 152 214 142 210 130 c 128
 206 118 201 106 196 94 c 128
 191 82 186 71 182 60 c 128
 178 49 173 39 169 28 c 0
 165 19 157 11 146 4 c 128
 135 -3 123 -7 108 -7 c 0
 98 -7 86 -3 74 6 c 128
 62 15 56 28 56 45 c 0
 56 52 56 58 58 65 c 128
 60 72 62 78 64 84 c 2
 211 536 l 2
 214 547 217 556 220 566 c 128
 223 576 224 586 224 596 c 0
 224 611 216 621 200 628 c 0
 195 630 190 632 186 634 c 128
 182 636 179 640 179 643 c 0
 179 647 180 650 183 653 c 128
 186 656 192 659 203 663 c 0
 211 666 223 670 238 675 c 128
 253 680 269 685 286 690 c 128
 303 695 318 699 332 702 c 128
 346 705 356 707 362 707 c 0
 367 707 372 707 378 706 c 128
 384 705 387 701 387 694 c 0
 387 685 386 678 384 672 c 128
 382 666 381 661 379 654 c 2
 255 300 l 2
 253 295 254 292 258 292 c 128
 262 292 264 294 267 297 c 0
 284 322 304 344 326 365 c 128
 348 386 372 402 397 414 c 128
 422 426 449 433 476 433 c 0
 496 433 512 429 525 420 c 128
 538 411 544 397 544 379 c 0
 544 363 538 347 528 331 c 128
 518 315 505 300 489 285 c 128
 473 270 456 257 436 245 c 128
 416 233 396 223 376 215 c 0
 369 213 368 207 372 198 c 2
 410 113 l 2
 413 108 416 102 420 96 c 128
 424 90 430 87 437 87 c 0
 447 87 460 93 474 104 c 128
 488 115 500 127 509 140 c 0
 512 144 515 147 516 149 c 128
 517 151 519 152 522 152 c 0
 525 152 527 151 528 148 c 128
 529 145 530 142 530 139 c 0
 530 124 525 108 514 90 c 128
 503 72 488 55 471 39 c 128
 454 23 435 10 416 0 c 128
 397 -10 380 -15 365 -15 c 0
272 211 m 0
 289 211 307 215 325 224 c 128
 343 233 360 243 376 256 c 128
 392 269 404 282 413 296 c 128
 422 310 427 322 427 333 c 0
 427 342 424 348 418 352 c 128
 412 356 404 358 394 358 c 0
 382 358 369 352 354 341 c 128
 339 330 324 316 310 300 c 128
 296 284 285 270 276 255 c 128
 267 240 262 230 262 224 c 0
 262 221 263 219 265 216 c 128
 267 213 269 211 272 211 c 0
EndSplineSet
EndChar

StartChar: l
Encoding: 108 108 37
Width: 600
GlyphClass: 2
Flags: W
LayerCount: 2
Fore
SplineSet
214 -14 m 0
 199 -14 185 -8 174 4 c 128
 163 16 157 29 157 41 c 0
 157 46 159 54 162 63 c 2
 331 562 l 2
 339 585 342 600 339 610 c 128
 336 620 329 626 318 629 c 0
 309 632 304 635 301 638 c 128
 298 641 296 645 295 649 c 0
 295 653 296 656 297 659 c 128
 298 662 302 664 309 666 c 0
 324 671 341 675 358 678 c 128
 375 681 392 685 408 688 c 128
 424 691 437 695 447 698 c 0
 450 699 455 701 461 702 c 128
 467 703 472 705 478 706 c 128
 484 707 488 707 490 707 c 0
 494 707 498 705 500 700 c 128
 502 695 502 690 501 687 c 0
 500 682 499 676 496 668 c 128
 493 660 491 652 488 643 c 2
 306 120 l 2
 305 117 304 114 304 112 c 128
 304 110 303 108 303 106 c 0
 303 97 307 93 315 93 c 0
 321 93 328 96 338 103 c 128
 348 110 358 118 369 128 c 128
 380 138 389 148 398 157 c 0
 400 159 400 159 402 161 c 128
 403 162 405 163 406 163 c 0
 411 163 414 161 415 157 c 128
 416 153 417 150 417 147 c 0
 417 136 412 124 403 110 c 128
 394 96 382 83 366 68 c 128
 350 53 332 40 314 28 c 128
 296 16 278 6 260 -2 c 128
 242 -10 227 -14 214 -14 c 0
EndSplineSet
EndChar

StartChar: m
Encoding: 109 109 38
Width: 600
GlyphClass: 2
Flags: W
LayerCount: 2
Fore
SplineSet
74 -14 m 0
 69 -14 63 -12 56 -7 c 128
 49 -2 43 5 38 14 c 128
 33 23 32 35 33 48 c 0
 34 51 35 54 36 58 c 128
 37 62 37 66 38 69 c 2
 139 325 l 2
 142 332 142 336 141 340 c 128
 140 344 138 346 133 346 c 0
 129 346 121 344 110 340 c 128
 99 336 87 326 73 310 c 0
 71 307 68 306 64 306 c 128
 60 306 58 309 59 315 c 0
 59 320 61 328 65 336 c 128
 69 344 75 352 81 361 c 128
 87 370 92 376 96 380 c 0
 110 395 124 409 139 420 c 128
 154 431 173 437 197 437 c 0
 209 437 219 432 225 422 c 128
 231 412 234 400 234 385 c 128
 234 370 230 354 224 338 c 2
 171 210 l 2
 169 205 169 203 172 202 c 128
 175 201 177 203 179 208 c 0
 200 249 220 286 240 321 c 128
 260 356 279 384 299 405 c 128
 319 426 338 437 359 437 c 0
 380 437 394 429 401 412 c 128
 408 395 410 373 407 348 c 128
 404 323 396 299 384 276 c 2
 376 259 l 2
 374 254 375 252 378 251 c 128
 381 250 385 252 387 257 c 0
 403 287 420 316 437 343 c 128
 454 370 473 392 491 410 c 128
 509 428 529 437 550 437 c 0
 571 437 584 428 590 412 c 128
 596 396 596 376 592 351 c 128
 588 326 580 301 569 276 c 2
 509 127 l 2
 502 108 502 98 509 98 c 0
 512 98 515 100 520 103 c 128
 525 106 530 111 536 116 c 128
 542 121 547 127 552 132 c 128
 557 137 562 142 565 145 c 0
 568 149 571 153 575 157 c 128
 579 161 581 163 583 163 c 0
 584 163 586 162 587 159 c 128
 588 156 589 153 589 150 c 0
 588 143 587 136 584 129 c 128
 581 122 578 116 573 110 c 0
 548 74 521 44 491 21 c 128
 461 -2 432 -14 403 -14 c 0
 399 -14 394 -12 387 -8 c 128
 380 -4 375 3 371 10 c 128
 367 17 366 25 370 33 c 2
 497 335 l 2
 501 345 502 354 501 360 c 128
 500 366 497 369 493 369 c 0
 487 369 480 363 471 350 c 128
 462 337 451 320 439 298 c 0
 428 278 416 254 402 226 c 128
 388 198 372 169 356 138 c 128
 340 107 322 75 304 42 c 0
 298 32 291 23 282 14 c 128
 273 5 265 -1 257 -6 c 128
 249 -11 242 -14 237 -14 c 0
 232 -14 227 -11 221 -6 c 128
 215 -1 211 6 207 14 c 128
 203 22 201 28 202 35 c 0
 203 39 204 44 205 51 c 128
 206 58 209 65 212 74 c 2
 315 338 l 2
 319 348 321 356 320 362 c 128
 319 368 317 370 312 370 c 0
 307 370 298 363 287 349 c 128
 276 335 262 314 246 287 c 0
 237 272 228 256 219 237 c 128
 210 218 200 199 190 178 c 128
 180 157 170 135 160 113 c 128
 150 91 140 69 129 48 c 0
 119 28 110 13 101 2 c 128
 92 -9 83 -14 74 -14 c 0
EndSplineSet
EndChar

StartChar: n
Encoding: 110 110 39
Width: 600
GlyphClass: 2
Flags: W
LayerCount: 2
Fore
SplineSet
118 -14 m 0
 113 -14 106 -12 98 -8 c 128
 90 -4 82 2 74 10 c 128
 66 18 60 27 57 37 c 128
 54 47 54 58 59 69 c 2
 160 320 l 2
 167 337 164 345 151 345 c 0
 146 345 139 345 130 344 c 128
 121 343 112 341 101 336 c 128
 90 331 80 322 70 310 c 0
 67 307 63 306 58 306 c 128
 53 306 50 309 49 315 c 0
 49 320 52 326 56 334 c 128
 60 342 66 350 72 358 c 128
 78 366 83 373 88 377 c 0
 104 392 123 405 146 416 c 128
 169 427 196 433 227 433 c 0
 244 433 257 429 266 420 c 128
 275 411 280 401 282 388 c 128
 284 375 282 361 277 347 c 2
 224 216 l 2
 222 211 224 209 230 208 c 128
 236 207 239 209 242 213 c 0
 266 255 290 293 313 326 c 128
 336 359 361 385 386 404 c 128
 411 423 437 433 465 433 c 0
 491 433 510 426 522 411 c 128
 534 396 539 379 540 358 c 128
 541 337 537 316 528 297 c 2
 453 120 l 2
 444 99 446 89 457 89 c 0
 461 89 467 91 474 95 c 128
 481 99 489 104 497 110 c 128
 505 116 513 120 520 126 c 128
 527 132 532 137 535 140 c 256
 538 143 542 147 546 150 c 128
 550 153 552 155 554 155 c 256
 556 155 558 154 560 152 c 128
 562 150 564 146 564 143 c 0
 564 130 560 118 551 107 c 0
 531 84 508 62 484 44 c 128
 460 26 435 12 409 2 c 128
 383 -8 358 -14 335 -14 c 0
 326 -14 317 -12 308 -6 c 128
 299 0 292 7 288 15 c 128
 284 23 284 31 287 40 c 0
 309 89 332 136 355 184 c 128
 378 232 399 281 418 331 c 0
 423 343 424 352 423 358 c 128
 422 364 417 368 410 368 c 0
 401 368 392 363 382 352 c 128
 372 341 360 328 349 312 c 128
 338 296 326 279 314 262 c 0
 308 254 300 241 289 224 c 128
 278 207 267 189 254 168 c 128
 241 147 228 127 216 106 c 128
 204 85 193 66 184 50 c 0
 173 32 163 16 152 4 c 128
 141 -8 130 -14 118 -14 c 0
EndSplineSet
EndChar

StartChar: o
Encoding: 111 111 40
Width: 600
GlyphClass: 2
Flags: W
LayerCount: 2
Fore
SplineSet
225 -14 m 0
 197 -14 171 -8 146 4 c 0
 121 16 99 33 84 54 c 0
 69 75 60 100 59 128 c 0
 57 158 63 191 76 226 c 0
 89 261 111 296 138 327 c 0
 165 358 197 383 237 403 c 0
 277 423 322 433 372 433 c 0
 421 433 462 421 493 395 c 0
 524 369 541 334 543 290 c 0
 544 259 539 227 526 192 c 0
 513 157 491 123 464 92 c 0
 437 61 403 36 363 16 c 0
 323 -4 277 -14 225 -14 c 0
245 25 m 0
 261 25 281 32 297 47 c 0
 313 62 330 81 344 106 c 0
 358 131 371 157 382 186 c 0
 393 215 401 245 407 274 c 0
 413 303 414 330 412 354 c 0
 410 368 407 379 398 386 c 0
 389 393 373 396 358 396 c 0
 345 396 327 389 310 374 c 0
 293 359 278 340 262 316 c 0
 246 292 233 265 222 236 c 0
 211 207 202 178 196 149 c 0
 190 120 188 94 191 69 c 0
 193 54 198 44 208 36 c 0
 218 28 233 25 245 25 c 0
EndSplineSet
EndChar

StartChar: p
Encoding: 112 112 41
Width: 600
GlyphClass: 2
Flags: W
LayerCount: 2
Fore
SplineSet
-63 -285 m 0
 -66 -285 -70 -284 -72 -282 c 128
 -74 -280 -75 -277 -74 -274 c 0
 -73 -269 -70 -265 -66 -262 c 128
 -62 -259 -57 -256 -52 -255 c 0
 -31 -250 -16 -244 -7 -239 c 128
 2 -234 10 -223 15 -207 c 2
 185 312 l 2
 187 319 188 325 190 331 c 128
 192 337 192 342 191 345 c 128
 190 348 185 349 177 347 c 0
 164 344 152 340 142 337 c 128
 132 334 120 329 105 324 c 0
 100 322 94 321 88 322 c 128
 82 323 80 327 80 334 c 0
 80 341 82 346 88 351 c 128
 94 356 100 359 106 362 c 0
 117 366 128 371 142 378 c 128
 156 385 176 394 201 403 c 0
 206 405 210 409 214 414 c 128
 218 419 222 428 226 441 c 0
 237 473 251 497 268 512 c 128
 285 527 304 534 325 534 c 0
 338 534 346 530 351 523 c 128
 356 516 356 503 352 486 c 2
 341 447 l 2
 340 440 340 435 340 431 c 128
 340 427 341 425 344 426 c 0
 353 428 361 430 370 431 c 128
 379 432 388 433 398 433 c 0
 433 433 463 428 487 416 c 128
 511 404 529 388 541 367 c 128
 553 346 559 323 559 297 c 0
 559 262 551 226 536 190 c 128
 521 154 500 119 473 88 c 128
 446 57 416 33 382 14 c 128
 348 -5 312 -14 275 -14 c 0
 263 -14 252 -12 243 -7 c 128
 234 -2 226 2 220 6 c 0
 211 13 204 15 200 14 c 128
 196 13 192 6 188 -7 c 2
 134 -197 l 2
 130 -210 132 -220 140 -229 c 128
 148 -238 163 -245 186 -251 c 0
 190 -252 194 -253 198 -256 c 128
 202 -259 205 -264 205 -271 c 0
 205 -274 202 -278 198 -280 c 128
 194 -282 189 -283 183 -283 c 0
 172 -283 159 -283 142 -282 c 128
 125 -281 109 -280 94 -280 c 128
 79 -280 67 -280 57 -281 c 0
 40 -281 21 -282 -2 -283 c 128
 -25 -284 -45 -285 -63 -285 c 0
275 24 m 0
 288 24 303 31 320 45 c 128
 337 59 355 78 372 102 c 128
 389 126 403 154 414 185 c 128
 425 216 431 248 431 281 c 0
 431 317 424 343 409 358 c 128
 394 373 375 380 350 380 c 0
 344 380 344 380 338 380 c 128
 334 380 329 379 324 378 c 1
 238 110 l 2
 235 100 234 90 234 81 c 128
 234 72 236 63 239 55 c 0
 243 46 248 38 252 32 c 128
 256 26 264 24 275 24 c 0
EndSplineSet
EndChar

StartChar: q
Encoding: 113 113 42
Width: 600
GlyphClass: 1
Flags: W
LayerCount: 2
Fore
SplineSet
137 -288 m 0
 134 -289 132 -287 130 -284 c 128
 128 -281 126 -278 126 -275 c 0
 127 -270 130 -265 134 -262 c 128
 138 -259 143 -257 148 -256 c 0
 169 -251 184 -245 194 -239 c 128
 204 -233 211 -222 217 -206 c 0
 228 -176 241 -142 254 -105 c 128
 267 -68 281 -28 295 12 c 128
 309 52 323 92 338 131 c 0
 340 136 339 139 336 140 c 128
 333 141 330 139 326 134 c 0
 297 97 272 68 250 46 c 128
 228 24 206 9 186 0 c 128
 166 -9 144 -14 121 -14 c 0
 96 -14 76 -5 60 13 c 128
 44 31 35 54 35 81 c 0
 35 110 41 140 53 170 c 128
 65 200 81 230 102 259 c 128
 123 288 145 316 170 342 c 0
 199 371 231 394 264 412 c 128
 297 430 329 440 358 440 c 0
 369 440 380 437 391 432 c 128
 402 427 410 421 415 412 c 0
 420 406 425 401 428 398 c 128
 431 395 435 393 438 394 c 0
 444 394 450 399 456 408 c 2
 464 421 l 2
 475 436 485 447 496 453 c 128
 507 459 517 462 526 462 c 0
 536 462 543 454 546 439 c 128
 549 424 544 398 532 361 c 2
 345 -198 l 2
 340 -213 342 -224 348 -232 c 128
 354 -240 363 -244 376 -246 c 0
 388 -248 397 -250 402 -253 c 128
 407 -256 410 -259 410 -264 c 0
 410 -267 408 -270 403 -272 c 128
 398 -274 393 -276 386 -276 c 0
 352 -276 319 -277 288 -278 c 128
 257 -279 228 -280 202 -282 c 128
 176 -284 155 -286 137 -288 c 0
191 60 m 0
 201 60 212 64 224 72 c 128
 236 80 249 92 262 106 c 128
 275 120 288 136 301 154 c 128
 314 172 327 190 338 208 c 0
 356 235 371 259 384 281 c 128
 397 303 404 321 404 336 c 0
 404 344 402 352 398 360 c 128
 394 368 389 376 382 382 c 128
 375 388 368 392 359 392 c 0
 346 392 332 384 315 369 c 128
 298 354 281 334 264 310 c 128
 247 286 231 260 216 232 c 128
 201 204 190 177 181 152 c 128
 172 127 168 107 168 90 c 0
 168 81 170 73 173 68 c 128
 176 63 182 60 191 60 c 0
EndSplineSet
EndChar

StartChar: r
Encoding: 114 114 43
Width: 600
GlyphClass: 2
Flags: W
LayerCount: 2
Fore
SplineSet
166 -15 m 0
 160 -15 152 -13 143 -9 c 128
 134 -5 125 0 118 7 c 128
 111 14 108 22 108 31 c 0
 108 36 109 41 110 46 c 128
 111 51 113 57 115 63 c 2
 216 325 l 2
 219 332 220 338 218 342 c 128
 216 346 212 348 205 348 c 0
 192 348 180 345 172 340 c 128
 164 335 155 328 146 321 c 0
 143 318 139 318 134 318 c 128
 129 318 126 321 125 326 c 0
 124 340 129 354 141 368 c 128
 153 382 168 394 187 404 c 0
 202 413 217 421 234 426 c 128
 251 431 268 433 284 433 c 0
 303 433 316 428 324 418 c 128
 332 408 336 393 336 376 c 128
 336 359 331 339 321 317 c 2
 283 226 l 2
 280 221 281 219 285 218 c 128
 289 217 292 219 295 224 c 0
 318 265 342 302 364 333 c 128
 386 364 409 389 432 407 c 128
 455 425 478 434 502 434 c 0
 523 434 539 428 550 416 c 128
 561 404 567 388 567 370 c 0
 567 353 563 336 555 319 c 128
 547 302 538 288 526 278 c 128
 514 268 503 263 492 263 c 0
 485 263 479 267 475 274 c 128
 471 281 468 291 465 305 c 0
 463 316 460 327 456 336 c 128
 452 345 446 349 438 349 c 0
 426 349 414 341 402 326 c 128
 390 311 377 291 362 264 c 0
 357 256 350 244 340 227 c 128
 330 210 319 192 308 172 c 128
 297 152 285 132 274 113 c 128
 263 94 253 77 245 63 c 0
 232 40 219 22 205 7 c 128
 191 -8 178 -15 166 -15 c 0
EndSplineSet
EndChar

StartChar: s
Encoding: 115 115 44
Width: 600
GlyphClass: 2
Flags: W
LayerCount: 2
Fore
SplineSet
197 -14 m 0
 162 -14 134 -8 110 4 c 0
 86 16 70 34 70 55 c 0
 70 72 73 86 81 98 c 0
 89 110 99 116 112 116 c 0
 118 116 123 113 130 106 c 0
 137 99 145 92 153 84 c 0
 163 75 174 65 186 54 c 0
 198 43 259 38 279 38 c 0
 298 38 328 42 340 48 c 0
 352 54 355 62 352 74 c 0
 348 84 334 97 314 113 c 0
 294 129 275 145 258 161 c 0
 240 178 223 197 209 216 c 0
 195 235 188 254 187 273 c 0
 184 291 190 310 202 328 c 0
 214 346 231 363 249 380 c 0
 267 397 287 409 306 419 c 0
 325 429 378 433 394 433 c 0
 415 433 458 429 474 422 c 0
 490 415 502 406 513 397 c 0
 524 388 529 378 529 370 c 0
 529 363 525 354 518 343 c 0
 511 332 503 324 495 316 c 0
 487 308 478 305 470 305 c 0
 462 305 454 308 448 314 c 0
 442 320 435 327 430 334 c 0
 424 343 416 350 407 356 c 0
 398 362 352 366 339 366 c 0
 324 366 296 362 287 356 c 0
 278 350 274 343 278 335 c 0
 279 330 284 322 296 314 c 0
 308 306 321 296 336 286 c 0
 351 276 364 264 376 253 c 0
 400 229 424 207 438 190 c 0
 452 173 461 156 463 140 c 0
 466 126 458 111 446 93 c 0
 434 75 419 58 400 42 c 0
 381 26 359 13 335 2 c 0
 311 -9 231 -14 197 -14 c 0
EndSplineSet
EndChar

StartChar: t
Encoding: 116 116 45
Width: 600
GlyphClass: 2
Flags: W
LayerCount: 2
Fore
SplineSet
181 -14 m 0
 171 -14 148 -10 137 -4 c 0
 126 2 119 11 112 21 c 0
 105 31 102 38 102 46 c 0
 102 50 101 56 102 62 c 0
 103 68 108 76 112 87 c 2
 206 339 l 2
 210 351 210 358 207 362 c 0
 204 366 200 367 195 367 c 2
 147 369 l 2
 135 370 129 373 126 377 c 0
 123 381 122 385 122 389 c 0
 122 390 125 394 129 400 c 0
 133 406 139 410 146 415 c 0
 153 420 162 423 170 423 c 2
 219 423 l 2
 229 423 235 425 238 428 c 0
 241 431 246 438 252 448 c 2
 280 504 l 2
 286 514 293 525 302 534 c 0
 311 543 320 551 330 557 c 0
 340 563 349 567 357 567 c 0
 367 567 375 562 378 552 c 0
 381 542 382 531 378 521 c 2
 354 444 l 2
 352 434 352 427 354 425 c 0
 356 423 373 420 384 420 c 0
 402 420 424 419 447 418 c 0
 470 417 489 416 509 415 c 0
 533 413 547 411 552 408 c 0
 557 405 562 399 563 394 c 0
 563 392 562 389 556 384 c 0
 550 379 539 378 524 376 c 0
 503 375 483 374 464 373 c 0
 445 372 422 372 397 371 c 0
 376 370 354 369 348 366 c 0
 342 363 337 359 335 352 c 2
 260 145 l 2
 255 131 254 121 257 114 c 0
 260 107 264 101 274 100 c 0
 284 99 297 98 311 98 c 0
 332 98 366 105 382 112 c 0
 397 119 423 130 438 142 c 0
 452 153 461 163 469 172 c 0
 471 173 473 175 474 175 c 0
 475 175 477 176 477 175 c 0
 480 173 483 171 484 167 c 0
 485 163 483 160 481 156 c 0
 474 146 463 132 446 118 c 0
 429 104 411 89 389 74 c 0
 367 59 343 44 318 30 c 0
 293 16 270 6 246 -2 c 0
 222 -10 197 -14 181 -14 c 0
EndSplineSet
EndChar

StartChar: u
Encoding: 117 117 46
Width: 600
GlyphClass: 2
Flags: W
LayerCount: 2
Fore
SplineSet
117 -14 m 0
 104 -14 92 -8 80 4 c 128
 68 16 60 29 55 44 c 128
 50 59 51 73 56 86 c 2
 149 298 l 2
 154 308 156 316 155 321 c 128
 154 326 151 329 146 329 c 0
 143 329 136 326 125 320 c 128
 114 314 104 306 93 298 c 128
 82 290 74 283 69 278 c 0
 60 270 54 266 48 266 c 128
 42 266 39 269 39 275 c 0
 39 282 40 288 44 294 c 128
 48 300 52 307 57 313 c 0
 76 337 96 358 118 376 c 128
 140 394 162 408 184 418 c 128
 206 428 228 434 249 434 c 0
 258 434 268 430 277 421 c 128
 286 412 293 402 298 390 c 128
 303 378 303 368 298 359 c 0
 285 331 270 298 251 258 c 128
 232 218 211 173 188 122 c 0
 183 112 181 103 182 96 c 128
 183 89 186 85 193 85 c 256
 200 85 209 92 222 106 c 128
 235 120 250 139 266 161 c 128
 282 183 300 205 317 228 c 0
 330 244 342 261 354 278 c 128
 366 295 378 312 388 328 c 128
 398 344 407 359 414 372 c 0
 425 389 435 404 444 416 c 128
 453 428 464 433 475 433 c 0
 488 433 499 429 509 422 c 128
 519 415 526 406 531 396 c 128
 536 386 536 376 533 367 c 2
 433 108 l 2
 431 103 430 98 430 93 c 128
 430 88 433 86 436 86 c 0
 441 86 450 90 464 98 c 128
 478 106 493 116 508 128 c 128
 523 140 534 150 543 159 c 0
 545 161 546 162 547 162 c 0
 550 162 553 161 556 158 c 128
 559 155 560 151 560 147 c 0
 560 138 555 128 546 116 c 128
 537 104 525 93 510 80 c 128
 495 67 480 55 463 44 c 128
 446 33 430 23 414 16 c 128
 398 9 384 5 371 4 c 1
 362 1 352 0 343 3 c 128
 334 6 325 10 318 16 c 128
 311 22 305 28 301 34 c 0
 300 37 298 41 298 46 c 128
 298 51 299 56 302 61 c 0
 307 73 313 87 320 102 c 128
 327 117 335 133 342 150 c 128
 349 167 357 185 364 204 c 0
 366 210 365 214 362 214 c 128
 359 214 355 212 352 207 c 0
 333 180 312 154 292 128 c 128
 272 102 252 78 232 57 c 128
 212 36 191 19 172 6 c 128
 153 -7 134 -14 117 -14 c 0
EndSplineSet
EndChar

StartChar: v
Encoding: 118 118 47
Width: 600
GlyphClass: 2
Flags: W
LayerCount: 2
Fore
SplineSet
217 -14 m 0
 192 -14 171 -8 155 3 c 128
 139 14 129 30 125 50 c 128
 121 70 124 93 133 120 c 2
 195 289 l 2
 198 299 199 306 196 309 c 128
 193 312 191 314 188 314 c 0
 181 314 172 311 160 304 c 128
 148 297 140 290 134 285 c 0
 129 281 126 278 122 275 c 128
 118 272 115 271 114 271 c 0
 105 271 100 275 100 283 c 0
 100 286 102 291 106 297 c 128
 110 303 115 310 121 319 c 0
 131 331 144 344 159 357 c 128
 174 370 191 382 208 394 c 128
 225 406 242 416 258 423 c 128
 274 430 288 434 299 434 c 0
 308 434 316 431 323 425 c 128
 330 419 336 412 340 404 c 128
 344 396 345 389 343 384 c 2
 264 135 l 2
 257 112 256 95 260 84 c 128
 264 73 276 68 295 68 c 0
 309 68 325 75 343 88 c 128
 361 101 378 117 394 138 c 128
 410 159 424 181 435 204 c 128
 446 227 451 248 451 269 c 0
 451 286 448 300 442 312 c 128
 436 324 429 333 420 342 c 0
 413 349 408 355 405 360 c 128
 402 365 400 372 400 379 c 0
 400 385 405 392 416 400 c 128
 427 408 441 417 456 424 c 128
 471 431 483 434 492 434 c 0
 503 434 512 427 520 414 c 128
 528 401 533 380 533 351 c 0
 533 323 528 294 516 265 c 128
 504 236 489 207 470 178 c 128
 451 149 429 123 405 98 c 0
 375 66 344 39 312 18 c 128
 280 -3 249 -14 217 -14 c 0
EndSplineSet
EndChar

StartChar: w
Encoding: 119 119 48
Width: 600
GlyphClass: 2
Flags: W
LayerCount: 2
Fore
SplineSet
119 -14 m 0
 103 -14 88 -8 76 4 c 128
 64 16 58 35 57 60 c 128
 56 85 61 114 74 148 c 2
 127 292 l 2
 130 301 131 307 130 310 c 128
 129 313 126 314 124 314 c 0
 121 314 115 312 105 307 c 128
 95 302 86 297 78 290 c 0
 74 287 70 285 66 282 c 128
 62 279 59 278 57 278 c 0
 50 278 46 282 47 291 c 0
 47 294 49 300 52 306 c 128
 55 312 60 319 66 326 c 0
 76 337 89 350 103 362 c 128
 117 374 131 385 146 396 c 128
 161 407 175 417 189 424 c 128
 203 431 214 434 224 434 c 256
 234 434 244 431 250 425 c 128
 256 419 259 409 258 394 c 128
 257 379 253 359 243 333 c 2
 170 136 l 2
 162 113 161 96 168 85 c 128
 175 74 183 68 196 68 c 0
 203 68 214 72 223 80 c 128
 232 88 243 100 253 114 c 128
 263 128 273 144 282 161 c 128
 291 178 299 197 306 216 c 0
 309 223 311 231 313 240 c 128
 315 249 317 258 318 268 c 128
 319 278 321 287 323 298 c 128
 325 309 328 320 331 332 c 0
 332 338 334 346 339 356 c 128
 344 366 350 374 357 381 c 0
 367 390 374 397 383 402 c 128
 392 407 404 410 421 410 c 0
 428 410 434 407 439 401 c 128
 444 395 446 385 447 372 c 128
 448 359 445 341 438 320 c 256
 431 299 422 278 412 259 c 128
 402 240 392 222 384 205 c 0
 378 192 373 179 369 166 c 128
 365 153 363 141 363 130 c 0
 362 113 365 98 370 86 c 128
 375 74 386 68 400 68 c 0
 414 68 428 74 442 86 c 128
 456 98 470 115 482 135 c 128
 494 155 505 176 513 200 c 128
 521 224 526 247 527 270 c 0
 528 283 526 294 524 303 c 128
 522 312 519 322 515 331 c 0
 510 342 507 352 503 359 c 128
 499 366 497 372 497 376 c 0
 498 381 502 389 512 398 c 128
 522 407 533 416 545 423 c 128
 557 430 567 434 576 434 c 0
 585 434 594 427 601 414 c 128
 608 401 611 380 610 351 c 0
 608 323 602 294 591 264 c 128
 580 234 565 204 547 175 c 128
 529 146 510 118 489 91 c 0
 464 60 439 34 412 15 c 128
 385 -4 359 -14 334 -14 c 0
 314 -14 298 -8 286 6 c 128
 274 20 269 38 268 60 c 128
 267 82 271 108 279 135 c 1
 281 102 l 1
 268 79 252 58 235 41 c 128
 218 24 199 10 180 0 c 128
 161 -10 140 -14 119 -14 c 0
EndSplineSet
EndChar

StartChar: x
Encoding: 120 120 49
Width: 600
GlyphClass: 2
Flags: W
LayerCount: 2
Fore
SplineSet
86 -14 m 0
 69 -14 57 -10 49 0 c 128
 41 10 37 21 37 34 c 0
 37 44 39 54 44 65 c 128
 49 76 56 85 63 92 c 128
 70 99 78 102 86 102 c 0
 89 102 93 100 97 97 c 128
 101 94 104 90 107 85 c 0
 110 82 113 79 118 76 c 128
 123 73 128 71 135 71 c 0
 141 71 147 72 154 76 c 128
 161 80 169 86 176 94 c 0
 182 101 189 109 197 118 c 128
 205 127 214 136 222 145 c 128
 230 154 237 163 243 171 c 0
 246 176 248 180 249 184 c 128
 250 188 249 192 247 198 c 2
 209 327 l 2
 208 332 206 337 204 340 c 128
 202 343 198 344 195 344 c 0
 188 344 179 339 168 330 c 128
 157 321 145 309 132 294 c 0
 131 293 128 292 126 290 c 128
 124 288 122 287 120 287 c 0
 117 287 114 288 112 290 c 128
 110 292 109 295 109 299 c 0
 109 312 112 326 120 341 c 128
 128 356 138 371 151 385 c 128
 164 399 178 411 195 420 c 128
 212 429 229 433 248 433 c 0
 265 433 277 426 286 414 c 128
 295 402 303 386 309 366 c 2
 338 274 l 2
 340 266 344 266 351 275 c 2
 410 357 l 2
 429 384 447 404 464 416 c 128
 481 428 497 433 512 433 c 0
 529 433 544 427 556 414 c 128
 568 401 573 389 573 379 c 0
 573 368 570 357 564 347 c 128
 558 337 552 328 544 322 c 128
 536 316 529 313 523 313 c 0
 515 313 509 315 506 318 c 128
 503 321 501 324 498 329 c 0
 495 334 492 339 489 342 c 128
 486 345 480 347 473 347 c 0
 468 347 461 345 453 342 c 128
 445 339 434 330 421 316 c 0
 412 307 402 295 392 282 c 128
 382 269 373 254 363 238 c 0
 360 232 358 226 356 221 c 128
 354 216 354 209 357 200 c 2
 385 98 l 2
 388 87 392 80 395 76 c 128
 398 72 402 71 407 71 c 0
 412 71 420 75 430 84 c 128
 440 93 452 108 464 128 c 0
 468 133 472 136 477 136 c 0
 480 136 482 134 484 132 c 128
 486 130 486 126 486 121 c 0
 486 111 483 99 476 84 c 128
 469 69 458 53 446 38 c 128
 434 23 420 11 404 1 c 128
 388 -9 371 -14 354 -14 c 0
 335 -14 320 -8 308 6 c 128
 296 20 287 35 283 50 c 0
 280 63 277 77 274 94 c 128
 271 111 267 126 264 139 c 0
 263 143 262 146 260 147 c 128
 258 148 255 147 252 143 c 0
 242 129 232 115 223 100 c 128
 214 85 204 71 193 58 c 0
 176 35 158 16 139 4 c 128
 120 -8 102 -14 86 -14 c 0
EndSplineSet
EndChar

StartChar: y
Encoding: 121 121 50
Width: 600
GlyphClass: 2
Flags: W
LayerCount: 2
Fore
SplineSet
13 -289 m 0
 -6 -289 -23 -284 -38 -274 c 128
 -53 -264 -61 -247 -61 -226 c 0
 -61 -214 -58 -202 -52 -191 c 128
 -46 -180 -39 -170 -30 -163 c 128
 -21 -156 -11 -152 -1 -152 c 0
 6 -152 14 -154 22 -159 c 128
 30 -164 38 -169 45 -175 c 0
 53 -180 61 -185 70 -190 c 128
 79 -195 89 -198 100 -198 c 0
 120 -198 140 -188 160 -168 c 128
 180 -148 196 -122 210 -90 c 0
 223 -62 232 -30 238 6 c 128
 244 42 246 81 246 122 c 0
 246 177 242 221 236 254 c 128
 230 287 223 310 215 324 c 128
 207 338 200 346 193 346 c 0
 187 346 181 342 174 334 c 128
 167 326 160 316 154 305 c 128
 148 294 142 286 139 279 c 0
 138 276 136 271 132 265 c 128
 128 259 124 256 120 256 c 0
 118 256 116 259 114 264 c 128
 112 269 111 275 111 284 c 0
 111 303 115 321 124 339 c 128
 133 357 146 374 160 389 c 128
 174 404 190 417 206 426 c 128
 222 435 237 439 252 439 c 0
 271 439 286 432 298 419 c 128
 310 406 320 387 329 362 c 0
 338 333 346 296 353 251 c 128
 360 206 361 150 358 83 c 0
 357 71 359 65 362 66 c 128
 365 67 368 71 373 80 c 0
 396 124 412 173 421 227 c 128
 430 281 434 344 433 415 c 0
 433 420 438 426 446 432 c 128
 454 438 461 440 466 440 c 0
 472 440 480 438 490 432 c 128
 500 426 509 418 518 408 c 128
 527 398 531 388 531 375 c 0
 531 334 520 285 496 230 c 128
 472 175 439 117 397 55 c 128
 355 -7 306 -69 250 -130 c 0
 224 -159 197 -186 168 -210 c 128
 139 -234 111 -254 84 -268 c 128
 57 -282 34 -289 13 -289 c 0
EndSplineSet
EndChar

StartChar: z
Encoding: 122 122 51
Width: 600
GlyphClass: 2
Flags: W
LayerCount: 2
Fore
SplineSet
330 -33 m 0
 310 -33 292 -28 275 -18 c 128
 258 -8 243 1 229 12 c 0
 216 23 204 32 192 41 c 128
 180 50 169 54 158 54 c 0
 141 54 127 48 117 36 c 128
 107 24 102 10 102 -5 c 0
 102 -12 100 -16 96 -18 c 128
 92 -20 89 -20 86 -20 c 0
 81 -20 76 -17 72 -10 c 128
 68 -3 65 4 64 11 c 0
 63 18 64 27 68 37 c 128
 72 47 79 56 90 65 c 2
 385 320 l 1
 421 318 l 1
 411 309 397 302 380 296 c 128
 363 290 350 287 339 287 c 0
 326 287 312 291 300 300 c 128
 288 309 276 318 265 328 c 0
 254 336 244 344 234 350 c 128
 224 356 214 359 204 359 c 256
 194 359 187 354 182 344 c 128
 177 334 174 323 174 312 c 0
 174 303 176 296 178 289 c 128
 180 282 183 276 186 270 c 0
 191 263 191 256 186 251 c 0
 181 246 172 242 161 237 c 128
 150 232 142 230 137 230 c 0
 133 230 128 234 121 242 c 128
 114 250 111 260 111 273 c 0
 111 297 117 316 128 331 c 128
 139 346 154 360 173 375 c 0
 182 383 194 391 208 400 c 128
 222 409 236 418 250 424 c 128
 264 430 276 433 284 433 c 0
 299 433 312 430 324 426 c 128
 336 422 349 418 364 414 c 0
 377 409 390 406 403 402 c 128
 416 398 430 396 443 396 c 0
 454 396 462 397 468 400 c 128
 474 403 480 409 489 416 c 0
 493 419 498 424 504 428 c 128
 510 432 516 434 521 434 c 0
 525 434 529 432 533 429 c 128
 537 426 539 422 539 419 c 0
 539 414 536 408 528 398 c 128
 520 388 511 379 502 371 c 2
 209 100 l 1
 183 111 l 1
 192 119 201 126 210 132 c 128
 219 138 229 141 238 141 c 0
 253 141 268 137 282 128 c 128
 296 119 310 108 323 97 c 0
 336 86 349 76 362 66 c 128
 375 56 387 52 400 52 c 0
 409 52 415 55 420 62 c 128
 425 69 429 78 432 88 c 128
 435 98 436 109 436 121 c 0
 436 134 437 145 438 154 c 128
 439 163 443 168 449 168 c 0
 458 168 468 163 477 154 c 128
 486 145 491 131 491 112 c 0
 491 99 484 84 472 67 c 128
 460 50 445 34 427 19 c 128
 409 4 392 -8 374 -18 c 128
 356 -28 341 -33 330 -33 c 0
EndSplineSet
EndChar

StartChar: zero
Encoding: 48 48 52
Width: 600
GlyphClass: 1
Flags: W
LayerCount: 2
Fore
SplineSet
298 26 m 0
 313 26 328 33 344 48 c 0
 360 63 375 84 390 110 c 0
 405 136 420 164 434 197 c 0
 448 230 459 264 470 299 c 0
 481 334 490 368 496 402 c 0
 502 436 506 468 506 496 c 0
 506 500 506 503 505 503 c 0
 504 503 503 500 499 493 c 2
 275 106 l 2
 265 89 260 81 258 74 c 0
 256 66 258 62 262 52 c 0
 269 35 281 26 298 26 c 0
273 -14 m 0
 238 -14 208 -6 184 10 c 0
 160 26 142 50 130 80 c 0
 118 110 113 143 114 181 c 0
 115 219 122 259 135 302 c 0
 148 347 167 388 190 428 c 0
 213 468 240 503 270 533 c 0
 300 563 334 586 370 604 c 0
 406 622 445 631 484 631 c 0
 521 631 551 623 575 606 c 0
 599 589 616 565 628 536 c 0
 640 507 645 474 644 436 c 0
 643 398 636 358 623 317 c 0
 608 270 589 226 565 186 c 0
 541 146 513 111 482 81 c 0
 451 51 418 28 382 11 c 0
 346 -6 310 -14 273 -14 c 0
459 588 m 0
 438 588 418 575 397 550 c 0
 376 525 357 492 338 451 c 0
 319 410 303 366 289 319 c 0
 278 284 270 250 263 216 c 0
 261 205 260 199 261 199 c 0
 262 199 264 204 270 214 c 2
 460 544 l 2
 470 561 476 572 478 578 c 0
 481 588 475 588 459 588 c 0
EndSplineSet
Substitution2: "'ss01' Original glyphs-1" zero.ss01
EndChar

StartChar: one
Encoding: 49 49 53
Width: 600
GlyphClass: 1
Flags: W
LayerCount: 2
Fore
SplineSet
80 -3 m 0
 76 -3 73 -2 70 0 c 128
 67 2 66 6 67 11 c 0
 68 17 72 22 76 25 c 128
 80 28 85 31 91 32 c 0
 120 39 144 46 162 54 c 128
 180 62 192 77 199 98 c 2
 308 451 l 2
 316 477 313 494 300 504 c 128
 287 514 270 521 248 526 c 0
 243 527 238 529 234 532 c 128
 230 535 229 540 230 547 c 0
 232 555 237 562 244 566 c 128
 251 570 259 572 267 573 c 0
 294 575 320 579 345 584 c 128
 370 589 395 596 420 604 c 128
 445 612 469 621 492 631 c 0
 495 632 498 634 502 635 c 128
 506 636 508 637 509 637 c 0
 514 637 517 636 519 634 c 128
 521 632 521 629 520 626 c 0
 517 617 513 607 508 596 c 128
 503 585 497 571 492 553 c 2
 351 96 l 2
 347 83 348 73 352 66 c 128
 356 59 364 53 375 48 c 128
 386 43 400 38 416 32 c 0
 421 30 424 28 428 25 c 128
 432 22 433 18 432 12 c 0
 431 8 429 5 424 2 c 128
 419 -1 413 -2 408 -2 c 0
 393 -2 376 -2 355 -1 c 128
 334 0 314 0 294 1 c 128
 274 2 257 2 244 2 c 0
 230 2 213 2 193 1 c 128
 173 0 153 -1 133 -2 c 128
 113 -3 95 -3 80 -3 c 0
EndSplineSet
EndChar

StartChar: two
Encoding: 50 50 54
Width: 600
GlyphClass: 1
Flags: W
LayerCount: 2
Fore
SplineSet
422 -4 m 0
 415 -3 405 -2 394 -2 c 0
 383 -2 372 -2 358 -1 c 0
 344 0 330 0 314 0 c 0
 298 0 282 1 266 1 c 0
 248 1 227 0 202 0 c 0
 177 0 152 0 128 -0 c 0
 104 0 82 -2 63 -2 c 0
 44 -2 32 -2 27 -3 c 0
 20 -3 19 0 22 6 c 0
 25 12 28 16 32 20 c 2
 255 203 l 2
 298 238 331 269 356 298 c 0
 381 327 400 355 411 380 c 0
 422 405 428 430 428 455 c 0
 428 486 420 509 403 522 c 0
 386 535 367 542 344 542 c 0
 318 542 296 535 276 522 c 0
 256 509 238 493 221 475 c 0
 216 470 212 466 208 461 c 0
 204 456 200 454 197 454 c 0
 194 454 192 456 190 459 c 0
 188 462 187 467 188 474 c 0
 189 489 195 506 207 524 c 0
 219 542 235 559 256 576 c 0
 277 593 300 607 327 618 c 0
 354 629 382 634 412 633 c 0
 462 632 501 620 530 596 c 0
 559 572 573 543 573 507 c 0
 573 481 568 456 556 432 c 0
 544 408 528 386 509 364 c 0
 490 342 468 321 445 300 c 0
 434 291 420 279 400 264 c 0
 380 249 358 233 336 216 c 0
 314 199 293 182 272 166 c 0
 251 150 234 138 220 128 c 0
 206 118 199 111 198 110 c 0
 197 108 197 107 200 106 c 0
 203 105 207 104 210 103 c 0
 222 101 236 100 250 100 c 0
 264 100 278 99 292 99 c 0
 307 99 324 99 342 100 c 0
 360 101 376 102 390 103 c 0
 405 104 418 108 430 112 c 0
 442 116 453 122 464 130 c 0
 475 138 485 150 496 163 c 0
 499 168 504 173 511 178 c 0
 518 183 524 185 531 185 c 0
 536 185 539 183 540 178 c 0
 541 173 540 168 537 163 c 0
 526 148 516 133 506 118 c 0
 496 103 488 89 480 76 c 0
 472 63 466 52 461 42 c 0
 456 32 452 24 449 19 c 0
 446 11 442 6 435 2 c 0
 428 -2 424 -4 422 -4 c 0
EndSplineSet
EndChar

StartChar: three
Encoding: 51 51 55
Width: 600
GlyphClass: 1
Flags: W
LayerCount: 2
Fore
SplineSet
140 -38 m 256
 109 -38 85 -34 68 -26 c 0
 51 -18 42 -7 42 7 c 0
 42 22 45 34 51 44 c 0
 57 54 65 59 76 59 c 0
 80 59 86 58 93 54 c 0
 100 50 108 45 116 40 c 0
 127 34 139 28 152 23 c 0
 165 18 177 15 190 15 c 0
 221 15 247 25 270 44 c 0
 293 63 310 88 323 118 c 0
 336 148 342 180 342 212 c 0
 342 234 337 252 327 267 c 0
 317 282 301 289 279 289 c 0
 262 289 248 286 236 280 c 0
 224 274 215 271 208 268 c 0
 202 265 197 265 192 267 c 0
 187 269 184 273 184 280 c 0
 184 289 188 296 195 303 c 0
 202 310 210 315 220 320 c 0
 230 325 238 330 245 334 c 0
 264 343 284 353 303 364 c 0
 322 375 340 388 356 401 c 0
 372 414 386 428 396 444 c 0
 406 460 411 477 411 494 c 256
 411 511 406 526 396 540 c 0
 386 554 370 561 351 561 c 0
 324 561 302 553 284 537 c 0
 266 521 250 503 237 484 c 0
 234 479 230 474 226 472 c 0
 222 470 220 469 217 469 c 0
 212 469 207 473 202 480 c 0
 197 487 195 494 195 501 c 0
 195 507 200 516 210 530 c 0
 220 544 235 559 254 574 c 0
 273 589 296 602 322 613 c 0
 348 624 377 629 410 629 c 0
 440 629 466 624 486 614 c 0
 506 604 522 591 532 575 c 0
 542 559 547 542 547 524 c 0
 547 505 541 488 530 471 c 0
 519 454 504 438 486 424 c 0
 468 410 448 397 426 386 c 0
 404 375 384 365 364 356 c 0
 361 355 360 354 360 352 c 0
 360 350 360 350 363 350 c 0
 386 349 408 344 429 334 c 0
 450 324 466 310 479 293 c 0
 492 276 498 255 498 232 c 0
 498 207 490 181 475 156 c 0
 460 131 440 106 414 84 c 0
 388 62 359 42 327 23 c 0
 297 6 266 -8 234 -20 c 0
 202 -32 171 -38 140 -38 c 256
EndSplineSet
EndChar

StartChar: four
Encoding: 52 52 56
Width: 600
GlyphClass: 1
Flags: W
LayerCount: 2
Fore
SplineSet
174 -3 m 0
 171 -3 167 -2 164 0 c 0
 161 2 161 6 162 11 c 0
 163 16 166 20 170 24 c 0
 174 28 180 31 187 32 c 0
 216 37 236 44 248 52 c 0
 260 60 268 73 275 93 c 2
 291 147 l 2
 292 152 292 156 289 158 c 0
 286 160 283 161 279 161 c 0
 258 161 235 160 208 159 c 0
 181 158 154 156 126 155 c 0
 98 154 73 153 48 153 c 0
 45 153 43 155 42 160 c 0
 41 165 42 169 44 172 c 0
 51 178 56 183 60 187 c 0
 64 191 69 194 73 198 c 0
 77 202 81 207 86 212 c 2
 452 607 l 2
 461 616 470 624 480 631 c 0
 490 638 500 642 507 642 c 2
 533 642 l 2
 536 642 536 640 534 637 c 0
 532 634 531 630 528 627 c 0
 525 624 524 622 523 621 c 2
 183 255 l 2
 178 250 176 246 178 244 c 0
 180 242 182 241 186 241 c 2
 312 241 l 2
 315 241 316 242 318 243 c 0
 320 244 321 246 322 247 c 2
 361 374 l 2
 365 386 369 394 372 398 c 0
 375 402 380 406 388 409 c 0
 409 418 430 424 451 426 c 0
 472 428 487 429 494 429 c 0
 508 429 514 423 512 410 c 0
 510 397 506 378 498 353 c 2
 463 242 l 2
 462 237 463 235 466 235 c 0
 475 234 482 234 486 234 c 0
 492 234 492 234 502 234 c 0
 512 234 521 234 529 234 c 0
 537 234 547 235 558 236 c 0
 561 236 564 235 566 234 c 0
 568 233 569 231 568 229 c 0
 567 224 562 215 556 204 c 0
 550 193 544 182 538 173 c 0
 532 164 527 159 524 159 c 0
 516 159 509 160 502 160 c 0
 495 160 487 160 478 160 c 0
 468 160 468 160 463 160 c 0
 460 160 456 160 451 159 c 256
 446 158 443 158 440 156 c 0
 437 154 435 150 434 145 c 2
 419 96 l 2
 412 77 412 62 419 54 c 0
 426 46 441 39 466 32 c 0
 471 30 474 28 476 25 c 0
 478 22 479 18 478 12 c 0
 477 8 474 5 470 2 c 0
 466 -1 462 -2 457 -2 c 0
 442 -2 427 -2 410 -1 c 0
 393 0 377 0 361 1 c 0
 345 2 330 2 316 2 c 0
 295 2 272 2 246 -0 c 0
 220 -2 197 -3 174 -3 c 0
EndSplineSet
EndChar

StartChar: five
Encoding: 53 53 57
Width: 600
GlyphClass: 1
Flags: W
LayerCount: 2
Fore
SplineSet
100 -38 m 0
 78 -38 62 -32 53 -20 c 0
 44 -8 39 4 39 16 c 0
 39 25 41 32 44 38 c 0
 47 44 50 46 55 46 c 0
 66 46 76 43 84 36 c 0
 92 29 103 23 118 16 c 0
 125 13 131 11 138 10 c 0
 145 9 155 8 168 8 c 0
 193 8 216 11 238 18 c 0
 260 25 279 34 296 48 c 0
 313 62 326 78 336 98 c 0
 346 118 351 141 351 167 c 0
 351 188 346 206 337 223 c 0
 328 240 314 255 294 270 c 0
 274 285 248 300 217 316 c 0
 201 325 190 331 183 335 c 0
 176 339 173 345 173 353 c 0
 173 356 173 360 174 362 c 0
 175 364 175 367 176 370 c 0
 179 379 185 393 194 410 c 0
 203 427 213 444 224 463 c 0
 235 482 244 499 253 514 c 0
 262 529 268 540 272 545 c 0
 281 561 290 573 301 580 c 0
 312 587 323 591 335 594 c 0
 348 597 364 600 386 604 c 0
 408 608 430 611 454 615 c 0
 478 619 499 622 518 625 c 0
 537 628 551 629 558 629 c 0
 569 629 574 623 574 610 c 0
 574 604 572 596 567 584 c 0
 562 572 556 559 548 546 c 0
 540 533 531 522 520 513 c 0
 509 504 497 499 485 498 c 256
 473 497 458 496 439 495 c 0
 420 494 401 492 381 492 c 0
 361 492 344 492 328 491 c 0
 312 490 301 489 296 488 c 0
 291 487 287 485 282 480 c 0
 277 475 272 470 268 464 c 0
 264 458 262 454 261 450 c 0
 259 444 261 440 268 437 c 0
 307 423 343 406 376 387 c 0
 409 368 436 345 456 320 c 0
 476 295 487 266 487 234 c 0
 487 195 476 159 455 126 c 0
 434 93 405 64 368 39 c 0
 331 14 290 -5 244 -18 c 0
 198 -31 149 -38 100 -38 c 0
EndSplineSet
EndChar

StartChar: six
Encoding: 54 54 58
Width: 600
GlyphClass: 1
Flags: W
LayerCount: 2
Fore
SplineSet
264 -14 m 0
 201 -14 156 3 128 36 c 0
 100 69 87 112 87 163 c 0
 87 208 98 252 119 297 c 0
 140 342 168 384 204 424 c 0
 240 464 281 500 326 533 c 0
 371 566 419 592 468 614 c 0
 517 636 565 650 612 657 c 0
 623 658 634 659 643 658 c 0
 652 657 657 653 657 648 c 0
 657 642 655 637 652 634 c 0
 649 631 642 627 629 624 c 0
 594 615 557 598 519 574 c 0
 481 550 444 522 408 488 c 0
 372 454 341 417 312 378 c 0
 283 339 261 300 244 260 c 0
 227 220 218 183 218 147 c 0
 218 108 224 78 236 58 c 0
 248 38 268 28 296 28 c 0
 317 28 336 35 353 48 c 0
 370 61 384 80 394 105 c 0
 404 130 409 159 408 193 c 0
 407 218 400 237 387 250 c 0
 374 263 359 270 342 270 c 0
 335 270 328 270 322 268 c 0
 316 266 310 264 303 261 c 0
 288 254 281 254 281 260 c 0
 281 266 286 275 295 285 c 0
 306 298 320 309 334 318 c 0
 348 327 363 335 378 340 c 0
 393 345 407 348 420 348 c 0
 454 348 482 338 503 316 c 0
 524 294 535 265 535 229 c 0
 535 204 528 178 516 150 c 0
 504 122 486 95 462 70 c 0
 438 45 409 24 376 9 c 0
 343 -6 305 -14 264 -14 c 0
EndSplineSet
EndChar

StartChar: seven
Encoding: 55 55 59
Width: 600
GlyphClass: 1
Flags: W
LayerCount: 2
Fore
SplineSet
120 -30 m 0
 112 -30 104 -27 98 -21 c 0
 92 -15 89 -7 90 2 c 0
 90 7 94 15 104 25 c 0
 114 35 123 44 131 53 c 2
 504 484 l 2
 509 489 510 493 508 495 c 0
 506 497 503 498 498 498 c 2
 291 498 l 2
 274 498 260 496 248 490 c 0
 236 484 223 474 210 461 c 0
 205 456 198 450 188 442 c 0
 178 434 168 429 158 429 c 0
 149 429 144 433 146 442 c 0
 148 451 152 460 158 470 c 0
 169 492 181 515 194 540 c 0
 207 565 217 586 223 605 c 0
 226 612 230 618 236 620 c 0
 242 622 247 623 250 622 c 0
 258 621 270 621 286 620 c 0
 302 619 320 617 340 616 c 0
 356 616 374 616 396 616 c 0
 418 616 439 614 460 614 c 0
 481 614 497 614 510 614 c 0
 535 614 556 614 576 614 c 0
 596 614 613 615 628 616 c 0
 643 617 656 617 666 618 c 0
 669 618 673 615 676 610 c 0
 679 605 679 601 678 596 c 256
 677 591 671 583 660 572 c 0
 649 561 636 548 621 531 c 2
 152 2 l 2
 146 -4 140 -10 133 -18 c 0
 126 -26 122 -30 120 -30 c 0
EndSplineSet
EndChar

StartChar: eight
Encoding: 56 56 60
Width: 600
GlyphClass: 1
Flags: W
LayerCount: 2
Fore
SplineSet
236 -13 m 0
 199 -13 169 -7 144 6 c 0
 119 19 101 36 88 56 c 0
 75 76 67 98 66 121 c 0
 66 154 74 182 90 203 c 0
 106 224 128 242 156 258 c 0
 184 274 216 289 251 304 c 0
 258 307 261 310 260 312 c 0
 259 314 256 317 253 321 c 0
 240 338 228 354 217 368 c 0
 206 382 196 396 190 410 c 0
 184 424 181 438 181 453 c 0
 181 475 187 496 200 517 c 0
 213 538 231 557 253 574 c 0
 275 591 300 604 328 614 c 0
 356 624 387 629 418 629 c 0
 451 629 480 623 502 612 c 0
 524 601 540 588 552 571 c 0
 564 554 570 537 570 519 c 0
 571 503 567 486 558 469 c 0
 549 452 536 434 519 418 c 0
 502 402 482 388 457 375 c 0
 450 372 443 368 435 364 c 0
 427 360 420 355 413 351 c 0
 405 347 402 344 402 342 c 0
 402 340 404 336 409 331 c 0
 436 302 458 274 474 250 c 0
 490 226 499 199 499 168 c 0
 499 145 492 124 478 102 c 0
 464 80 445 60 420 43 c 0
 395 26 366 12 335 2 c 0
 304 -8 271 -13 236 -13 c 0
251 23 m 0
 280 23 306 34 328 54 c 0
 350 74 360 102 360 138 c 0
 360 159 354 181 344 203 c 0
 334 225 319 249 298 274 c 0
 294 279 294 280 292 282 c 0
 291 284 289 284 286 284 c 0
 284 284 279 281 271 276 c 0
 248 259 231 243 218 226 c 0
 205 209 195 192 189 173 c 0
 183 154 180 133 180 110 c 0
 181 97 183 84 188 71 c 0
 193 58 201 46 212 37 c 0
 223 28 236 23 251 23 c 0
386 371 m 0
 401 383 414 398 425 415 c 0
 436 432 446 451 452 470 c 0
 458 489 461 507 461 523 c 0
 461 543 456 559 446 572 c 0
 436 585 420 592 396 592 c 0
 379 592 363 588 350 580 c 0
 337 572 326 560 318 545 c 0
 310 530 306 513 306 492 c 256
 306 471 311 451 322 431 c 0
 333 411 347 391 365 372 c 0
 368 369 371 366 374 366 c 0
 377 366 381 368 386 371 c 0
EndSplineSet
EndChar

StartChar: nine
Encoding: 57 57 61
Width: 600
GlyphClass: 1
Flags: W
LayerCount: 2
Fore
SplineSet
96 -16 m 0
 85 -17 76 -17 66 -16 c 0
 56 -15 51 -11 51 -6 c 0
 51 0 53 5 56 8 c 0
 59 11 67 14 80 17 c 0
 111 24 144 34 176 50 c 0
 208 66 240 85 270 108 c 0
 300 131 328 157 354 186 c 0
 380 215 403 245 423 278 c 0
 443 311 459 345 470 380 c 0
 481 415 487 451 487 487 c 0
 487 516 480 539 466 558 c 0
 452 577 433 587 406 587 c 0
 385 587 366 580 348 566 c 0
 330 552 316 532 306 508 c 0
 296 484 291 456 292 427 c 0
 293 403 300 383 314 368 c 0
 328 353 344 345 360 345 c 0
 369 345 377 346 383 348 c 0
 389 350 395 352 401 355 c 0
 416 361 423 361 423 354 c 0
 423 351 422 348 420 344 c 0
 418 340 415 337 410 332 c 0
 397 319 384 307 370 298 c 0
 361 293 352 288 342 283 c 0
 332 278 322 275 312 272 c 0
 302 269 292 267 283 267 c 0
 249 267 222 276 200 296 c 0
 178 316 167 344 167 380 c 0
 167 406 175 433 191 462 c 0
 207 491 229 517 256 542 c 0
 283 567 315 588 350 604 c 0
 385 620 421 629 459 629 c 0
 488 629 514 621 536 606 c 0
 558 591 574 571 587 546 c 0
 600 521 606 493 606 462 c 256
 606 431 599 399 586 365 c 0
 573 331 554 297 530 262 c 0
 506 227 480 194 448 163 c 0
 416 132 382 104 344 78 c 0
 306 52 266 30 224 14 c 0
 182 -2 139 -12 96 -16 c 0
EndSplineSet
EndChar

StartChar: period
Encoding: 46 46 62
Width: 600
GlyphClass: 1
Flags: W
LayerCount: 2
Fore
SplineSet
233 -30 m 0
 216 -30 201 -23 188 -10 c 128
 175 3 169 18 169 35 c 0
 169 52 173 69 182 84 c 128
 191 99 203 111 218 120 c 128
 233 129 249 134 266 134 c 0
 288 134 305 126 316 111 c 128
 327 96 333 80 333 63 c 0
 333 47 329 32 320 18 c 128
 311 4 299 -8 284 -17 c 128
 269 -26 252 -30 233 -30 c 0
EndSplineSet
EndChar

StartChar: comma
Encoding: 44 44 63
Width: 600
GlyphClass: 1
Flags: W
LayerCount: 2
Fore
SplineSet
121 -159 m 0
 114 -159 108 -157 104 -154 c 128
 100 -151 99 -148 101 -143 c 0
 102 -138 106 -133 111 -130 c 128
 116 -127 123 -124 130 -123 c 0
 148 -119 164 -112 180 -102 c 128
 196 -92 209 -81 218 -68 c 128
 227 -55 232 -41 232 -28 c 0
 232 -19 229 -12 223 -7 c 128
 217 -2 210 2 202 5 c 0
 195 8 188 12 182 18 c 128
 176 24 173 32 173 43 c 0
 173 64 180 81 196 96 c 128
 212 111 231 119 252 119 c 0
 275 119 295 111 311 96 c 128
 327 81 335 61 335 34 c 0
 335 12 330 -11 318 -34 c 128
 306 -57 289 -78 268 -97 c 128
 247 -116 224 -131 199 -142 c 128
 174 -153 148 -159 121 -159 c 0
EndSplineSet
EndChar

StartChar: exclam
Encoding: 33 33 66
Width: 600
GlyphClass: 1
Flags: W
LayerCount: 2
Fore
SplineSet
288 178 m 256
 280 178 275 182 272 190 c 128
 269 198 270 210 273 228 c 0
 280 265 286 300 292 332 c 128
 298 364 304 394 310 421 c 128
 316 448 321 470 325 490 c 128
 329 510 332 526 335 538 c 0
 340 557 347 575 356 592 c 128
 365 609 376 622 389 633 c 128
 402 644 417 649 434 649 c 0
 447 649 457 644 466 634 c 128
 475 624 480 609 482 590 c 128
 484 571 480 547 469 520 c 0
 467 513 462 501 454 483 c 128
 446 465 436 443 424 417 c 128
 412 391 397 362 382 330 c 128
 367 298 350 264 333 228 c 0
 326 214 318 202 311 192 c 128
 304 182 296 178 288 178 c 256
233 -14 m 0
 217 -14 203 -8 192 4 c 128
 181 16 175 29 175 44 c 0
 175 67 184 87 201 104 c 128
 218 121 239 130 263 130 c 0
 283 130 298 123 309 110 c 128
 320 97 325 83 325 68 c 0
 325 46 316 26 298 10 c 128
 280 -6 258 -14 233 -14 c 0
EndSplineSet
EndChar

StartChar: question
Encoding: 63 63 67
Width: 600
GlyphClass: 1
Flags: W
LayerCount: 2
Fore
SplineSet
272 177 m 0
 267 177 261 182 252 190 c 128
 243 198 234 209 227 222 c 128
 220 235 216 248 216 262 c 0
 216 285 219 305 226 324 c 128
 233 343 248 361 270 378 c 128
 292 395 327 410 372 425 c 0
 407 436 434 449 454 465 c 128
 474 481 484 500 484 522 c 0
 484 541 478 555 466 566 c 128
 454 577 436 583 410 583 c 0
 401 583 393 581 384 576 c 128
 375 571 366 567 358 564 c 0
 353 561 347 558 340 555 c 128
 333 552 326 550 319 550 c 0
 308 550 298 554 290 561 c 128
 282 568 279 578 280 591 c 0
 280 613 289 630 307 642 c 128
 325 654 347 661 372 661 c 0
 399 661 425 653 448 638 c 128
 471 623 489 600 504 572 c 128
 519 544 526 511 526 472 c 0
 526 453 521 435 512 417 c 128
 503 399 490 382 475 368 c 128
 460 354 442 343 422 335 c 2
 329 296 l 2
 311 289 298 281 292 274 c 128
 286 267 283 257 283 244 c 0
 283 239 283 233 284 228 c 128
 285 223 286 219 287 214 c 0
 288 209 290 204 291 200 c 128
 292 196 293 192 293 188 c 0
 293 183 290 180 286 179 c 128
 282 178 277 177 272 177 c 0
238 -14 m 0
 223 -14 210 -8 199 4 c 128
 188 16 183 28 183 43 c 0
 183 66 191 86 208 103 c 128
 225 120 244 129 267 129 c 0
 286 129 300 123 310 110 c 128
 320 97 325 83 325 68 c 0
 325 46 317 26 300 10 c 128
 283 -6 262 -14 238 -14 c 0
EndSplineSet
EndChar

StartChar: asterisk
Encoding: 42 42 68
Width: 600
GlyphClass: 1
Flags: W
LayerCount: 2
Fore
SplineSet
353 357 m 0
 342 357 334 361 330 370 c 128
 326 379 324 390 326 402 c 0
 327 407 328 414 330 420 c 128
 332 430 334 428 336 438 c 128
 338 444 338 451 340 457 c 128
 342 463 343 468 344 472 c 1
 338 473 327 472 312 470 c 128
 297 468 282 467 269 466 c 0
 258 465 249 467 241 472 c 128
 233 477 229 483 229 491 c 0
 229 500 232 508 239 514 c 128
 246 520 252 523 259 524 c 0
 264 525 270 527 276 528 c 128
 282 529 288 530 294 532 c 128
 300 534 307 536 313 537 c 128
 319 538 324 540 329 541 c 1
 326 547 319 555 310 566 c 128
 301 577 293 589 285 600 c 0
 280 609 277 617 277 625 c 256
 277 633 279 640 284 645 c 128
 289 650 296 653 304 653 c 0
 309 653 313 652 318 650 c 128
 323 648 328 644 332 639 c 0
 340 630 348 621 356 612 c 128
 364 603 372 595 381 587 c 1
 385 598 389 609 394 620 c 128
 399 631 404 643 409 654 c 0
 412 661 417 667 422 672 c 128
 427 677 434 679 441 679 c 0
 451 679 459 675 464 666 c 128
 469 657 470 647 467 635 c 0
 465 629 462 622 460 614 c 128
 458 606 456 598 454 589 c 128
 452 580 449 572 446 565 c 1
 451 565 458 566 468 568 c 128
 478 570 489 572 500 573 c 128
 511 574 519 575 526 575 c 0
 536 575 544 573 550 569 c 128
 556 565 559 559 559 551 c 0
 559 544 557 537 552 530 c 128
 547 523 540 518 531 516 c 0
 520 513 508 510 496 507 c 128
 484 504 473 500 461 497 c 1
 464 492 471 484 480 473 c 128
 489 462 498 452 506 442 c 0
 509 438 512 434 514 429 c 128
 516 424 517 420 517 415 c 0
 517 408 515 401 510 396 c 128
 505 391 499 388 491 388 c 0
 487 388 482 388 477 390 c 128
 472 392 467 395 462 399 c 0
 454 408 445 418 436 426 c 128
 427 434 419 442 410 450 c 1
 408 444 404 434 399 420 c 128
 394 406 388 392 382 379 c 0
 379 373 375 368 370 364 c 128
 365 360 360 357 353 357 c 0
EndSplineSet
EndChar

StartChar: numbersign
Encoding: 35 35 69
Width: 600
GlyphClass: 1
Flags: W
LayerCount: 2
Fore
SplineSet
51 -95 m 0
 47 -95 44 -93 41 -89 c 128
 38 -85 38 -81 40 -77 c 2
 42 -72 l 1
 121 88 l 1
 62 86 l 2
 55 85 50 87 48 92 c 128
 46 97 45 101 46 106 c 0
 50 121 54 134 60 144 c 128
 66 154 72 161 78 166 c 128
 84 171 92 174 99 174 c 2
 169 177 l 1
 218 289 l 1
 151 286 l 2
 145 285 141 287 138 292 c 128
 135 297 134 301 135 305 c 0
 138 321 142 334 148 344 c 128
 154 354 161 361 168 366 c 128
 175 371 181 374 188 374 c 2
 262 377 l 1
 335 525 l 2
 339 536 346 543 356 546 c 128
 366 549 376 550 387 550 c 0
 390 550 393 548 394 544 c 128
 395 540 395 537 394 532 c 0
 393 531 393 529 392 528 c 128
 391 527 391 526 390 525 c 2
 320 380 l 1
 437 384 l 1
 512 536 l 2
 516 547 522 553 530 556 c 128
 538 559 548 561 559 561 c 0
 563 561 566 560 567 556 c 128
 568 552 568 548 567 543 c 0
 566 542 566 541 565 540 c 128
 564 539 564 537 564 536 c 2
 492 387 l 1
 550 390 l 2
 558 391 564 389 567 385 c 128
 570 381 571 376 570 370 c 0
 568 360 564 350 557 340 c 128
 550 330 544 321 536 314 c 128
 528 307 520 303 513 302 c 2
 448 299 l 1
 392 186 l 1
 461 189 l 2
 468 190 474 188 478 184 c 128
 482 180 482 175 481 169 c 0
 478 159 474 148 468 138 c 128
 462 128 454 119 446 112 c 128
 438 105 431 102 424 101 c 2
 349 98 l 1
 273 -57 l 2
 269 -67 264 -74 258 -76 c 128
 252 -78 245 -79 235 -79 c 0
 231 -79 228 -78 224 -74 c 128
 220 -70 218 -66 219 -62 c 2
 220 -57 l 1
 296 96 l 1
 178 91 l 1
 98 -72 l 2
 94 -82 88 -88 79 -91 c 128
 70 -94 61 -95 51 -95 c 0
221 179 m 1
 339 183 l 1
 393 296 l 1
 277 292 l 1
 221 179 l 1
EndSplineSet
EndChar

StartChar: slash
Encoding: 47 47 70
Width: 600
GlyphClass: 1
Flags: W
LayerCount: 2
Fore
SplineSet
118 -60 m 0
 111 -60 106 -58 102 -53 c 128
 98 -48 97 -44 100 -40 c 2
 495 646 l 2
 500 655 507 660 515 662 c 128
 523 664 532 664 542 663 c 0
 551 663 557 660 560 655 c 128
 563 650 563 645 560 641 c 2
 164 -45 l 2
 159 -53 153 -58 144 -59 c 128
 135 -60 127 -61 118 -60 c 0
EndSplineSet
EndChar

StartChar: backslash
Encoding: 92 92 71
Width: 600
GlyphClass: 1
Flags: W
LayerCount: 2
Fore
SplineSet
379 -64 m 0
 370 -64 362 -63 354 -60 c 128
 346 -57 341 -52 340 -43 c 2
 251 648 l 2
 250 653 252 657 258 662 c 128
 264 667 271 669 279 669 c 0
 289 668 297 667 304 664 c 128
 311 661 316 655 317 646 c 2
 405 -45 l 2
 406 -50 404 -54 398 -58 c 128
 392 -62 386 -64 379 -64 c 0
EndSplineSet
EndChar

StartChar: parenleft
Encoding: 40 40 72
Width: 600
GlyphClass: 1
Flags: W
LayerCount: 2
Fore
SplineSet
275 -215 m 0
 256 -215 239 -200 224 -170 c 256
 209 -140 198 -104 190 -61 c 128
 182 -18 178 27 178 74 c 0
 178 156 192 236 219 314 c 128
 246 392 286 463 337 528 c 128
 388 593 449 647 520 692 c 0
 536 701 550 706 562 706 c 0
 575 706 582 702 582 693 c 0
 582 690 580 688 578 684 c 128
 576 680 572 676 567 672 c 0
 521 635 479 593 442 544 c 128
 405 495 373 443 346 387 c 128
 319 331 298 272 283 212 c 128
 268 152 261 93 261 34 c 0
 261 -5 263 -39 268 -67 c 128
 273 -95 278 -118 284 -138 c 128
 290 -158 293 -175 294 -189 c 0
 295 -196 294 -203 290 -208 c 128
 286 -213 281 -215 275 -215 c 0
EndSplineSet
EndChar

StartChar: parenright
Encoding: 41 41 73
Width: 600
GlyphClass: 1
Flags: W
LayerCount: 2
Fore
SplineSet
349 706 m 0
 368 706 386 691 401 662 c 0
 416 631 427 595 435 552 c 128
 443 509 447 465 447 418 c 0
 447 335 434 256 406 178 c 128
 378 100 338 29 287 -36 c 128
 236 -101 175 -156 104 -201 c 0
 88 -210 74 -215 62 -215 c 0
 49 -215 42 -211 42 -202 c 0
 42 -199 43 -196 46 -192 c 128
 49 -188 52 -185 57 -181 c 0
 103 -144 145 -100 182 -52 c 128
 219 -4 251 48 278 104 c 128
 305 160 326 219 341 279 c 128
 356 339 363 398 363 457 c 0
 363 496 361 530 356 558 c 128
 351 586 346 610 341 630 c 128
 336 650 332 666 330 680 c 0
 329 687 330 693 334 698 c 128
 338 703 343 706 349 706 c 0
EndSplineSet
EndChar

StartChar: braceleft
Encoding: 123 123 74
Width: 600
GlyphClass: 1
Flags: W
LayerCount: 2
Fore
SplineSet
327 -152 m 0
 299 -152 272 -149 246 -144 c 128
 220 -139 198 -132 179 -121 c 128
 160 -110 147 -97 140 -80 c 128
 133 -63 134 -42 143 -19 c 0
 150 -2 158 18 166 40 c 128
 178 73 178 73 190 106 c 128
 198 128 206 148 211 167 c 0
 220 195 221 217 214 232 c 128
 207 247 193 258 172 267 c 0
 166 270 161 273 156 274 c 128
 151 275 149 280 149 287 c 0
 150 293 153 297 160 300 c 128
 167 303 176 307 185 310 c 0
 202 316 218 322 230 329 c 128
 242 336 253 345 262 358 c 128
 271 371 280 388 287 411 c 0
 296 439 304 468 310 497 c 128
 316 526 322 554 329 581 c 0
 335 604 347 625 364 642 c 128
 381 659 403 672 428 683 c 128
 453 694 479 701 508 706 c 128
 537 711 565 714 593 714 c 0
 600 714 605 712 609 708 c 128
 613 704 614 700 612 693 c 0
 609 685 604 680 595 678 c 128
 586 676 578 676 571 676 c 0
 537 676 508 670 486 656 c 128
 464 642 448 619 437 586 c 0
 433 573 429 556 425 536 c 128
 421 516 417 496 413 475 c 128
 409 454 405 436 400 421 c 0
 389 386 368 356 336 331 c 128
 304 306 270 290 231 283 c 0
 227 282 227 281 231 279 c 0
 264 272 290 256 308 231 c 128
 326 206 328 176 317 141 c 0
 312 126 306 109 297 88 c 128
 288 67 280 46 272 26 c 128
 264 6 258 -11 254 -24 c 0
 244 -57 245 -78 258 -90 c 128
 271 -102 294 -111 328 -116 c 0
 335 -117 342 -119 349 -120 c 128
 356 -121 359 -125 359 -132 c 256
 359 -139 355 -145 348 -148 c 128
 341 -151 334 -152 327 -152 c 0
EndSplineSet
EndChar

StartChar: braceright
Encoding: 125 125 75
Width: 600
GlyphClass: 1
Flags: W
LayerCount: 2
Fore
SplineSet
319 714 m 0
 347 714 374 711 400 706 c 128
 426 701 447 694 466 683 c 128
 485 672 498 659 505 642 c 128
 512 625 512 604 503 581 c 0
 496 564 489 544 480 522 c 128
 471 500 463 478 455 456 c 128
 447 434 440 414 434 395 c 0
 425 367 425 346 432 331 c 128
 439 316 452 304 473 295 c 0
 480 292 486 290 490 289 c 128
 494 288 496 283 496 275 c 0
 496 269 493 265 486 262 c 128
 479 259 470 255 460 252 c 0
 443 246 428 240 416 233 c 128
 404 226 392 217 383 204 c 128
 374 191 365 174 358 151 c 0
 349 123 342 95 336 66 c 128
 330 37 323 8 316 -19 c 0
 311 -42 300 -63 282 -80 c 128
 264 -97 243 -110 218 -121 c 128
 193 -132 166 -139 138 -144 c 128
 110 -149 81 -152 53 -152 c 0
 46 -152 40 -150 36 -146 c 128
 32 -142 31 -137 33 -131 c 0
 36 -123 41 -118 50 -116 c 128
 59 -114 67 -114 74 -114 c 0
 109 -114 138 -108 160 -94 c 128
 182 -80 198 -57 208 -24 c 0
 212 -11 216 6 220 26 c 128
 224 46 228 67 232 88 c 128
 236 109 241 126 246 141 c 0
 257 176 278 206 310 231 c 128
 342 256 376 272 415 279 c 0
 418 280 418 281 415 283 c 0
 381 290 355 306 338 331 c 128
 321 356 317 386 328 421 c 0
 333 436 340 454 348 475 c 128
 356 496 366 516 374 536 c 128
 382 556 388 573 392 586 c 0
 401 619 400 640 387 652 c 128
 374 664 351 673 318 678 c 0
 311 679 303 681 296 682 c 128
 289 683 286 687 286 694 c 0
 287 701 291 707 298 710 c 128
 305 713 312 714 319 714 c 0
EndSplineSet
EndChar

StartChar: bracketleft
Encoding: 91 91 76
Width: 600
GlyphClass: 1
Flags: W
LayerCount: 2
Fore
SplineSet
125 -201 m 2
 114 -201 106 -200 101 -198 c 128
 96 -196 94 -193 94 -186 c 128
 94 -179 97 -166 102 -149 c 2
 347 644 l 2
 352 661 357 673 361 681 c 128
 365 689 370 694 377 697 c 128
 384 700 392 701 403 701 c 2
 588 700 l 2
 593 700 597 699 600 696 c 128
 603 693 604 688 602 681 c 0
 600 673 594 668 586 664 c 128
 578 660 571 658 566 658 c 0
 554 657 542 657 531 656 c 128
 520 655 508 654 496 653 c 0
 481 652 467 646 456 634 c 128
 445 622 438 610 434 597 c 0
 423 562 412 526 400 488 c 128
 388 450 376 410 363 370 c 128
 350 330 338 291 326 251 c 128
 314 211 302 172 290 132 c 128
 278 92 265 53 253 14 c 128
 241 -25 230 -62 219 -97 c 0
 215 -110 214 -122 218 -133 c 128
 222 -144 232 -150 247 -151 c 0
 255 -152 263 -152 270 -153 c 128
 277 -154 284 -154 291 -155 c 128
 298 -156 306 -156 314 -157 c 0
 319 -158 324 -160 330 -163 c 128
 336 -166 338 -172 335 -180 c 0
 333 -187 329 -193 324 -196 c 128
 319 -199 314 -200 309 -200 c 2
 125 -201 l 2
EndSplineSet
EndChar

StartChar: bracketright
Encoding: 93 93 77
Width: 600
GlyphClass: 1
Flags: W
LayerCount: 2
Fore
SplineSet
502 703 m 2
 513 703 521 702 526 700 c 128
 531 698 534 695 534 688 c 128
 534 681 530 668 525 651 c 2
 280 -142 l 2
 275 -159 270 -171 266 -179 c 128
 262 -187 256 -192 250 -195 c 128
 244 -198 235 -199 224 -199 c 2
 39 -198 l 2
 34 -198 30 -197 27 -194 c 128
 24 -191 23 -186 25 -179 c 0
 27 -171 32 -166 40 -162 c 128
 48 -158 56 -156 61 -156 c 0
 73 -155 85 -154 96 -153 c 128
 107 -152 119 -152 131 -151 c 0
 147 -150 160 -144 171 -132 c 128
 182 -120 189 -108 193 -95 c 0
 204 -60 216 -23 228 15 c 128
 240 53 251 92 264 132 c 128
 277 172 290 211 302 251 c 128
 314 291 326 330 338 370 c 128
 350 410 362 449 374 488 c 128
 386 527 397 564 408 599 c 0
 413 612 413 624 409 635 c 128
 405 646 395 652 380 653 c 0
 373 654 365 654 358 655 c 128
 351 656 344 656 337 657 c 128
 330 658 322 658 313 659 c 0
 308 660 302 662 297 665 c 128
 292 668 290 674 292 682 c 0
 294 689 298 695 303 698 c 128
 308 701 313 702 318 702 c 2
 502 703 l 2
EndSplineSet
EndChar

StartChar: hyphenminus
Encoding: 45 45 78
Width: 600
GlyphClass: 1
Flags: W
LayerCount: 2
Fore
SplineSet
51 218 m 2
 46 218 42 220 38 223 c 128
 34 226 33 229 33 232 c 0
 33 237 34 244 36 252 c 128
 38 260 42 267 46 274 c 128
 50 281 56 284 64 284 c 2
 543 284 l 2
 550 284 555 283 560 280 c 128
 565 277 568 273 568 268 c 0
 568 258 565 248 558 236 c 128
 551 224 542 218 531 218 c 2
 51 218 l 2
EndSplineSet
Substitution2: "'ss01' Original glyphs-1" hyphenminus.ss01
EndChar

StartChar: underscore
Encoding: 95 95 79
Width: 600
GlyphClass: 1
Flags: W
LayerCount: 2
Fore
SplineSet
462 -128 m 2
 468 -128 473 -130 476 -134 c 128
 479 -138 481 -141 480 -145 c 0
 479 -154 475 -162 466 -172 c 128
 457 -182 448 -187 439 -187 c 2
 -97 -187 l 2
 -102 -187 -104 -185 -106 -182 c 128
 -108 -179 -109 -176 -109 -173 c 0
 -109 -169 -108 -163 -104 -156 c 128
 -100 -149 -96 -142 -90 -136 c 128
 -84 -130 -78 -128 -71 -128 c 2
 462 -128 l 2
EndSplineSet
EndChar

StartChar: quotesingle
Encoding: 39 39 81
Width: 600
GlyphClass: 1
Flags: W
LayerCount: 2
Fore
SplineSet
324 408 m 0
 319 408 317 411 318 418 c 128
 319 425 320 431 322 436 c 0
 326 449 330 460 332 470 c 128
 334 480 337 489 340 499 c 0
 347 521 352 542 356 561 c 128
 360 580 365 599 370 617 c 0
 373 627 380 635 388 642 c 128
 396 649 404 655 411 659 c 0
 424 667 436 673 446 677 c 128
 456 681 468 683 479 683 c 0
 487 683 492 678 494 670 c 128
 496 662 494 653 490 643 c 0
 485 627 478 609 467 590 c 128
 456 571 444 551 432 532 c 128
 420 513 408 496 396 480 c 128
 384 464 372 450 363 439 c 0
 357 432 350 425 342 418 c 128
 334 411 327 408 324 408 c 0
EndSplineSet
EndChar

StartChar: dollar
Encoding: 36 36 83
Width: 600
GlyphClass: 1
Flags: W
LayerCount: 2
Fore
SplineSet
254 -14 m 0
 229 -14 206 -13 184 -10 c 128
 162 -7 142 -1 123 6 c 0
 113 10 105 14 98 16 c 128
 91 18 87 19 84 19 c 0
 80 19 76 18 71 16 c 128
 66 14 62 13 59 12 c 0
 52 8 52 8 45 4 c 128
 40 1 36 0 33 0 c 256
 30 0 24 3 18 8 c 128
 12 13 9 18 9 23 c 0
 9 28 12 39 20 55 c 128
 28 71 37 91 46 114 c 128
 55 137 61 162 64 187 c 0
 66 199 69 207 72 212 c 128
 75 217 81 220 89 220 c 0
 98 220 104 214 106 204 c 128
 108 194 109 178 109 157 c 256
 109 136 114 115 124 94 c 128
 134 73 147 55 166 42 c 128
 185 29 209 22 238 22 c 0
 266 22 290 27 310 38 c 128
 330 49 346 62 357 80 c 128
 368 98 373 117 373 137 c 0
 373 152 370 165 364 178 c 128
 358 191 348 206 333 222 c 128
 318 238 296 258 267 282 c 0
 233 311 208 339 191 366 c 128
 174 393 166 427 166 468 c 0
 166 505 177 539 198 568 c 128
 219 597 249 621 286 638 c 128
 323 655 366 664 414 664 c 0
 438 664 460 662 480 658 c 128
 500 654 517 650 531 645 c 0
 545 641 556 638 564 636 c 128
 572 634 581 632 589 632 c 0
 600 632 608 634 615 638 c 0
 620 641 625 642 630 644 c 128
 635 646 639 647 643 647 c 0
 650 647 654 645 656 640 c 128
 658 635 657 630 653 625 c 0
 646 616 638 602 629 585 c 128
 620 568 611 548 603 528 c 128
 595 508 588 488 583 467 c 0
 581 460 579 454 576 449 c 128
 573 444 568 442 561 442 c 256
 554 442 549 445 546 452 c 128
 543 459 542 469 542 483 c 0
 542 527 531 562 508 589 c 128
 485 616 455 629 418 629 c 0
 393 629 371 623 354 612 c 128
 337 601 325 588 316 571 c 128
 307 554 303 538 303 521 c 0
 303 505 306 491 312 478 c 128
 318 465 329 451 344 436 c 128
 359 421 380 403 407 381 c 0
 448 348 477 316 492 288 c 128
 507 260 514 229 514 196 c 0
 514 162 504 128 483 96 c 128
 462 64 433 38 394 17 c 128
 355 -4 309 -14 254 -14 c 0
148 -96 m 0
 139 -96 133 -92 131 -86 c 128
 129 -80 129 -73 132 -66 c 2
 457 705 l 2
 460 712 467 716 476 720 c 128
 485 724 495 726 505 726 c 0
 512 726 515 724 516 718 c 128
 517 712 516 705 512 696 c 2
 184 -82 l 2
 183 -87 179 -90 172 -92 c 128
 165 -94 157 -96 148 -96 c 0
EndSplineSet
EndChar

StartChar: plus
Encoding: 43 43 84
Width: 600
GlyphClass: 1
Flags: W
LayerCount: 2
Fore
SplineSet
294 -11 m 0
 291 -11 289 -9 286 -6 c 128
 283 -3 281 1 281 5 c 2
 281 208 l 2
 281 216 277 220 270 220 c 2
 60 220 l 2
 56 220 52 221 49 224 c 128
 46 227 44 229 44 232 c 0
 44 237 45 244 47 251 c 128
 49 258 52 265 56 271 c 128
 60 277 65 280 72 280 c 2
 268 280 l 2
 274 280 278 282 279 284 c 128
 280 286 281 289 281 293 c 2
 281 473 l 2
 281 480 284 485 290 490 c 128
 296 495 302 499 310 502 c 128
 318 505 323 507 328 507 c 256
 333 507 336 504 339 500 c 128
 342 496 343 491 343 485 c 2
 343 293 l 2
 343 288 344 285 346 283 c 128
 348 281 351 280 355 280 c 2
 559 280 l 2
 564 280 570 279 574 276 c 128
 578 273 580 270 580 265 c 0
 579 256 576 247 570 236 c 128
 564 225 555 220 546 220 c 2
 355 220 l 2
 347 220 343 216 343 208 c 2
 343 17 l 2
 343 10 340 4 334 0 c 128
 328 -4 320 -6 312 -8 c 128
 304 -10 299 -11 294 -11 c 0
EndSplineSet
EndChar

StartChar: equal
Encoding: 61 61 85
Width: 600
GlyphClass: 1
Flags: W
LayerCount: 2
Fore
SplineSet
69 316 m 2
 65 316 61 317 58 320 c 128
 55 323 54 325 54 328 c 0
 54 332 55 338 56 345 c 128
 57 352 60 359 65 364 c 128
 70 369 75 372 81 372 c 2
 563 372 l 2
 569 372 574 371 578 368 c 128
 582 365 585 362 584 357 c 0
 584 349 580 340 574 330 c 128
 568 320 561 316 553 316 c 2
 69 316 l 2
66 135 m 2
 62 135 58 137 55 140 c 128
 52 143 51 145 51 148 c 0
 51 151 53 157 54 164 c 128
 55 171 58 178 63 183 c 128
 68 188 72 191 78 191 c 2
 560 191 l 2
 566 191 571 190 575 187 c 128
 579 184 582 181 581 176 c 0
 581 168 577 160 571 150 c 128
 565 140 558 135 550 135 c 2
 66 135 l 2
EndSplineSet
EndChar

StartChar: greater
Encoding: 62 62 86
Width: 600
GlyphClass: 1
Flags: W
LayerCount: 2
Fore
SplineSet
86 4 m 2
 80 1 75 1 70 4 c 128
 65 7 62 14 62 24 c 0
 62 33 65 43 72 52 c 128
 79 61 87 68 98 73 c 2
 454 233 l 2
 457 234 458 236 458 238 c 128
 458 240 457 241 454 242 c 2
 96 403 l 2
 86 408 78 416 72 425 c 128
 66 434 62 444 62 453 c 0
 62 458 64 463 66 468 c 128
 68 473 72 475 77 475 c 0
 78 475 80 474 81 474 c 128
 82 474 83 474 84 473 c 2
 503 279 l 2
 514 275 525 270 536 263 c 128
 547 256 553 251 553 248 c 0
 553 243 549 235 542 223 c 128
 535 211 526 202 513 197 c 2
 86 4 l 2
EndSplineSet
EndChar

StartChar: less
Encoding: 60 60 87
Width: 600
GlyphClass: 1
Flags: W
LayerCount: 2
Fore
SplineSet
508 -1 m 2
 89 189 l 2
 78 194 67 200 56 206 c 128
 45 212 40 217 40 220 c 0
 40 225 44 234 51 246 c 128
 58 258 68 266 79 271 c 2
 503 467 l 2
 512 471 519 471 524 467 c 128
 529 463 531 457 531 448 c 0
 531 439 528 429 521 420 c 128
 514 411 506 404 495 399 c 2
 138 238 l 2
 135 237 134 236 134 234 c 128
 134 232 135 230 138 229 c 2
 496 69 l 2
 507 64 516 57 522 48 c 128
 528 39 531 29 531 20 c 0
 531 10 529 3 524 0 c 128
 519 -3 513 -3 508 -1 c 2
EndSplineSet
EndChar

StartChar: asciitilde
Encoding: 126 126 88
Width: 600
GlyphClass: 1
Flags: W
LayerCount: 2
Fore
SplineSet
124 255 m 0
 120 254 115 258 110 267 c 128
 105 276 102 282 103 285 c 0
 104 290 108 300 117 312 c 128
 126 324 138 336 152 350 c 128
 166 364 181 376 198 386 c 128
 215 396 231 402 247 402 c 0
 262 402 278 400 294 394 c 128
 310 388 326 382 344 376 c 0
 359 371 374 366 390 362 c 128
 406 358 423 356 441 356 c 0
 455 356 468 359 480 364 c 128
 492 369 504 374 515 380 c 0
 524 385 532 390 537 395 c 128
 542 400 547 402 552 402 c 256
 557 402 561 398 566 389 c 128
 571 380 573 374 572 371 c 0
 572 366 567 358 558 346 c 128
 549 334 538 320 524 306 c 128
 510 292 495 280 478 270 c 128
 461 260 444 255 428 255 c 0
 415 255 401 258 386 262 c 128
 371 266 356 271 341 276 c 0
 323 282 305 288 286 293 c 128
 267 298 250 301 233 301 c 0
 218 301 202 297 186 290 c 128
 170 283 156 276 145 268 c 128
 134 260 127 256 124 255 c 0
EndSplineSet
EndChar

StartChar: asciicircum
Encoding: 94 94 89
Width: 600
GlyphClass: 1
Flags: W
LayerCount: 2
Fore
SplineSet
115 250 m 0
 110 250 104 252 100 254 c 128
 96 256 94 260 94 265 c 0
 94 268 95 270 96 273 c 2
 313 608 l 1
 320 608 l 1
 539 273 l 2
 542 268 542 263 539 258 c 128
 536 253 529 250 520 250 c 256
 511 250 502 253 494 260 c 128
 486 267 478 274 472 283 c 2
 321 503 l 2
 318 506 316 508 315 508 c 128
 314 508 312 506 311 503 c 2
 164 283 l 2
 157 274 150 266 142 260 c 128
 134 254 124 250 115 250 c 0
EndSplineSet
EndChar

StartChar: percent
Encoding: 37 37 90
Width: 600
GlyphClass: 1
Flags: W
LayerCount: 2
Fore
SplineSet
406 -17 m 0
 385 -17 367 -9 353 6 c 128
 339 21 332 43 330 74 c 128
 328 105 335 143 349 188 c 0
 358 214 370 238 386 261 c 128
 402 284 421 302 443 316 c 128
 465 330 487 336 511 336 c 0
 534 336 552 328 564 312 c 128
 576 296 583 273 584 244 c 128
 585 215 579 180 567 140 c 0
 557 107 544 79 527 56 c 128
 510 33 492 15 471 2 c 128
 450 -11 429 -17 406 -17 c 0
413 17 m 0
 420 17 427 23 436 36 c 128
 445 49 454 65 462 84 c 128
 470 103 477 123 483 143 c 0
 490 164 495 185 500 204 c 128
 505 223 508 239 510 254 c 128
 512 269 512 280 511 289 c 128
 510 298 506 302 501 302 c 0
 494 302 487 296 478 283 c 128
 469 270 461 254 452 234 c 128
 443 214 436 192 429 170 c 256
 422 148 416 128 412 109 c 128
 408 90 405 74 403 60 c 128
 401 46 401 36 403 28 c 128
 405 20 408 17 413 17 c 0
83 -19 m 0
 74 -19 69 -15 66 -6 c 128
 63 3 65 10 70 17 c 2
 597 653 l 2
 601 658 608 662 616 665 c 128
 624 668 631 669 638 669 c 0
 647 669 652 666 655 659 c 128
 658 652 657 646 652 640 c 2
 127 8 l 2
 119 -1 113 -8 106 -12 c 128
 99 -16 91 -19 83 -19 c 0
172 263 m 0
 151 263 133 271 120 286 c 128
 107 301 100 323 98 354 c 128
 96 385 102 423 116 468 c 0
 125 494 137 518 153 541 c 128
 169 564 187 582 209 596 c 128
 231 610 254 616 278 616 c 0
 301 616 318 608 331 592 c 128
 344 576 350 553 351 524 c 128
 352 495 346 460 334 420 c 0
 324 387 311 359 294 336 c 128
 277 313 258 295 237 282 c 128
 216 269 195 263 172 263 c 0
180 297 m 0
 187 297 194 303 203 316 c 128
 212 329 220 345 228 364 c 128
 236 383 244 403 250 423 c 0
 257 444 262 465 267 484 c 128
 272 503 276 519 278 534 c 128
 280 549 280 560 279 569 c 128
 278 578 274 582 269 582 c 0
 262 582 255 576 246 563 c 128
 237 550 228 534 219 514 c 128
 210 494 202 472 196 450 c 256
 189 428 184 408 179 389 c 128
 174 370 171 354 169 340 c 128
 167 326 167 316 169 308 c 128
 171 300 175 297 180 297 c 0
EndSplineSet
EndChar

StartChar: at
Encoding: 64 64 91
Width: 600
GlyphClass: 1
Flags: W
LayerCount: 2
Fore
SplineSet
208 -158 m 0
 167 -158 130 -148 100 -128 c 128
 70 -108 47 -80 31 -43 c 128
 15 -6 9 37 13 86 c 0
 17 137 27 184 45 230 c 128
 63 276 86 318 114 356 c 128
 142 394 174 428 209 456 c 128
 244 484 281 505 320 520 c 128
 359 535 399 543 439 543 c 0
 466 543 492 537 515 526 c 128
 538 515 559 500 575 480 c 128
 591 460 603 436 611 409 c 128
 619 382 622 352 619 320 c 0
 616 281 607 244 592 208 c 128
 577 172 557 141 533 113 c 128
 509 85 484 62 457 46 c 128
 430 30 403 22 376 22 c 0
 365 22 356 25 350 30 c 128
 344 35 340 42 338 49 c 128
 336 56 336 62 336 67 c 0
 337 78 336 82 333 80 c 128
 330 78 327 75 323 71 c 0
 317 65 308 58 297 50 c 128
 286 42 273 34 258 27 c 128
 243 20 228 17 212 17 c 0
 185 17 166 27 152 47 c 128
 138 67 132 92 134 123 c 0
 137 160 146 195 162 228 c 128
 178 261 198 289 223 314 c 128
 248 339 275 358 305 372 c 128
 335 386 365 392 396 390 c 0
 402 389 407 389 413 388 c 128
 419 387 426 385 431 383 c 0
 437 382 441 380 446 378 c 128
 451 376 455 375 457 374 c 0
 462 373 467 378 472 386 c 128
 477 394 482 398 487 398 c 0
 488 398 492 397 497 396 c 128
 502 395 508 394 513 392 c 128
 518 390 520 389 519 386 c 0
 510 371 500 353 490 332 c 128
 480 311 472 296 467 285 c 2
 405 146 l 2
 400 133 397 121 396 110 c 128
 395 99 401 94 414 94 c 0
 437 94 459 104 480 124 c 128
 501 144 519 171 533 204 c 128
 547 237 556 273 559 312 c 0
 562 347 558 377 548 402 c 128
 538 427 523 446 501 460 c 128
 479 474 452 481 419 481 c 0
 380 481 341 472 302 452 c 128
 263 432 227 404 194 370 c 128
 161 336 134 297 113 253 c 128
 92 209 79 163 75 114 c 0
 72 73 76 38 88 6 c 128
 100 -26 119 -51 143 -69 c 128
 167 -87 196 -96 231 -96 c 0
 266 -96 300 -90 332 -78 c 128
 364 -66 394 -50 420 -31 c 0
 428 -26 435 -22 441 -18 c 128
 447 -14 452 -12 456 -12 c 0
 459 -12 462 -13 464 -16 c 128
 466 -19 467 -24 466 -29 c 0
 466 -37 458 -48 443 -62 c 128
 428 -76 409 -91 384 -106 c 128
 359 -121 332 -133 302 -143 c 128
 272 -153 240 -158 208 -158 c 0
255 75 m 0
 264 75 273 78 282 84 c 128
 291 90 301 96 309 105 c 0
 315 110 319 117 324 124 c 128
 329 131 336 142 343 157 c 2
 390 264 l 2
 393 271 396 278 398 284 c 128
 400 290 401 296 401 301 c 0
 403 316 400 327 393 334 c 128
 386 341 373 345 356 345 c 0
 339 345 323 339 307 326 c 128
 291 313 278 296 265 276 c 128
 252 256 242 234 234 211 c 128
 226 188 221 165 219 144 c 256
 217 123 219 106 227 94 c 128
 235 82 244 75 255 75 c 0
EndSplineSet
EndChar

StartChar: ampersand
Encoding: 38 38 92
Width: 600
GlyphClass: 1
Flags: W
LayerCount: 2
Fore
SplineSet
292 -14 m 0
 248 -14 209 -2 176 20 c 128
 143 42 118 72 101 112 c 128
 84 152 77 198 82 250 c 0
 86 298 98 341 116 380 c 128
 134 419 156 451 182 474 c 128
 208 497 236 509 264 508 c 0
 292 507 313 498 324 480 c 128
 335 462 340 441 337 416 c 0
 335 399 330 384 322 370 c 128
 314 356 304 343 291 334 c 128
 278 325 264 321 249 321 c 0
 226 321 207 330 190 347 c 128
 173 364 162 388 154 419 c 128
 146 450 144 485 148 526 c 0
 151 563 161 595 177 624 c 128
 193 653 214 677 239 694 c 128
 264 711 291 719 319 718 c 0
 345 717 365 707 378 687 c 128
 391 667 396 640 393 607 c 0
 391 589 386 575 378 564 c 128
 370 553 360 547 348 547 c 0
 342 547 336 551 331 560 c 128
 326 569 324 578 325 587 c 0
 326 602 323 616 317 629 c 128
 311 642 303 648 293 648 c 0
 275 648 259 644 245 634 c 128
 231 624 219 610 210 592 c 128
 201 574 195 551 193 525 c 0
 183 418 203 365 252 365 c 0
 266 365 277 370 286 380 c 128
 295 390 301 404 302 419 c 0
 303 433 300 446 294 456 c 128
 288 466 277 471 262 471 c 0
 231 471 205 457 184 428 c 128
 163 399 151 360 146 312 c 0
 143 279 147 246 158 216 c 128
 169 186 188 162 216 143 c 128
 244 124 281 115 328 115 c 0
 368 115 402 124 432 142 c 128
 462 160 485 185 503 216 c 128
 521 247 531 282 535 320 c 0
 538 350 533 377 520 400 c 128
 507 423 485 433 455 432 c 0
 439 431 424 423 410 407 c 128
 396 391 389 373 387 353 c 0
 386 340 389 330 395 322 c 128
 401 314 409 310 420 310 c 0
 424 310 428 313 432 318 c 128
 438 326 439 326 445 334 c 256
 449 339 454 344 458 348 c 128
 462 352 465 353 470 353 c 0
 482 353 491 349 496 340 c 128
 501 331 502 320 501 307 c 0
 499 285 492 267 481 254 c 128
 470 241 455 234 440 234 c 0
 411 234 389 244 374 266 c 128
 359 288 353 316 356 350 c 0
 360 391 369 424 383 449 c 128
 397 474 415 493 436 505 c 128
 457 517 479 523 503 523 c 2
 559 523 l 2
 599 523 627 530 645 546 c 128
 663 562 673 588 676 624 c 0
 678 643 675 658 668 667 c 128
 661 676 653 681 645 681 c 0
 638 681 632 679 628 676 c 128
 624 673 623 669 623 664 c 0
 622 660 623 656 624 652 c 128
 625 648 627 644 630 641 c 0
 634 636 637 631 638 625 c 128
 639 619 641 613 640 606 c 0
 639 593 634 581 626 570 c 128
 618 559 607 553 594 553 c 0
 581 553 571 560 565 574 c 128
 559 588 557 603 559 620 c 0
 560 635 565 651 572 666 c 128
 579 681 588 693 600 703 c 128
 612 713 626 718 643 718 c 0
 662 718 679 708 692 688 c 128
 705 668 709 635 705 591 c 0
 703 562 696 534 685 509 c 128
 674 484 661 464 644 448 c 128
 627 432 610 423 590 422 c 0
 577 421 569 420 566 418 c 128
 563 416 563 413 564 409 c 0
 569 394 573 378 574 359 c 128
 575 340 574 322 572 304 c 0
 566 238 550 182 524 134 c 128
 498 86 465 49 425 24 c 128
 385 -1 341 -14 292 -14 c 0
EndSplineSet
EndChar

StartChar: bar
Encoding: 124 124 93
Width: 600
GlyphClass: 1
Flags: W
LayerCount: 2
Fore
SplineSet
266 -289 m 0
 260 -289 254 -286 250 -281 c 0
 246 -276 244 -270 244 -264 c 2
 244 650 l 2
 244 659 248 667 255 674 c 0
 262 681 272 687 282 692 c 0
 292 697 301 700 310 702 c 0
 319 704 325 705 327 705 c 0
 334 705 340 702 345 698 c 0
 350 694 353 689 353 682 c 2
 353 -245 l 2
 353 -255 349 -262 342 -268 c 0
 335 -274 326 -279 316 -282 c 0
 306 -285 295 -287 286 -288 c 0
 277 -289 270 -289 266 -289 c 0
EndSplineSet
EndChar

StartChar: grave
Encoding: 96 96 94
Width: 600
GlyphClass: 1
Flags: W
LayerCount: 2
Fore
SplineSet
483 470 m 0
 478 470 473 472 468 475 c 128
 463 478 458 482 453 487 c 2
 346 607 l 2
 339 614 334 622 330 628 c 128
 326 634 323 640 323 646 c 0
 323 653 327 660 334 667 c 128
 341 674 349 680 358 686 c 128
 367 692 375 695 382 695 c 0
 389 695 396 692 402 687 c 128
 408 682 413 673 419 660 c 2
 492 502 l 2
 495 495 497 487 496 480 c 128
 495 473 491 470 483 470 c 0
EndSplineSet
EndChar

StartChar: hyphenminus.ss01
Encoding: 65536 -1 95
Width: 600
Flags: W
LayerCount: 2
Fore
SplineSet
171 164 m 0
 167 163 164 164 162 167 c 128
 160 170 159 173 159 176 c 0
 159 194 164 208 174 219 c 128
 184 230 193 236 201 237 c 0
 238 242 277 247 318 252 c 128
 359 257 397 262 433 265 c 0
 440 266 443 264 444 261 c 128
 445 258 446 254 446 249 c 0
 446 243 444 236 440 228 c 128
 436 220 430 212 424 206 c 128
 418 200 413 195 407 194 c 0
 370 189 331 184 289 178 c 128
 247 172 208 167 171 164 c 0
EndSplineSet
EndChar

StartChar: zero.ss01
Encoding: 65537 -1 96
Width: 600
Flags: W
LayerCount: 2
Fore
SplineSet
273 -14 m 0
 238 -14 208 -6 184 10 c 0
 160 26 142 50 130 80 c 0
 118 110 113 143 114 181 c 0
 115 219 122 259 135 302 c 0
 148 347 167 388 190 428 c 0
 213 468 240 503 270 533 c 0
 300 563 334 586 370 604 c 0
 406 622 445 631 484 631 c 0
 521 631 551 623 575 606 c 0
 599 589 616 565 628 536 c 0
 640 507 645 474 644 436 c 0
 643 398 636 358 623 317 c 0
 608 270 589 226 565 186 c 0
 541 146 513 111 482 81 c 0
 451 51 418 28 382 11 c 0
 346 -6 310 -14 273 -14 c 0
298 26 m 0
 313 26 328 33 344 48 c 0
 360 63 375 84 390 110 c 0
 405 136 420 164 434 197 c 0
 448 230 459 264 470 299 c 0
 481 334 490 368 496 402 c 0
 502 436 506 468 506 496 c 0
 506 524 502 546 495 563 c 0
 488 580 476 588 459 588 c 0
 438 588 418 575 397 550 c 0
 376 525 357 492 338 451 c 0
 319 410 303 366 289 319 c 0
 278 284 270 250 263 216 c 0
 256 182 253 150 252 121 c 0
 251 92 255 69 262 52 c 0
 269 35 281 26 298 26 c 0
EndSplineSet
EndChar

StartChar: h.ss01
Encoding: 65538 -1 97
Width: 600
Flags: W
LayerCount: 2
Fore
SplineSet
118 -15 m 0
 112 -15 104 -13 96 -9 c 128
 88 -5 81 1 74 8 c 128
 67 15 64 24 64 33 c 0
 64 44 66 55 68 66 c 128
 70 77 73 90 78 105 c 2
 212 539 l 2
 215 549 218 559 220 569 c 128
 222 579 223 588 223 596 c 0
 223 605 218 612 210 617 c 128
 202 622 193 626 184 629 c 0
 179 630 175 632 171 634 c 128
 167 636 165 640 165 644 c 0
 165 647 167 651 170 654 c 128
 173 657 180 660 191 665 c 0
 199 667 210 670 226 675 c 128
 242 680 259 685 276 690 c 128
 293 695 310 699 324 702 c 128
 338 705 348 707 353 707 c 256
 358 707 364 707 370 706 c 128
 376 705 379 701 379 694 c 0
 379 686 378 679 376 673 c 128
 374 667 373 661 370 654 c 2
 231 229 l 2
 230 224 230 222 233 222 c 128
 236 222 238 223 241 227 c 0
 266 265 292 300 320 332 c 128
 348 364 376 388 404 406 c 128
 432 424 460 434 487 434 c 0
 514 434 534 425 548 408 c 128
 562 391 569 371 569 346 c 0
 569 311 565 278 556 246 c 128
 547 214 534 183 519 154 c 128
 504 125 487 99 468 76 c 0
 463 70 455 62 442 52 c 128
 429 42 414 32 398 22 c 128
 382 12 365 3 350 -4 c 128
 335 -11 324 -14 317 -14 c 0
 308 -14 299 -11 290 -6 c 128
 281 -1 273 6 266 13 c 128
 259 20 256 27 256 32 c 0
 256 35 258 40 262 48 c 128
 266 56 270 63 275 70 c 128
 280 77 286 80 291 80 c 0
 298 80 304 78 308 75 c 128
 312 72 316 67 321 62 c 0
 326 58 331 54 336 50 c 128
 341 46 347 43 354 43 c 256
 361 43 368 50 376 64 c 128
 384 78 391 94 398 116 c 128
 405 138 412 162 418 187 c 128
 424 212 428 238 431 262 c 128
 434 286 436 307 436 324 c 0
 436 335 434 344 430 351 c 128
 426 358 419 361 410 361 c 0
 401 361 390 354 377 340 c 128
 364 326 350 308 334 285 c 128
 318 262 301 236 284 208 c 128
 258 166 258 164 232 122 c 128
 215 94 198 68 182 43 c 0
 170 23 159 8 148 -1 c 128
 137 -10 127 -15 118 -15 c 0
EndSplineSet
EndChar

StartChar: exclamdown
Encoding: 161 161 99
Width: 600
Flags: W
LayerCount: 2
Fore
SplineSet
332 302 m 0
 341 302 346 298 348 290 c 128
 350 282 350 270 347 252 c 0
 340 215 334 180 328 148 c 128
 322 116 316 86 310 59 c 128
 304 32 299 10 295 -10 c 128
 291 -30 288 -46 285 -58 c 0
 281 -77 274 -95 265 -112 c 128
 256 -129 244 -142 231 -153 c 128
 218 -164 203 -169 186 -169 c 0
 174 -169 163 -164 154 -154 c 128
 145 -144 139 -128 138 -109 c 128
 137 -90 141 -67 151 -40 c 0
 153 -33 158 -21 166 -3 c 128
 174 15 184 37 196 63 c 128
 208 89 223 118 238 150 c 128
 253 182 270 217 287 252 c 0
 294 267 302 279 309 288 c 128
 316 297 324 302 332 302 c 0
387 494 m 0
 404 494 418 488 429 476 c 128
 440 464 446 451 446 436 c 0
 446 414 438 394 420 376 c 128
 402 358 381 350 357 350 c 0
 337 350 322 357 311 370 c 128
 300 383 295 397 295 412 c 0
 295 434 304 454 322 470 c 128
 340 486 362 494 387 494 c 0
EndSplineSet
EndChar

StartChar: cent
Encoding: 162 162 100
Width: 600
Flags: W
LayerCount: 2
Fore
SplineSet
204 -82 m 256
 199 -82 194 -80 191 -76 c 128
 188 -72 187 -68 190 -63 c 2
 212 -11 l 1
 177 -2 150 18 130 46 c 128
 110 74 100 109 100 150 c 0
 100 183 108 215 123 248 c 128
 138 281 159 312 186 340 c 128
 213 368 245 389 280 406 c 128
 315 423 353 432 393 432 c 1
 416 487 l 2
 419 494 423 498 430 502 c 128
 437 506 444 508 450 508 c 0
 455 508 459 506 461 502 c 128
 463 498 463 493 460 487 c 2
 437 431 l 1
 453 430 470 426 487 419 c 128
 504 412 519 404 531 394 c 128
 543 384 549 373 549 362 c 0
 548 354 544 346 536 338 c 128
 528 330 519 322 508 316 c 128
 497 310 487 308 478 308 c 0
 471 308 465 310 460 312 c 128
 455 314 450 318 447 324 c 0
 442 336 437 346 432 354 c 128
 427 362 421 369 414 373 c 1
 304 104 l 1
 307 103 312 102 316 102 c 128
 320 102 324 102 329 102 c 0
 353 102 377 107 401 116 c 128
 425 125 444 137 459 153 c 0
 464 159 470 162 476 162 c 256
 482 162 484 158 484 152 c 128
 484 146 482 140 478 133 c 0
 452 88 421 53 385 28 c 128
 349 3 306 -11 255 -14 c 1
 235 -63 l 2
 232 -68 227 -72 221 -76 c 128
 215 -80 209 -82 204 -82 c 256
263 114 m 1
 373 381 l 1
 351 380 330 375 312 364 c 128
 294 353 278 338 264 320 c 128
 250 302 240 284 233 262 c 128
 226 240 222 218 222 196 c 0
 222 178 226 162 233 147 c 128
 240 132 250 121 263 114 c 1
EndSplineSet
EndChar

StartChar: sterling
Encoding: 163 163 101
Width: 600
Flags: W
LayerCount: 2
Fore
SplineSet
104 288 m 2
 100 287 96 288 92 292 c 128
 88 296 86 300 86 304 c 0
 86 310 90 317 96 325 c 128
 102 333 110 337 118 338 c 2
 471 362 l 2
 476 363 481 361 484 357 c 128
 487 353 488 349 487 346 c 0
 487 341 483 334 475 326 c 128
 467 318 458 313 449 312 c 2
 104 288 l 2
327 -37 m 0
 300 -37 275 -32 255 -21 c 128
 235 -10 217 1 200 14 c 0
 183 27 170 40 155 51 c 128
 140 62 126 68 109 68 c 1
 91 54 74 41 62 30 c 128
 50 19 39 7 27 -5 c 0
 21 -12 13 -14 3 -13 c 128
 -7 -12 -15 -7 -23 0 c 128
 -31 7 -34 16 -34 25 c 0
 -34 39 -27 54 -12 70 c 128
 3 86 22 99 44 110 c 128
 66 121 90 126 115 127 c 1
 130 149 144 174 156 200 c 128
 168 226 178 254 189 285 c 128
 200 316 210 348 220 382 c 0
 235 428 257 470 283 507 c 128
 309 544 341 574 380 596 c 128
 419 618 465 629 515 629 c 0
 552 629 580 624 600 612 c 128
 620 600 633 585 639 568 c 128
 645 551 644 534 639 517 c 128
 634 500 625 486 611 474 c 128
 597 462 581 456 562 456 c 0
 555 456 551 458 549 460 c 128
 547 462 545 465 546 470 c 0
 546 475 550 483 557 492 c 128
 564 501 567 514 568 532 c 0
 569 547 564 560 556 571 c 128
 548 582 535 588 518 588 c 0
 502 588 487 584 475 576 c 128
 463 568 452 556 440 538 c 128
 428 520 416 496 404 466 c 128
 392 436 378 400 364 356 c 0
 353 325 341 295 325 266 c 128
 309 237 292 212 271 190 c 128
 250 168 227 152 201 141 c 0
 200 140 199 139 199 138 c 128
 199 137 198 135 200 134 c 0
 224 134 245 129 261 120 c 128
 277 111 292 100 305 89 c 0
 319 77 331 66 344 56 c 128
 357 46 373 40 392 40 c 256
 411 40 429 46 447 58 c 128
 465 70 472 86 472 108 c 0
 472 119 469 128 464 134 c 128
 459 140 457 148 457 157 c 0
 457 169 462 178 471 185 c 128
 480 192 489 195 498 195 c 0
 513 195 523 190 531 182 c 128
 539 174 542 160 542 141 c 256
 542 122 537 102 527 81 c 128
 517 60 504 42 485 24 c 128
 466 6 444 -9 418 -20 c 128
 392 -31 361 -37 327 -37 c 0
EndSplineSet
EndChar

StartChar: currency
Encoding: 164 164 102
Width: 600
Flags: W
LayerCount: 2
Fore
SplineSet
259 58 m 0
 227 58 199 64 176 77 c 128
 153 90 136 108 124 130 c 128
 112 152 105 177 105 205 c 0
 105 238 112 271 128 303 c 128
 144 335 165 364 192 390 c 128
 219 416 248 436 282 451 c 128
 316 466 351 474 387 474 c 0
 422 474 450 468 472 454 c 128
 494 440 511 422 522 399 c 128
 533 376 539 352 539 325 c 0
 539 295 533 264 520 233 c 128
 507 202 488 172 464 146 c 128
 440 120 410 98 375 82 c 128
 340 66 302 58 259 58 c 0
75 52 m 0
 67 52 60 57 52 67 c 128
 44 77 41 86 42 93 c 0
 43 96 47 100 53 105 c 2
 130 163 l 1
 164 113 l 1
 87 56 l 2
 84 54 82 52 80 52 c 128
 78 52 77 52 75 52 c 0
445 52 m 0
 440 53 435 56 430 63 c 2
 382 128 l 1
 430 164 l 1
 479 98 l 2
 482 95 484 92 484 90 c 128
 484 88 484 87 484 86 c 0
 484 78 480 70 471 63 c 128
 462 56 454 52 445 52 c 0
277 117 m 0
 304 117 328 123 352 134 c 128
 376 145 398 159 417 177 c 128
 436 195 451 216 462 239 c 128
 473 262 478 286 478 310 c 0
 478 340 468 365 449 385 c 128
 430 405 403 415 369 415 c 0
 342 415 316 409 292 398 c 128
 268 387 247 373 228 354 c 128
 209 335 195 315 184 292 c 128
 173 269 167 246 167 223 c 0
 167 193 177 168 196 148 c 128
 215 128 242 117 277 117 c 0
214 365 m 1
 158 440 l 2
 157 443 156 445 156 447 c 0
 156 454 162 462 172 470 c 128
 182 478 191 482 200 480 c 0
 203 479 206 478 208 475 c 2
 262 401 l 1
 214 365 l 1
512 377 m 1
 475 425 l 1
 545 476 l 2
 548 477 550 478 552 479 c 128
 554 480 556 480 558 480 c 0
 568 480 577 476 584 467 c 128
 591 458 594 450 592 441 c 0
 591 438 590 435 588 432 c 2
 512 377 l 1
EndSplineSet
EndChar

StartChar: yen
Encoding: 165 165 103
Width: 600
Flags: W
LayerCount: 2
Fore
SplineSet
107 -6 m 0
 99 -6 93 -5 90 -2 c 128
 87 1 86 5 87 10 c 0
 89 16 91 21 98 24 c 128
 105 27 113 30 121 31 c 0
 146 36 165 45 178 58 c 128
 191 71 201 89 207 110 c 2
 230 184 l 1
 128 184 l 2
 124 184 121 186 117 189 c 128
 113 192 111 196 112 201 c 0
 113 206 117 213 123 221 c 128
 129 229 137 233 144 233 c 2
 245 232 l 1
 250 248 l 2
 252 253 253 258 254 262 c 128
 255 266 257 270 257 274 c 1
 159 274 l 2
 155 274 151 276 148 280 c 128
 145 284 144 287 144 291 c 0
 145 297 149 304 155 312 c 128
 161 320 168 323 176 323 c 2
 258 323 l 1
 258 328 257 332 256 336 c 128
 255 340 254 345 253 349 c 2
 202 555 l 2
 198 570 193 583 186 594 c 128
 179 605 166 613 150 618 c 0
 145 620 142 623 138 626 c 128
 134 629 133 633 135 640 c 0
 137 645 139 648 144 650 c 128
 149 652 153 654 158 654 c 0
 184 654 209 653 229 651 c 128
 249 649 273 648 300 648 c 0
 317 648 335 649 353 651 c 128
 371 653 390 654 410 654 c 0
 416 654 421 652 425 650 c 128
 429 648 432 645 430 640 c 0
 428 635 425 630 418 626 c 128
 411 622 405 620 399 619 c 0
 372 612 354 604 346 593 c 128
 338 582 334 567 338 546 c 2
 367 371 l 2
 370 360 371 353 373 350 c 128
 375 347 378 345 380 345 c 256
 382 345 386 347 389 350 c 128
 392 353 398 359 403 366 c 0
 417 383 431 401 446 420 c 128
 461 439 478 460 493 480 c 128
 508 500 523 519 537 538 c 0
 555 559 561 577 560 592 c 128
 559 607 546 615 523 618 c 0
 516 619 512 622 507 626 c 128
 502 630 500 634 502 640 c 0
 504 645 506 648 513 650 c 128
 520 652 527 653 533 653 c 0
 551 653 566 652 581 651 c 128
 596 650 610 649 627 649 c 0
 646 649 662 650 678 652 c 128
 694 654 711 656 728 656 c 0
 735 656 741 655 745 653 c 128
 749 651 751 647 750 640 c 0
 748 634 744 630 738 628 c 128
 732 626 726 623 719 620 c 0
 706 617 692 612 680 605 c 128
 668 598 656 589 645 580 c 128
 634 571 625 561 617 551 c 0
 587 516 559 482 530 448 c 128
 501 414 474 383 446 352 c 0
 442 347 439 341 434 336 c 128
 429 331 428 327 424 322 c 1
 513 322 l 2
 518 322 521 320 524 316 c 128
 527 312 528 307 527 304 c 0
 525 299 520 293 512 285 c 128
 504 277 495 273 486 273 c 2
 400 273 l 1
 387 232 l 1
 486 231 l 2
 490 231 493 229 496 225 c 128
 499 221 500 217 499 214 c 0
 497 209 492 202 484 194 c 128
 476 186 468 183 459 183 c 2
 372 183 l 1
 350 110 l 2
 342 85 341 68 347 58 c 128
 353 48 365 38 387 31 c 0
 394 29 400 27 404 24 c 128
 408 21 410 17 408 11 c 0
 406 6 403 3 398 0 c 128
 393 -3 385 -5 378 -5 c 0
 365 -5 352 -4 335 -3 c 128
 318 -2 302 -1 286 0 c 128
 270 1 257 2 245 2 c 0
 232 2 217 1 201 0 c 128
 185 -1 170 -2 153 -4 c 128
 136 -6 121 -6 107 -6 c 0
EndSplineSet
EndChar

StartChar: brokenbar
Encoding: 166 166 104
Width: 600
Flags: W
LayerCount: 2
Fore
SplineSet
267 -290 m 0
 261 -290 256 -287 252 -282 c 128
 248 -277 245 -271 245 -265 c 2
 245 130 l 2
 245 139 249 147 256 154 c 128
 263 161 272 166 282 170 c 128
 292 174 302 178 311 180 c 128
 320 182 325 184 328 184 c 0
 335 184 341 181 346 176 c 128
 351 171 353 166 353 159 c 2
 353 -246 l 2
 353 -256 349 -264 342 -270 c 128
 335 -276 326 -279 316 -282 c 128
 306 -285 296 -287 287 -288 c 128
 278 -289 271 -290 267 -290 c 0
265 255 m 0
 259 255 254 258 250 264 c 128
 246 270 243 276 243 283 c 2
 243 649 l 2
 243 659 247 667 254 674 c 128
 261 681 270 687 280 692 c 128
 290 697 301 700 310 702 c 128
 319 704 324 705 326 705 c 0
 333 705 339 703 344 698 c 128
 349 693 352 688 352 681 c 2
 352 299 l 2
 352 290 348 282 341 276 c 128
 334 270 324 267 314 264 c 128
 304 261 294 258 285 257 c 128
 276 256 269 255 265 255 c 0
EndSplineSet
EndChar

StartChar: section
Encoding: 167 167 105
Width: 600
Flags: W
LayerCount: 2
Fore
SplineSet
121 -148 m 0
 101 -148 85 -145 72 -139 c 128
 59 -133 52 -125 52 -116 c 0
 52 -107 56 -98 63 -86 c 128
 70 -74 80 -63 90 -54 c 128
 100 -45 109 -41 116 -41 c 0
 123 -42 130 -44 136 -48 c 128
 142 -52 149 -56 156 -61 c 256
 163 -66 171 -71 180 -75 c 128
 189 -79 200 -81 213 -81 c 0
 228 -81 241 -78 252 -70 c 128
 263 -62 272 -51 278 -38 c 128
 284 -25 288 -11 288 5 c 0
 288 32 281 59 266 84 c 128
 251 109 234 133 217 157 c 0
 200 181 186 205 172 229 c 128
 158 253 151 278 151 303 c 0
 151 333 156 360 168 383 c 128
 180 406 196 428 216 448 c 128
 236 468 256 485 279 502 c 1
 294 527 312 551 334 572 c 128
 356 593 379 610 404 622 c 128
 429 634 453 640 478 640 c 0
 493 640 508 638 523 634 c 128
 538 630 551 625 561 618 c 128
 571 611 576 604 576 595 c 0
 576 588 571 579 562 568 c 128
 553 557 543 548 532 539 c 128
 521 530 513 526 507 526 c 0
 502 526 498 528 492 534 c 128
 486 540 480 547 473 554 c 0
 466 561 458 566 450 572 c 128
 442 578 432 581 422 581 c 0
 409 581 396 577 384 570 c 128
 372 563 363 554 356 543 c 128
 349 532 345 519 345 505 c 0
 345 482 352 459 368 436 c 128
 384 413 401 390 420 366 c 0
 437 344 451 320 464 296 c 128
 477 272 483 246 483 218 c 0
 483 178 472 137 449 96 c 128
 426 55 398 16 363 -20 c 0
 338 -45 313 -68 286 -87 c 128
 259 -106 231 -121 203 -132 c 128
 175 -143 148 -148 121 -148 c 0
357 63 m 0
 357 60 358 60 361 60 c 128
 364 60 365 61 366 63 c 0
 375 78 382 94 388 110 c 128
 394 126 397 141 398 157 c 0
 400 185 396 211 386 234 c 128
 376 257 362 279 347 301 c 0
 337 315 328 330 318 344 c 128
 308 358 299 373 292 388 c 128
 285 403 281 418 279 434 c 0
 279 437 278 438 276 437 c 128
 274 436 272 435 270 434 c 0
 259 423 250 409 244 394 c 128
 238 379 234 359 234 336 c 0
 234 315 240 294 253 273 c 128
 266 252 280 229 296 206 c 0
 305 192 314 177 324 161 c 128
 334 145 342 128 348 112 c 128
 354 96 357 80 357 63 c 0
EndSplineSet
EndChar

StartChar: dieresis
Encoding: 168 168 106
Width: 600
Flags: W
LayerCount: 2
Fore
SplineSet
487 495 m 4
 472 495 459 500 450 510 c 132
 441 520 436 533 436 549 c 4
 436 566 441 581 450 594 c 132
 459 607 470 618 484 626 c 132
 498 634 514 638 530 638 c 4
 547 638 560 633 570 623 c 132
 580 613 585 600 585 584 c 4
 585 560 575 540 556 522 c 132
 537 504 514 495 487 495 c 4
289 495 m 4
 274 495 261 500 252 510 c 132
 243 520 238 533 238 549 c 4
 238 566 243 581 252 594 c 132
 261 607 272 618 286 626 c 132
 300 634 316 638 332 638 c 4
 349 638 362 633 372 623 c 132
 382 613 387 600 387 584 c 4
 387 560 377 540 358 522 c 132
 339 504 316 495 289 495 c 4
EndSplineSet
EndChar

StartChar: copyright
Encoding: 169 169 107
Width: 600
Flags: W
LayerCount: 2
Fore
SplineSet
330 15 m 0
 293 15 257 24 224 40 c 128
 191 56 162 78 137 106 c 128
 112 134 92 168 78 206 c 128
 64 244 57 284 57 327 c 0
 57 370 64 410 78 448 c 128
 92 486 113 520 138 548 c 128
 163 576 192 598 225 614 c 128
 258 630 294 639 331 639 c 0
 369 639 405 630 438 614 c 128
 471 598 499 576 524 548 c 128
 549 520 568 486 582 448 c 128
 596 410 604 370 604 327 c 0
 604 284 596 244 582 206 c 128
 568 168 549 134 524 106 c 128
 499 78 469 56 436 40 c 128
 403 24 368 15 330 15 c 0
342 134 m 0
 308 134 277 142 248 158 c 128
 219 174 195 196 178 224 c 128
 161 252 152 284 152 321 c 0
 152 354 160 385 177 414 c 128
 194 443 218 467 248 485 c 128
 278 503 314 512 355 512 c 0
 372 512 388 510 405 506 c 128
 422 502 436 495 447 488 c 0
 450 487 453 484 455 482 c 128
 457 480 458 477 459 472 c 0
 461 456 462 443 462 432 c 128
 462 416 462 415 462 395 c 0
 462 388 460 384 457 380 c 128
 454 376 450 374 445 374 c 0
 442 374 438 375 435 378 c 128
 432 381 429 385 428 390 c 0
 425 397 423 404 421 410 c 128
 419 416 416 423 411 429 c 0
 405 436 397 442 388 448 c 128
 379 454 367 457 352 457 c 0
 323 457 301 445 288 420 c 128
 275 395 268 365 268 331 c 0
 268 302 271 276 276 255 c 128
 281 234 290 218 302 206 c 128
 314 194 331 188 352 188 c 256
 373 188 390 193 402 203 c 128
 414 213 423 230 432 254 c 0
 435 260 438 264 442 266 c 128
 446 268 449 268 453 267 c 0
 461 265 465 258 465 247 c 0
 465 233 464 222 462 212 c 128
 460 202 458 190 455 175 c 0
 454 170 452 168 450 168 c 128
 448 168 444 166 441 164 c 0
 429 157 414 151 398 144 c 128
 382 137 363 134 342 134 c 0
330 68 m 0
 361 68 390 74 417 88 c 128
 444 102 468 120 488 144 c 128
 508 168 524 196 536 227 c 128
 548 258 553 292 553 327 c 0
 553 362 548 394 536 425 c 128
 524 456 508 483 488 506 c 128
 468 529 444 547 417 560 c 128
 390 573 362 580 331 580 c 0
 300 580 271 573 244 560 c 128
 217 547 194 529 174 506 c 128
 154 483 137 456 126 425 c 128
 115 394 109 362 109 327 c 0
 109 292 115 258 126 227 c 128
 137 196 154 168 174 144 c 128
 194 120 217 102 244 88 c 128
 271 74 299 68 330 68 c 0
EndSplineSet
EndChar

StartChar: ordfeminine
Encoding: 170 170 108
Width: 600
Flags: W
LayerCount: 2
Fore
SplineSet
163 159 m 2
 158 159 154 160 151 164 c 128
 148 168 146 171 146 174 c 0
 146 179 150 186 156 193 c 128
 162 200 169 204 177 204 c 2
 406 204 l 2
 410 204 414 203 417 200 c 128
 420 197 422 194 422 189 c 0
 422 182 417 176 408 169 c 128
 399 162 391 159 382 159 c 2
 163 159 l 2
254 283 m 0
 237 283 222 288 210 298 c 128
 198 308 192 319 192 332 c 0
 192 356 200 374 215 386 c 128
 230 398 250 408 275 416 c 2
 348 440 l 2
 359 443 366 447 369 450 c 128
 372 453 375 458 377 467 c 2
 383 489 l 2
 386 500 387 509 386 516 c 128
 385 523 379 526 368 526 c 0
 363 526 357 525 351 523 c 128
 345 521 340 518 336 514 c 0
 332 511 330 506 330 500 c 128
 330 494 328 489 327 485 c 0
 326 482 322 480 315 476 c 128
 308 472 299 469 290 466 c 128
 281 463 272 460 264 458 c 128
 256 456 249 455 245 455 c 0
 242 455 240 457 240 461 c 128
 240 465 241 469 244 474 c 0
 249 482 254 490 261 498 c 128
 268 506 278 513 291 522 c 0
 302 528 315 535 330 542 c 128
 345 549 360 554 376 559 c 128
 392 564 408 566 422 566 c 0
 450 566 470 557 481 540 c 128
 492 523 494 501 485 473 c 2
 448 364 l 2
 445 356 443 348 444 340 c 128
 445 332 450 329 457 329 c 0
 461 329 464 330 468 332 c 128
 472 334 475 336 478 338 c 0
 480 339 482 340 484 340 c 0
 485 340 487 340 488 338 c 128
 489 336 490 334 490 333 c 0
 490 328 487 323 481 318 c 128
 475 313 470 309 467 307 c 0
 458 301 448 295 437 290 c 128
 426 285 414 283 401 283 c 0
 389 283 379 285 372 288 c 128
 365 291 358 296 354 302 c 128
 350 308 347 314 344 321 c 1
 343 321 l 1
 333 312 321 304 306 296 c 128
 291 288 273 283 254 283 c 0
310 332 m 0
 313 332 316 333 320 334 c 128
 324 335 327 337 329 338 c 256
 331 339 333 341 334 343 c 128
 335 345 337 348 338 351 c 2
 357 406 l 2
 358 410 358 413 356 414 c 128
 354 415 350 415 347 414 c 0
 332 409 321 402 312 395 c 128
 303 388 297 376 293 359 c 0
 291 353 291 347 294 341 c 128
 297 335 302 332 310 332 c 0
EndSplineSet
EndChar

StartChar: guillemotleft
Encoding: 171 171 109
Width: 600
Flags: W
LayerCount: 2
Fore
SplineSet
478 16 m 4
 472 16 465 19 460 24 c 132
 452 32 453 32 449 36 c 4
 435 53 422 68 408 82 c 132
 394 96 381 108 367 120 c 132
 353 132 338 142 323 153 c 132
 308 164 293 175 275 186 c 4
 268 191 261 196 258 198 c 132
 255 200 253 203 253 207 c 4
 254 212 256 216 261 220 c 132
 266 224 272 226 275 227 c 4
 314 245 349 263 382 282 c 132
 415 301 446 320 476 340 c 132
 506 360 538 383 570 406 c 4
 573 409 576 412 580 414 c 132
 584 416 588 417 593 417 c 4
 601 417 604 414 602 408 c 132
 600 402 597 395 592 388 c 4
 566 359 541 333 516 312 c 132
 491 291 469 273 447 258 c 132
 425 243 405 229 385 216 c 4
 380 212 378 210 377 208 c 132
 376 206 379 203 382 200 c 4
 393 187 406 173 418 158 c 132
 430 143 441 126 453 107 c 132
 465 88 476 67 486 43 c 4
 489 36 489 30 486 24 c 132
 483 18 481 16 478 16 c 4
274 16 m 4
 268 16 261 19 256 24 c 132
 248 32 249 32 245 36 c 4
 231 53 218 68 204 82 c 132
 190 96 177 108 163 120 c 132
 149 132 134 142 119 153 c 132
 104 164 90 175 72 186 c 4
 65 191 58 196 55 198 c 132
 52 200 49 203 49 207 c 4
 50 212 53 216 58 220 c 132
 63 224 69 226 72 227 c 4
 111 245 145 263 178 282 c 132
 211 301 242 320 272 340 c 132
 302 360 335 383 367 406 c 4
 370 409 372 412 376 414 c 132
 380 416 384 417 389 417 c 4
 397 417 401 414 399 408 c 132
 397 402 393 395 388 388 c 4
 362 359 338 333 313 312 c 132
 288 291 266 273 244 258 c 132
 222 243 202 229 182 216 c 4
 177 212 175 210 174 208 c 132
 173 206 176 203 179 200 c 4
 190 187 202 173 214 158 c 132
 226 143 238 126 250 107 c 132
 262 88 273 67 283 43 c 4
 286 36 286 30 283 24 c 132
 280 18 277 16 274 16 c 4
EndSplineSet
EndChar

StartChar: logicalnot
Encoding: 172 172 110
Width: 600
Flags: W
LayerCount: 2
Fore
SplineSet
498 42 m 0
 495 42 491 44 488 48 c 128
 485 52 483 56 483 61 c 2
 483 300 l 2
 483 311 478 316 469 316 c 2
 53 316 l 2
 48 316 44 318 40 321 c 128
 36 324 34 328 34 331 c 0
 34 336 35 343 37 352 c 128
 39 361 43 370 48 377 c 128
 53 384 59 388 67 388 c 2
 538 388 l 2
 545 388 550 386 552 382 c 128
 554 378 555 373 555 368 c 2
 555 74 l 2
 555 67 551 61 544 56 c 128
 537 51 529 47 520 45 c 128
 511 43 503 42 498 42 c 0
EndSplineSet
EndChar

StartChar: registered
Encoding: 174 174 112
Width: 600
Flags: W
LayerCount: 2
Fore
SplineSet
329 15 m 0
 294 15 260 24 228 40 c 128
 196 56 169 78 145 106 c 128
 121 134 102 168 89 206 c 128
 76 244 69 284 69 327 c 0
 69 370 76 410 90 448 c 128
 104 486 122 520 146 548 c 128
 170 576 196 598 228 614 c 128
 260 630 294 639 330 639 c 0
 366 639 400 630 431 614 c 128
 462 598 490 576 514 548 c 128
 538 520 556 486 570 448 c 128
 584 410 590 370 590 327 c 0
 590 284 584 244 570 206 c 128
 556 168 537 134 513 106 c 128
 489 78 461 56 430 40 c 128
 399 24 365 15 329 15 c 0
329 68 m 0
 358 68 386 74 412 88 c 128
 438 102 461 120 480 144 c 128
 499 168 513 196 524 227 c 128
 535 258 541 292 541 327 c 0
 541 362 535 394 524 425 c 128
 513 456 498 483 479 506 c 128
 460 529 437 547 412 560 c 128
 387 573 359 580 330 580 c 0
 301 580 274 573 248 560 c 128
 222 547 199 529 180 506 c 128
 161 483 145 456 134 425 c 128
 123 394 118 362 118 327 c 0
 118 292 123 258 134 227 c 128
 145 196 161 168 180 144 c 128
 199 120 222 102 248 88 c 128
 274 74 300 68 329 68 c 0
433 170 m 0
 424 170 415 174 405 181 c 128
 395 188 385 198 374 211 c 128
 363 224 353 238 344 255 c 128
 335 272 326 289 319 308 c 0
 318 311 316 314 314 316 c 128
 312 318 310 318 308 318 c 0
 306 318 305 317 304 316 c 128
 303 315 303 312 303 309 c 2
 303 227 l 2
 303 217 306 210 311 206 c 128
 316 202 325 198 337 195 c 0
 340 194 342 194 344 192 c 128
 346 190 347 187 347 182 c 0
 347 179 346 176 344 173 c 128
 342 170 341 169 338 169 c 0
 329 169 318 169 302 170 c 128
 286 171 274 172 265 172 c 0
 260 172 253 172 245 172 c 128
 237 172 229 171 221 170 c 128
 213 169 206 169 199 169 c 0
 197 169 195 171 193 174 c 128
 191 177 190 179 190 182 c 0
 190 186 191 189 193 191 c 128
 195 193 197 194 200 195 c 0
 211 198 219 202 223 206 c 128
 227 210 229 217 229 227 c 2
 229 441 l 2
 229 448 228 454 226 458 c 128
 224 462 222 465 218 468 c 128
 214 471 210 473 203 475 c 0
 197 476 194 479 194 486 c 0
 194 491 197 493 202 493 c 0
 217 493 228 492 236 491 c 128
 244 490 254 489 265 489 c 0
 276 489 284 490 291 491 c 128
 298 492 309 493 326 493 c 0
 361 493 388 487 407 474 c 128
 426 461 435 440 435 413 c 0
 435 390 430 373 419 362 c 128
 408 351 397 341 384 334 c 0
 383 333 382 332 382 331 c 128
 382 330 382 328 383 327 c 0
 393 298 404 275 417 258 c 128
 430 241 442 229 454 222 c 128
 466 215 477 211 484 211 c 0
 486 211 487 210 488 209 c 128
 489 208 490 205 490 202 c 0
 490 193 485 186 476 180 c 128
 467 174 453 170 433 170 c 0
317 355 m 0
 334 355 346 360 354 369 c 128
 362 378 366 389 366 402 c 0
 366 421 362 436 355 444 c 128
 348 452 337 456 322 456 c 0
 313 456 307 455 304 452 c 128
 301 449 300 444 300 438 c 2
 300 370 l 2
 300 365 301 362 304 359 c 128
 307 356 312 355 317 355 c 0
EndSplineSet
EndChar

StartChar: macron
Encoding: 175 175 113
Width: 600
Flags: W
LayerCount: 2
Fore
SplineSet
262 516 m 6
 256 516 252 517 250 520 c 132
 248 523 247 528 247 533 c 4
 247 543 250 553 256 562 c 132
 262 571 268 579 276 585 c 132
 284 591 291 594 297 594 c 6
 549 594 l 6
 563 594 570 590 570 581 c 4
 570 574 567 564 561 554 c 132
 555 544 548 536 540 528 c 132
 532 520 523 516 515 516 c 6
 262 516 l 6
EndSplineSet
EndChar

StartChar: degree
Encoding: 176 176 114
Width: 600
Flags: W
LayerCount: 2
Fore
SplineSet
401 381 m 256
 372 381 347 388 324 402 c 128
 301 416 283 435 270 458 c 128
 257 481 251 505 251 530 c 0
 251 556 257 579 270 600 c 128
 283 621 301 638 324 651 c 128
 347 664 372 670 401 670 c 256
 430 670 455 664 477 651 c 128
 499 638 516 621 529 600 c 128
 542 579 548 556 548 530 c 0
 548 505 542 481 529 458 c 128
 516 435 499 416 477 402 c 128
 455 388 430 381 401 381 c 256
400 437 m 256
 423 437 442 445 458 462 c 128
 474 479 482 500 482 525 c 256
 482 550 474 571 458 587 c 128
 442 603 423 611 400 611 c 256
 377 611 358 603 342 587 c 128
 326 571 317 550 317 525 c 256
 317 500 326 479 342 462 c 128
 358 445 377 437 400 437 c 256
EndSplineSet
EndChar

StartChar: plusminus
Encoding: 177 177 115
Width: 600
Flags: W
LayerCount: 2
Fore
SplineSet
285 125 m 0
 282 125 279 127 276 130 c 128
 273 133 272 137 272 142 c 2
 272 344 l 2
 272 352 268 356 260 356 c 2
 51 356 l 2
 46 356 43 357 40 360 c 128
 37 363 35 366 35 369 c 0
 35 376 37 385 41 396 c 128
 45 407 52 413 63 413 c 2
 259 413 l 2
 265 413 269 414 270 416 c 128
 271 418 272 422 272 426 c 2
 272 596 l 2
 272 603 274 609 279 614 c 128
 284 619 289 623 296 626 c 128
 303 629 309 630 314 630 c 0
 319 630 322 628 325 624 c 128
 328 620 329 614 329 609 c 2
 329 426 l 2
 329 421 330 418 332 416 c 128
 334 414 336 413 341 413 c 2
 544 413 l 2
 550 413 556 412 560 409 c 128
 564 406 566 403 566 398 c 0
 565 389 562 380 556 370 c 128
 550 360 541 356 532 356 c 2
 341 356 l 2
 333 356 329 352 329 345 c 2
 329 153 l 2
 329 143 323 136 312 132 c 128
 301 128 292 125 285 125 c 0
53 31 m 2
 48 31 44 33 40 36 c 128
 36 39 35 42 35 45 c 0
 35 50 36 56 38 63 c 128
 40 70 43 77 48 83 c 128
 53 89 59 92 66 92 c 2
 543 92 l 2
 550 92 555 90 560 87 c 128
 565 84 568 80 567 75 c 0
 567 66 563 56 556 46 c 128
 549 36 541 31 531 31 c 2
 53 31 l 2
EndSplineSet
EndChar

StartChar: uni00B2
Encoding: 178 178 116
Width: 600
Flags: W
LayerCount: 2
Fore
SplineSet
474 438 m 4
 465 438 448 439 424 440 c 132
 400 441 374 441 349 441 c 4
 336 441 322 440 305 440 c 132
 288 440 274 440 261 439 c 132
 248 438 241 438 238 438 c 4
 233 438 230 440 230 444 c 260
 230 448 232 452 237 455 c 6
 299 507 l 6
 348 550 386 584 412 611 c 132
 438 638 452 661 452 682 c 4
 452 693 448 701 440 708 c 132
 432 715 423 718 410 718 c 4
 397 718 383 714 370 706 c 132
 357 698 347 689 339 680 c 4
 336 677 333 674 330 671 c 132
 327 668 325 667 322 667 c 4
 317 667 314 668 314 672 c 132
 314 676 315 680 316 684 c 4
 323 701 334 716 349 730 c 132
 364 744 382 755 403 763 c 132
 424 771 444 775 465 775 c 4
 492 775 514 769 530 757 c 132
 546 745 554 726 554 700 c 4
 554 682 548 665 534 650 c 132
 520 635 505 619 488 603 c 4
 481 598 470 590 456 580 c 132
 442 570 428 560 412 550 c 132
 396 540 382 531 370 524 c 132
 358 517 352 513 351 512 c 260
 350 511 350 511 352 510 c 132
 354 509 356 508 359 508 c 6
 454 508 l 6
 466 508 478 512 490 520 c 132
 502 528 514 539 523 550 c 4
 525 553 528 556 532 558 c 132
 536 560 539 561 543 561 c 4
 548 561 551 560 552 557 c 132
 553 554 551 550 546 543 c 4
 535 529 526 515 518 502 c 132
 510 489 505 477 500 468 c 132
 495 459 491 454 490 452 c 4
 489 448 486 445 483 442 c 132
 480 439 477 438 474 438 c 4
EndSplineSet
EndChar

StartChar: uni00B3
Encoding: 179 179 117
Width: 600
Flags: W
LayerCount: 2
Fore
SplineSet
318 435 m 4
 302 435 289 437 278 442 c 132
 267 447 262 453 264 462 c 4
 266 470 270 478 275 486 c 132
 280 494 286 497 291 497 c 260
 296 497 301 495 306 492 c 132
 311 489 316 485 321 482 c 4
 325 478 330 474 337 471 c 132
 344 468 349 466 353 466 c 4
 363 466 373 470 384 478 c 132
 395 486 405 496 413 509 c 132
 421 522 425 536 425 551 c 4
 425 562 422 574 416 586 c 132
 410 598 400 605 388 605 c 4
 374 605 364 602 357 597 c 132
 350 592 345 589 341 589 c 260
 337 589 334 590 332 592 c 132
 330 594 329 597 330 601 c 4
 331 605 335 610 341 614 c 132
 347 618 354 622 361 626 c 132
 368 630 374 632 379 635 c 4
 410 648 432 658 444 668 c 132
 456 678 462 689 462 700 c 4
 462 709 460 716 454 722 c 132
 448 728 438 731 425 731 c 4
 414 731 403 728 393 723 c 132
 383 718 374 712 365 706 c 4
 361 703 358 700 356 698 c 132
 354 696 351 695 350 695 c 4
 347 695 346 696 344 700 c 132
 342 704 341 707 342 710 c 4
 345 715 353 724 364 734 c 132
 375 744 391 753 410 762 c 132
 429 771 450 776 475 775 c 4
 500 775 518 770 531 758 c 132
 544 746 550 732 550 716 c 4
 550 698 540 683 522 670 c 132
 504 657 484 647 461 641 c 4
 460 640 458 640 458 639 c 132
 458 638 459 638 460 638 c 4
 479 638 494 630 506 616 c 132
 518 602 524 586 524 569 c 4
 524 551 517 534 504 518 c 132
 491 502 475 486 454 474 c 132
 433 462 410 453 386 446 c 132
 362 439 340 435 318 435 c 4
EndSplineSet
EndChar

StartChar: acute
Encoding: 180 180 118
Width: 600
Flags: W
LayerCount: 2
Fore
SplineSet
338 470 m 4
 330 470 326 473 325 480 c 132
 324 487 326 495 329 502 c 6
 402 660 l 6
 408 673 414 682 420 687 c 132
 426 692 432 695 439 695 c 4
 446 695 454 692 463 686 c 132
 472 680 481 674 488 667 c 132
 495 660 498 653 498 646 c 4
 498 640 496 634 492 628 c 132
 488 622 482 614 475 607 c 6
 368 487 l 6
 363 482 359 478 354 475 c 132
 349 472 343 470 338 470 c 4
EndSplineSet
EndChar

StartChar: mu
Encoding: 181 181 119
Width: 600
Flags: W
LayerCount: 2
Fore
SplineSet
32 -288 m 0
 19 -288 8 -284 0 -276 c 128
 -8 -268 -14 -258 -17 -246 c 128
 -20 -234 -22 -223 -22 -213 c 0
 -22 -194 -20 -173 -16 -150 c 128
 -12 -127 -5 -102 2 -76 c 128
 9 -50 16 -25 23 0 c 0
 26 9 32 22 40 40 c 128
 48 58 54 76 59 92 c 0
 61 99 65 111 70 130 c 128
 75 149 81 172 88 198 c 128
 95 224 103 249 110 276 c 128
 117 303 124 328 130 352 c 128
 136 376 142 395 145 409 c 0
 148 417 153 423 160 427 c 128
 167 431 175 433 183 433 c 0
 200 433 216 430 230 422 c 128
 244 414 256 405 264 394 c 128
 272 383 274 374 272 366 c 0
 271 359 266 348 258 332 c 128
 250 316 239 298 227 278 c 128
 215 258 202 236 189 215 c 128
 176 194 163 174 152 156 c 0
 149 149 147 142 145 137 c 128
 143 132 142 128 142 125 c 0
 142 115 146 105 154 94 c 128
 162 83 174 77 189 78 c 0
 206 79 223 86 240 98 c 128
 257 110 275 125 292 144 c 128
 309 163 325 184 340 206 c 1
 353 240 364 272 375 302 c 128
 386 332 398 363 411 398 c 0
 416 411 421 421 427 426 c 128
 433 431 440 433 447 433 c 0
 458 433 471 430 486 424 c 128
 501 418 513 411 524 402 c 128
 535 393 541 385 540 376 c 0
 539 369 535 358 527 343 c 128
 519 328 509 309 496 288 c 128
 483 267 468 246 452 224 c 128
 436 202 419 179 401 158 c 1
 395 139 398 125 410 114 c 128
 422 103 438 98 459 98 c 0
 472 98 484 101 497 107 c 128
 510 113 521 120 531 126 c 128
 541 132 547 135 549 135 c 0
 552 135 554 134 556 132 c 128
 558 130 559 126 559 123 c 0
 557 95 549 71 534 50 c 128
 519 29 500 13 480 2 c 128
 460 -9 440 -15 420 -15 c 0
 407 -15 394 -11 383 -2 c 128
 372 7 363 18 358 33 c 128
 353 48 351 65 354 84 c 0
 355 90 356 96 358 102 c 128
 360 108 363 114 366 120 c 1
 363 121 l 1
 360 117 354 108 344 94 c 128
 334 80 321 64 307 48 c 128
 293 32 279 17 264 5 c 128
 249 -7 235 -13 222 -13 c 0
 199 -13 181 -6 170 6 c 128
 159 18 148 32 135 49 c 0
 133 52 130 56 126 62 c 128
 122 68 118 73 114 78 c 128
 110 83 106 86 103 86 c 0
 99 86 95 84 92 80 c 128
 89 76 85 68 82 59 c 0
 80 53 77 44 74 32 c 128
 71 20 69 6 67 -9 c 128
 65 -24 64 -38 64 -52 c 0
 64 -71 67 -89 73 -108 c 128
 79 -127 87 -144 96 -157 c 0
 103 -166 110 -175 116 -182 c 128
 122 -189 124 -196 124 -203 c 0
 124 -209 120 -217 113 -226 c 128
 106 -235 97 -244 87 -254 c 128
 77 -264 66 -272 56 -278 c 128
 46 -284 38 -288 32 -288 c 0
EndSplineSet
EndChar

StartChar: paragraph
Encoding: 182 182 120
Width: 600
Flags: W
LayerCount: 2
Fore
SplineSet
118 -287 m 0
 79 -287 48 -277 24 -258 c 128
 0 -239 -13 -214 -12 -183 c 0
 -12 -151 -6 -124 8 -102 c 128
 22 -80 40 -62 63 -50 c 128
 86 -38 110 -32 136 -32 c 0
 157 -32 174 -38 188 -48 c 128
 202 -58 208 -74 208 -95 c 256
 208 -116 201 -133 188 -146 c 128
 175 -159 159 -166 139 -166 c 0
 130 -166 121 -164 113 -160 c 128
 105 -156 97 -153 90 -149 c 0
 85 -146 80 -143 74 -140 c 128
 68 -137 62 -135 57 -135 c 0
 50 -135 45 -139 41 -146 c 128
 37 -153 34 -162 34 -172 c 0
 34 -189 40 -206 55 -220 c 128
 70 -234 90 -241 118 -241 c 0
 160 -241 196 -228 225 -202 c 128
 254 -176 276 -141 290 -95 c 2
 341 64 l 2
 343 69 343 74 341 78 c 128
 339 82 337 84 332 84 c 0
 271 84 219 97 176 122 c 128
 133 147 101 182 84 227 c 128
 67 272 66 326 82 388 c 0
 97 445 116 490 142 525 c 128
 168 560 199 586 238 604 c 128
 277 622 322 632 375 638 c 128
 428 644 489 647 557 647 c 0
 576 647 595 647 615 646 c 128
 635 645 653 645 668 644 c 128
 683 643 692 641 698 640 c 256
 704 639 707 636 708 630 c 128
 709 624 709 618 707 612 c 0
 704 605 701 598 697 592 c 128
 693 586 690 583 685 583 c 0
 683 583 678 584 672 586 c 128
 666 588 657 588 647 590 c 128
 637 592 626 594 613 595 c 128
 600 596 589 597 577 597 c 0
 571 597 566 595 560 590 c 128
 554 585 550 579 548 572 c 2
 347 -82 l 2
 336 -119 321 -153 302 -184 c 128
 283 -215 260 -240 230 -259 c 128
 200 -278 163 -287 118 -287 c 0
341 130 m 0
 344 130 346 132 349 134 c 128
 352 136 354 139 356 144 c 2
 496 583 l 2
 496 584 497 584 497 584 c 129
 497 584 497 584 497 585 c 0
 497 588 495 591 491 592 c 128
 487 593 483 593 480 593 c 0
 467 593 455 592 443 589 c 128
 431 586 420 578 407 566 c 128
 394 554 383 534 369 506 c 128
 355 478 339 437 322 385 c 0
 296 304 284 244 283 203 c 0
 283 177 288 158 298 147 c 128
 308 136 322 130 341 130 c 0
EndSplineSet
EndChar

StartChar: cedilla
Encoding: 184 184 122
Width: 600
Flags: W
LayerCount: 2
Fore
SplineSet
147 -281 m 4
 130 -281 115 -278 101 -271 c 132
 87 -264 76 -256 68 -246 c 132
 60 -236 56 -226 56 -217 c 4
 56 -192 66 -180 86 -180 c 4
 95 -180 103 -183 112 -188 c 132
 121 -193 129 -199 137 -206 c 4
 146 -213 154 -220 160 -225 c 132
 166 -230 174 -233 183 -233 c 4
 190 -233 195 -231 198 -227 c 132
 201 -223 203 -218 203 -213 c 4
 203 -203 200 -195 193 -189 c 132
 186 -183 179 -176 171 -168 c 4
 163 -161 156 -152 148 -142 c 132
 140 -132 136 -121 136 -112 c 4
 136 -101 143 -87 156 -71 c 132
 169 -55 184 -40 204 -24 c 132
 224 -8 243 6 262 17 c 5
 301 17 l 5
 276 -2 258 -17 249 -30 c 132
 240 -43 235 -54 235 -63 c 4
 235 -70 239 -77 246 -84 c 132
 253 -91 260 -99 268 -106 c 4
 277 -114 284 -122 290 -130 c 132
 296 -138 299 -146 299 -155 c 4
 299 -166 294 -178 284 -192 c 132
 274 -206 262 -220 246 -234 c 132
 230 -248 214 -259 196 -268 c 132
 178 -277 162 -281 147 -281 c 4
EndSplineSet
EndChar

StartChar: uni00B9
Encoding: 185 185 123
Width: 600
Flags: W
LayerCount: 2
Fore
SplineSet
291 438 m 4
 288 438 286 438 285 440 c 132
 284 442 283 444 284 447 c 4
 285 451 286 454 289 457 c 132
 292 460 295 461 299 462 c 4
 314 465 323 467 328 470 c 132
 333 473 337 480 340 491 c 6
 399 684 l 6
 404 698 402 708 394 715 c 132
 386 722 377 726 368 728 c 4
 361 729 359 733 360 739 c 4
 363 750 370 755 381 756 c 4
 406 758 429 760 452 762 c 132
 475 764 495 768 513 775 c 4
 515 776 515 776 519 778 c 132
 522 779 524 780 525 780 c 4
 531 780 533 777 531 771 c 4
 530 767 528 762 525 756 c 132
 522 750 518 740 514 728 c 6
 441 491 l 6
 438 482 438 477 439 474 c 132
 440 471 448 467 463 462 c 4
 466 461 469 460 470 458 c 132
 471 456 471 453 470 449 c 4
 469 446 468 444 466 442 c 132
 464 440 461 439 458 439 c 4
 451 439 441 440 430 440 c 132
 419 440 408 440 398 440 c 132
 388 440 379 441 373 441 c 4
 364 441 352 441 335 440 c 132
 318 439 304 438 291 438 c 4
EndSplineSet
EndChar

StartChar: ordmasculine
Encoding: 186 186 124
Width: 600
Flags: W
LayerCount: 2
Fore
SplineSet
157 159 m 2
 152 159 148 160 145 164 c 128
 142 168 140 172 140 175 c 0
 140 180 144 186 150 193 c 128
 156 200 163 204 171 204 c 2
 408 204 l 2
 412 204 416 203 419 200 c 128
 422 197 424 194 424 189 c 0
 424 182 420 176 411 169 c 128
 402 162 394 159 385 159 c 2
 157 159 l 2
317 289 m 0
 272 289 240 302 219 329 c 128
 198 356 193 390 203 431 c 0
 210 459 224 483 244 504 c 128
 264 525 289 542 318 554 c 128
 347 566 379 572 414 572 c 0
 458 572 490 559 510 533 c 128
 530 507 535 474 526 434 c 0
 521 407 510 383 492 361 c 128
 474 339 451 321 422 308 c 128
 393 295 358 289 317 289 c 0
336 325 m 0
 346 325 355 328 363 335 c 128
 371 342 378 350 384 361 c 128
 390 372 396 384 401 396 c 128
 406 408 409 420 412 432 c 0
 417 449 420 466 421 481 c 128
 422 496 420 510 416 520 c 128
 412 530 404 535 394 535 c 256
 384 535 374 532 366 525 c 128
 358 518 351 509 344 498 c 128
 337 487 332 476 327 464 c 128
 322 452 319 440 316 429 c 0
 311 411 309 394 309 378 c 128
 309 362 312 350 316 340 c 128
 320 330 327 325 336 325 c 0
EndSplineSet
EndChar

StartChar: guillemotright
Encoding: 187 187 125
Width: 600
Flags: W
LayerCount: 2
Fore
SplineSet
336 417 m 0
 342 417 349 414 354 409 c 128
 362 401 361 401 365 397 c 0
 379 380 391 366 404 352 c 128
 417 338 431 326 444 314 c 128
 457 302 472 291 487 280 c 128
 502 269 516 258 532 247 c 0
 540 242 547 238 550 235 c 128
 553 232 555 229 555 225 c 256
 555 221 552 218 547 214 c 128
 542 210 536 207 533 206 c 0
 495 188 460 170 428 151 c 128
 396 132 364 112 335 92 c 128
 306 72 275 50 243 27 c 0
 240 24 236 22 233 20 c 128
 230 18 226 16 221 16 c 0
 213 16 210 20 212 26 c 128
 214 32 218 38 223 45 c 0
 249 74 273 99 297 120 c 128
 321 141 343 160 365 175 c 128
 387 190 405 204 424 217 c 0
 429 221 433 224 434 226 c 128
 435 228 432 230 428 233 c 0
 417 246 405 261 394 276 c 128
 383 291 371 307 360 326 c 128
 349 345 339 367 328 390 c 0
 326 397 324 402 327 408 c 128
 330 414 333 417 336 417 c 0
137 417 m 0
 143 417 150 414 155 409 c 128
 163 401 162 401 166 397 c 0
 180 380 192 366 205 352 c 128
 218 338 232 326 245 314 c 128
 258 302 273 291 288 280 c 128
 303 269 317 258 333 247 c 0
 341 242 348 238 351 235 c 128
 354 232 356 229 356 225 c 256
 356 221 353 218 348 214 c 128
 343 210 337 207 334 206 c 0
 296 188 261 170 229 151 c 128
 197 132 165 112 136 92 c 128
 107 72 76 50 44 27 c 0
 41 24 37 22 34 20 c 128
 31 18 27 16 22 16 c 0
 14 16 11 20 13 26 c 128
 15 32 19 38 24 45 c 0
 50 74 74 99 98 120 c 128
 122 141 144 160 166 175 c 128
 188 190 206 204 225 217 c 0
 230 221 234 224 235 226 c 128
 236 228 233 230 229 233 c 0
 218 246 206 261 195 276 c 128
 184 291 172 307 161 326 c 128
 150 345 140 367 129 390 c 0
 127 397 125 402 128 408 c 128
 131 414 134 417 137 417 c 0
EndSplineSet
EndChar

StartChar: onequarter
Encoding: 188 188 126
Width: 600
Flags: W
LayerCount: 2
Fore
SplineSet
413 -9 m 0
 406 -9 404 -6 406 -1 c 2
 431 78 l 2
 433 85 431 89 424 89 c 0
 403 89 380 89 357 88 c 128
 334 87 312 87 289 87 c 0
 287 87 285 89 285 92 c 128
 285 95 286 98 290 101 c 0
 318 128 348 156 381 186 c 128
 414 216 446 244 477 271 c 0
 485 278 498 289 517 302 c 128
 536 315 553 328 568 341 c 0
 573 345 577 348 581 351 c 128
 585 354 589 355 591 355 c 0
 593 355 594 354 594 352 c 128
 594 350 594 349 593 346 c 2
 527 139 l 2
 526 136 527 134 531 134 c 0
 541 134 550 134 556 134 c 128
 562 134 567 135 569 135 c 0
 572 135 574 133 573 128 c 0
 572 122 569 114 562 105 c 128
 555 96 550 91 547 91 c 0
 541 91 541 91 534 91 c 128
 527 91 527 91 520 91 c 0
 515 91 511 89 510 84 c 2
 495 31 l 2
 494 27 489 23 482 18 c 128
 475 13 466 9 456 5 c 128
 446 1 437 -2 429 -5 c 128
 421 -8 416 -9 413 -9 c 0
373 135 m 2
 444 135 l 2
 446 135 448 136 449 139 c 2
 476 224 l 2
 476 225 477 225 476 225 c 128
 475 225 474 225 474 224 c 0
 467 218 456 209 442 198 c 128
 428 187 415 177 402 166 c 128
 389 155 379 146 372 139 c 0
 371 136 371 135 373 135 c 2
59 -19 m 0
 50 -19 44 -15 41 -6 c 128
 38 3 39 10 45 17 c 2
 598 653 l 2
 603 658 610 662 618 665 c 128
 626 668 634 669 641 669 c 0
 650 669 657 666 660 659 c 128
 663 652 662 646 657 640 c 2
 107 8 l 2
 99 -1 92 -8 84 -12 c 128
 76 -16 68 -19 59 -19 c 0
70 278 m 0
 68 278 66 278 65 280 c 128
 64 282 63 284 64 287 c 0
 65 291 67 294 69 296 c 128
 71 298 74 300 77 301 c 0
 90 304 98 307 101 310 c 128
 104 313 107 318 110 326 c 2
 170 524 l 2
 174 538 173 549 166 556 c 128
 159 563 154 566 148 567 c 0
 142 568 139 572 141 579 c 0
 145 590 151 595 160 596 c 0
 182 598 203 599 223 600 c 128
 243 601 262 605 280 614 c 0
 281 615 283 616 286 617 c 128
 289 618 291 619 292 619 c 0
 297 619 298 617 297 612 c 0
 296 608 295 603 292 598 c 128
 289 593 287 585 283 574 c 2
 206 327 l 2
 204 320 204 315 204 312 c 128
 204 309 210 306 221 301 c 0
 224 300 226 298 227 297 c 128
 228 296 228 293 227 288 c 0
 226 285 226 284 224 282 c 128
 222 280 220 279 217 279 c 0
 212 279 205 280 195 280 c 128
 185 280 175 280 165 280 c 128
 155 280 147 281 142 281 c 0
 135 281 124 281 108 280 c 128
 92 279 79 278 70 278 c 0
EndSplineSet
EndChar

StartChar: onehalf
Encoding: 189 189 127
Width: 600
Flags: W
LayerCount: 2
Fore
SplineSet
486 -16 m 0
 481 -16 467 -15 446 -14 c 128
 425 -13 403 -13 380 -13 c 0
 369 -13 356 -14 341 -14 c 128
 326 -14 313 -14 302 -15 c 128
 286 -16 286 -16 286 -16 c 0
 281 -16 279 -14 278 -9 c 0
 278 -6 281 -2 285 1 c 2
 329 44 l 2
 376 91 411 127 436 154 c 128
 461 181 474 205 475 228 c 0
 475 237 473 245 467 252 c 128
 461 259 453 262 443 262 c 0
 432 262 422 258 411 249 c 128
 400 240 391 232 385 225 c 0
 382 221 379 217 376 214 c 128
 373 211 371 210 368 210 c 0
 363 210 361 212 361 216 c 128
 361 220 363 224 364 229 c 0
 370 247 381 263 395 277 c 128
 409 291 425 302 443 310 c 128
 461 318 477 321 493 321 c 0
 517 321 536 314 549 302 c 128
 562 290 568 270 567 243 c 0
 566 226 559 210 547 195 c 128
 535 180 521 164 506 149 c 0
 501 144 491 138 479 128 c 128
 467 118 454 108 440 98 c 128
 426 88 413 79 403 72 c 128
 393 65 388 62 387 61 c 256
 386 60 387 60 388 59 c 128
 389 58 391 58 394 58 c 2
 476 58 l 2
 485 58 496 62 506 70 c 128
 516 78 525 87 532 98 c 0
 533 101 537 103 540 106 c 128
 543 109 547 110 550 110 c 0
 555 110 557 109 558 106 c 128
 559 103 557 97 552 90 c 0
 542 75 533 61 526 47 c 128
 519 33 513 21 508 12 c 128
 501 -2 500 -2 500 -2 c 2
 499 -5 497 -9 494 -12 c 128
 491 -15 489 -16 486 -16 c 0
54 -19 m 0
 45 -19 40 -15 37 -6 c 128
 34 3 35 10 41 17 c 2
 575 653 l 2
 580 658 586 662 594 665 c 128
 602 668 610 669 617 669 c 0
 626 669 631 666 634 659 c 128
 637 652 636 646 631 640 c 2
 99 8 l 2
 91 -1 84 -8 77 -12 c 128
 70 -16 62 -19 54 -19 c 0
71 278 m 0
 69 278 67 278 66 280 c 128
 65 282 65 284 65 287 c 0
 66 291 68 294 70 296 c 128
 72 298 75 300 78 301 c 0
 91 304 99 307 101 310 c 128
 103 313 107 318 109 326 c 2
 169 524 l 2
 173 538 172 549 166 556 c 128
 160 563 155 566 149 567 c 0
 143 568 140 572 143 579 c 0
 147 590 153 595 161 596 c 0
 182 598 202 599 221 600 c 128
 240 601 259 605 276 614 c 0
 277 615 278 616 281 617 c 128
 284 618 286 619 287 619 c 0
 292 619 293 617 292 612 c 0
 291 608 290 603 287 598 c 128
 284 593 282 585 278 574 c 2
 201 327 l 2
 199 320 199 315 199 312 c 128
 199 309 204 306 215 301 c 0
 218 300 220 298 221 297 c 128
 222 296 221 293 220 288 c 0
 219 285 219 284 217 282 c 128
 215 280 213 279 210 279 c 0
 205 279 199 280 189 280 c 128
 179 280 170 280 161 280 c 128
 152 280 144 281 139 281 c 0
 132 281 121 281 106 280 c 128
 91 279 80 278 71 278 c 0
EndSplineSet
EndChar

StartChar: threequarters
Encoding: 190 190 128
Width: 600
Flags: W
LayerCount: 2
Fore
SplineSet
417 -9 m 0
 410 -9 408 -6 410 -1 c 2
 435 78 l 2
 437 85 435 89 428 89 c 0
 407 89 386 89 363 88 c 128
 340 87 318 87 296 87 c 0
 294 87 293 89 293 92 c 128
 293 95 294 98 297 101 c 0
 324 128 354 156 387 186 c 128
 420 216 451 244 482 271 c 0
 490 278 503 289 521 302 c 128
 539 315 556 328 571 341 c 0
 576 345 580 348 584 351 c 128
 588 354 591 355 594 355 c 0
 596 355 597 354 597 352 c 128
 597 350 596 349 596 346 c 2
 530 139 l 2
 529 136 530 134 533 134 c 0
 542 134 551 134 558 134 c 128
 565 134 569 135 570 135 c 0
 573 135 575 133 574 128 c 0
 573 122 570 114 563 105 c 128
 556 96 552 91 549 91 c 0
 543 91 543 91 536 91 c 128
 529 91 529 91 522 91 c 0
 517 91 513 89 512 84 c 2
 497 31 l 2
 496 27 491 23 484 18 c 128
 477 13 469 9 459 5 c 128
 449 1 441 -2 433 -5 c 128
 425 -8 420 -9 417 -9 c 0
379 135 m 2
 448 135 l 2
 450 135 452 136 453 139 c 2
 481 224 l 2
 481 225 482 225 481 225 c 128
 480 225 479 225 478 224 c 0
 471 218 461 209 447 198 c 128
 433 187 420 177 407 166 c 128
 394 155 385 146 378 139 c 0
 377 136 377 135 379 135 c 2
75 -19 m 0
 66 -19 60 -15 57 -6 c 128
 54 3 55 10 61 17 c 2
 606 653 l 2
 611 658 618 662 626 665 c 128
 634 668 642 669 649 669 c 0
 658 669 664 666 667 659 c 128
 670 652 669 646 664 640 c 2
 121 8 l 2
 113 -1 106 -8 99 -12 c 128
 92 -16 84 -19 75 -19 c 0
110 275 m 0
 96 275 84 277 75 282 c 128
 66 287 63 294 66 303 c 0
 68 311 72 318 77 326 c 128
 82 334 86 338 91 338 c 256
 96 338 100 336 104 333 c 128
 108 330 111 326 115 323 c 0
 118 319 123 315 128 311 c 128
 133 307 138 305 141 305 c 0
 148 305 157 308 167 316 c 128
 177 324 186 335 193 348 c 128
 200 361 204 376 205 391 c 0
 206 402 204 415 199 428 c 128
 194 441 187 447 177 447 c 0
 164 447 155 444 150 438 c 128
 145 432 140 429 137 429 c 0
 133 429 130 430 129 432 c 128
 128 434 127 437 127 442 c 0
 127 445 130 449 135 454 c 128
 140 459 145 464 152 468 c 128
 159 472 164 475 168 477 c 0
 197 490 216 502 227 511 c 128
 238 520 243 530 243 541 c 0
 243 549 242 556 238 562 c 128
 234 568 226 571 214 571 c 0
 205 571 195 568 187 563 c 128
 179 558 171 552 165 547 c 0
 162 544 159 542 157 540 c 128
 155 538 152 536 151 536 c 0
 149 536 148 538 146 542 c 128
 144 546 144 548 145 551 c 0
 146 554 151 560 161 570 c 128
 171 580 184 590 201 600 c 128
 218 610 238 615 261 615 c 0
 283 615 299 608 310 596 c 128
 321 584 326 570 325 555 c 0
 324 538 316 523 299 510 c 128
 282 497 265 488 245 483 c 0
 244 482 243 482 242 481 c 128
 241 480 243 480 244 480 c 0
 260 480 273 473 283 458 c 128
 293 443 299 427 298 409 c 256
 297 391 290 374 278 358 c 128
 266 342 251 326 232 314 c 128
 213 302 193 293 172 286 c 128
 151 279 130 275 110 275 c 0
EndSplineSet
EndChar

StartChar: questiondown
Encoding: 191 191 129
Width: 600
Flags: W
LayerCount: 2
Fore
SplineSet
351 306 m 0
 356 306 362 302 371 294 c 128
 380 286 388 275 395 262 c 128
 402 249 406 235 406 221 c 0
 406 199 403 179 396 160 c 128
 389 141 374 123 352 106 c 128
 330 89 296 73 251 58 c 0
 216 47 188 34 168 18 c 128
 148 2 138 -16 138 -39 c 0
 138 -57 144 -72 156 -83 c 128
 168 -94 186 -100 212 -100 c 0
 221 -100 230 -98 239 -93 c 128
 248 -88 256 -84 264 -81 c 0
 269 -78 276 -75 283 -72 c 128
 290 -69 297 -67 303 -67 c 0
 314 -67 324 -71 332 -78 c 128
 340 -85 343 -95 342 -108 c 0
 342 -129 333 -146 315 -159 c 128
 297 -172 275 -178 250 -178 c 0
 223 -178 198 -170 175 -155 c 128
 152 -140 132 -118 118 -89 c 128
 104 -60 97 -27 97 11 c 0
 97 30 101 48 110 66 c 128
 119 84 132 100 148 114 c 128
 164 128 181 140 200 148 c 2
 293 187 l 2
 312 194 324 202 330 210 c 128
 336 218 339 227 339 239 c 0
 339 244 338 249 338 254 c 128
 338 259 337 264 336 269 c 0
 335 274 334 279 332 283 c 128
 330 287 329 291 329 295 c 0
 329 300 331 303 336 304 c 128
 341 305 346 306 351 306 c 0
385 497 m 0
 400 497 413 492 424 480 c 128
 435 468 440 455 440 440 c 0
 440 417 431 397 414 380 c 128
 397 363 378 354 356 354 c 0
 337 354 322 361 312 374 c 128
 302 387 297 401 297 415 c 0
 297 437 306 456 324 472 c 128
 342 488 362 497 385 497 c 0
EndSplineSet
EndChar

StartChar: AE
Encoding: 198 198 130
Width: 600
Flags: W
LayerCount: 2
Fore
SplineSet
-31 -5 m 0
 -36 -5 -38 -4 -41 -2 c 128
 -44 0 -44 5 -42 12 c 256
 -40 19 -38 23 -34 26 c 128
 -30 29 -26 32 -21 34 c 0
 -6 40 7 48 21 60 c 128
 35 72 46 85 55 98 c 2
 406 599 l 2
 408 602 410 606 410 608 c 128
 410 610 408 611 406 612 c 2
 377 620 l 2
 368 623 364 629 366 639 c 0
 366 644 369 648 373 651 c 128
 377 654 382 655 387 655 c 0
 396 655 408 655 422 654 c 128
 436 653 451 653 465 652 c 128
 479 651 490 650 499 650 c 0
 512 650 527 650 542 650 c 128
 557 650 572 649 587 649 c 0
 610 649 629 650 645 652 c 128
 661 654 674 658 684 660 c 128
 694 662 700 663 705 663 c 0
 708 663 711 661 714 658 c 128
 717 655 718 650 716 642 c 0
 712 622 708 600 703 574 c 128
 698 548 692 526 687 508 c 0
 685 501 683 496 680 493 c 128
 677 490 674 488 671 488 c 256
 669 488 668 489 666 492 c 128
 664 495 663 499 663 505 c 0
 664 523 665 538 665 550 c 128
 665 562 663 571 661 579 c 256
 659 587 655 595 649 602 c 128
 643 609 634 613 621 613 c 2
 571 613 l 2
 559 613 548 607 540 596 c 128
 532 585 526 572 522 557 c 0
 517 539 512 520 506 499 c 128
 500 478 494 458 488 437 c 128
 482 416 477 397 472 379 c 0
 469 370 469 364 471 360 c 128
 473 356 476 355 481 355 c 0
 495 355 495 355 509 355 c 128
 523 355 523 355 537 355 c 0
 548 355 559 361 568 374 c 128
 577 387 586 401 595 417 c 0
 599 423 603 427 606 430 c 128
 609 433 612 435 615 435 c 0
 617 435 618 433 619 429 c 128
 620 425 619 419 616 412 c 0
 611 397 605 384 600 370 c 128
 595 356 591 342 586 329 c 0
 582 316 577 302 574 289 c 128
 571 276 567 261 564 246 c 0
 561 236 558 228 555 224 c 128
 552 220 550 218 548 218 c 0
 545 218 543 220 541 225 c 128
 539 230 539 235 540 242 c 0
 543 263 544 280 542 292 c 128
 540 304 534 311 526 311 c 0
 511 311 511 311 495 311 c 128
 479 311 479 311 464 311 c 0
 459 311 455 309 451 305 c 128
 447 301 444 295 442 288 c 0
 433 259 424 228 414 192 c 128
 404 156 394 124 385 95 c 0
 379 76 378 64 381 56 c 128
 384 48 392 44 403 44 c 2
 460 44 l 2
 469 44 478 46 487 50 c 128
 496 54 506 59 515 67 c 0
 526 76 535 88 545 103 c 128
 555 118 565 133 574 148 c 0
 577 153 579 157 582 158 c 128
 585 159 588 160 591 160 c 256
 594 160 595 159 596 156 c 128
 597 153 596 150 595 145 c 0
 591 133 586 119 578 102 c 128
 570 85 562 68 554 51 c 128
 546 34 538 20 531 8 c 0
 529 3 527 0 523 -2 c 128
 519 -4 516 -4 512 -4 c 0
 510 -4 501 -4 486 -4 c 128
 471 -4 453 -3 431 -2 c 128
 409 -1 387 0 363 -0 c 128
 339 0 317 0 298 0 c 0
 289 0 279 0 267 -1 c 128
 255 -2 243 -3 232 -4 c 128
 221 -5 210 -5 201 -5 c 0
 197 -5 195 -3 194 0 c 128
 193 3 193 7 194 11 c 0
 197 21 204 28 214 32 c 0
 231 39 243 46 251 53 c 128
 259 60 266 74 273 95 c 0
 280 118 288 142 296 168 c 128
 304 194 312 218 319 241 c 0
 320 245 320 249 320 253 c 128
 320 257 318 259 313 259 c 2
 226 259 l 2
 223 259 219 258 216 256 c 128
 213 254 209 249 204 242 c 0
 196 229 186 214 175 197 c 128
 164 180 154 164 145 148 c 128
 136 132 129 120 123 109 c 0
 114 93 108 80 107 70 c 128
 106 60 108 53 113 48 c 128
 118 43 127 38 137 34 c 0
 141 33 143 30 145 26 c 128
 147 22 147 18 145 12 c 0
 144 7 141 4 138 2 c 128
 135 0 131 -2 126 -2 c 0
 111 -2 98 -1 85 -0 c 128
 72 1 59 1 46 1 c 0
 33 1 21 0 9 -2 c 128
 -3 -4 -17 -5 -31 -5 c 0
262 307 m 2
 330 307 l 2
 334 307 337 309 339 312 c 128
 341 315 343 317 343 320 c 2
 403 526 l 2
 404 529 404 532 404 534 c 128
 404 536 403 537 402 537 c 0
 400 537 398 535 395 531 c 2
 258 325 l 2
 253 318 251 312 253 310 c 128
 255 308 257 307 262 307 c 2
EndSplineSet
EndChar

StartChar: Eth
Encoding: 208 208 131
Width: 600
Flags: W
LayerCount: 2
Fore
SplineSet
64 304 m 2
 57 304 52 307 52 314 c 128
 52 321 53 328 55 335 c 0
 58 344 62 352 68 358 c 128
 74 364 80 366 87 366 c 2
 335 366 l 2
 340 366 345 364 348 360 c 128
 351 356 351 352 349 347 c 0
 343 334 336 324 326 316 c 128
 316 308 307 304 300 304 c 2
 64 304 l 2
249 -7 m 0
 227 -7 205 -6 183 -4 c 128
 161 -2 141 0 124 2 c 128
 107 4 94 4 87 4 c 0
 76 4 63 3 48 2 c 128
 33 1 18 0 2 -1 c 128
 -14 -2 -28 -3 -40 -3 c 0
 -43 -3 -46 -2 -48 1 c 128
 -50 4 -50 7 -49 12 c 0
 -45 23 -37 31 -26 34 c 0
 -11 38 1 42 10 46 c 128
 19 50 26 57 32 65 c 128
 38 73 43 84 46 97 c 2
 188 551 l 2
 192 566 193 578 192 586 c 128
 191 594 188 600 182 605 c 128
 176 610 166 614 153 618 c 0
 149 619 146 622 144 626 c 128
 142 630 142 634 144 640 c 0
 145 645 149 648 153 651 c 128
 157 654 162 655 165 655 c 0
 183 655 203 654 226 652 c 128
 249 650 269 650 286 650 c 0
 297 650 308 650 320 651 c 128
 332 652 344 652 359 653 c 128
 374 654 390 654 409 654 c 0
 460 654 503 642 537 617 c 128
 571 592 596 559 612 518 c 128
 628 477 634 433 632 385 c 0
 629 332 617 283 595 236 c 128
 573 189 545 146 510 110 c 128
 475 74 435 45 390 24 c 128
 345 3 298 -7 249 -7 c 0
251 31 m 0
 278 31 305 42 332 64 c 128
 359 86 384 114 407 150 c 128
 430 186 449 225 464 269 c 128
 479 313 487 357 489 402 c 0
 492 455 490 497 482 528 c 128
 474 559 463 580 447 594 c 128
 431 608 412 615 391 615 c 0
 380 615 372 614 364 611 c 128
 356 608 349 604 344 598 c 128
 339 592 335 583 332 572 c 2
 196 119 l 2
 189 97 188 79 193 66 c 128
 198 53 207 44 218 39 c 128
 229 34 240 31 251 31 c 0
EndSplineSet
EndChar

StartChar: multiply
Encoding: 215 215 132
Width: 600
Flags: W
LayerCount: 2
Fore
SplineSet
477 50 m 256
 470 50 464 53 459 58 c 2
 316 200 l 2
 311 206 305 206 299 200 c 2
 164 63 l 2
 161 60 158 58 154 57 c 128
 150 56 148 55 145 56 c 0
 140 56 136 61 130 70 c 128
 124 79 121 89 121 99 c 0
 121 106 123 112 127 116 c 2
 255 243 l 2
 259 247 260 250 260 252 c 128
 260 254 258 258 255 261 c 2
 126 392 l 2
 122 396 120 401 120 406 c 0
 120 414 122 422 127 430 c 128
 132 438 136 444 139 448 c 0
 142 451 145 452 150 451 c 128
 155 450 158 448 161 445 c 2
 300 305 l 2
 303 302 306 300 308 300 c 128
 310 300 313 302 316 305 c 2
 458 447 l 2
 462 451 466 453 471 453 c 0
 475 453 478 452 480 449 c 0
 483 444 487 438 492 430 c 128
 497 422 499 415 499 408 c 0
 499 403 497 398 493 393 c 2
 360 260 l 2
 355 255 355 249 360 244 c 2
 496 110 l 2
 501 106 503 100 503 93 c 256
 503 86 500 77 495 66 c 128
 490 55 484 50 477 50 c 256
EndSplineSet
EndChar

StartChar: Oslash
Encoding: 216 216 133
Width: 600
Flags: W
LayerCount: 2
Fore
SplineSet
15 -14 m 0
 4 -14 -5 -9 -12 0 c 128
 -19 9 -22 18 -22 27 c 0
 -21 42 -15 54 -4 63 c 2
 107 162 l 1
 158 199 l 1
 526 537 l 1
 563 562 l 1
 666 652 l 2
 671 656 675 659 679 661 c 128
 683 663 688 664 691 664 c 0
 698 664 704 661 708 654 c 128
 712 647 715 638 715 629 c 0
 715 610 709 596 698 587 c 2
 598 499 l 1
 532 446 l 1
 163 103 l 1
 128 79 l 1
 37 -4 l 2
 33 -7 30 -10 26 -12 c 128
 22 -14 19 -14 15 -14 c 0
253 -14 m 0
 214 -14 179 -3 149 18 c 128
 119 39 95 69 78 108 c 128
 61 147 54 191 56 242 c 0
 58 297 70 350 91 401 c 128
 112 452 139 497 174 536 c 128
 209 575 248 607 293 630 c 128
 338 653 386 664 435 664 c 0
 474 664 508 653 539 632 c 128
 570 611 593 580 610 542 c 128
 627 504 634 459 632 408 c 0
 630 353 618 301 597 250 c 128
 576 199 548 154 513 114 c 128
 478 74 438 43 394 20 c 128
 350 -3 303 -14 253 -14 c 0
254 25 m 0
 278 25 301 36 324 56 c 128
 347 76 369 102 390 136 c 128
 411 170 430 207 447 247 c 128
 464 287 477 327 487 366 c 128
 497 405 503 441 504 473 c 0
 505 501 504 526 499 550 c 128
 494 574 487 594 476 608 c 128
 465 622 451 629 433 629 c 0
 409 629 385 619 362 598 c 128
 339 577 317 550 296 516 c 128
 275 482 256 444 240 404 c 128
 224 364 210 324 200 284 c 128
 190 244 184 208 183 176 c 0
 182 149 184 123 188 100 c 128
 192 77 200 60 211 46 c 128
 222 32 236 25 254 25 c 0
EndSplineSet
EndChar

StartChar: Thorn
Encoding: 222 222 134
Width: 600
Flags: W
LayerCount: 2
Fore
SplineSet
-25 -3 m 0
 -30 -3 -34 -2 -37 0 c 128
 -40 2 -42 6 -40 11 c 0
 -37 22 -27 29 -13 32 c 0
 14 38 33 45 44 53 c 128
 55 61 66 76 72 97 c 2
 213 551 l 2
 219 572 219 587 214 596 c 128
 209 605 194 612 170 619 c 0
 164 620 160 622 157 626 c 128
 154 630 154 635 156 640 c 0
 157 645 160 648 165 651 c 128
 170 654 175 655 180 655 c 0
 194 655 209 655 225 654 c 128
 241 653 258 653 274 652 c 128
 290 651 304 650 317 650 c 256
 330 650 346 650 362 651 c 128
 378 652 396 652 413 653 c 128
 430 654 446 654 460 654 c 0
 471 654 476 649 473 640 c 0
 472 633 469 629 464 626 c 128
 459 623 454 621 446 619 c 0
 427 614 412 608 401 603 c 128
 390 598 381 591 376 583 c 128
 371 575 365 564 361 550 c 2
 353 523 l 1
 288 547 l 1
 301 548 318 550 338 551 c 128
 358 552 379 553 402 553 c 0
 447 553 485 545 517 528 c 128
 549 511 573 488 590 459 c 128
 607 430 615 396 613 357 c 0
 612 324 602 294 586 266 c 128
 570 238 549 215 522 194 c 128
 496 173 465 158 429 146 c 128
 393 134 355 128 315 128 c 0
 299 128 288 130 281 134 c 128
 274 138 270 143 270 150 c 0
 271 155 273 158 277 161 c 128
 281 164 286 165 292 166 c 0
 299 167 306 168 312 169 c 128
 318 170 326 170 334 171 c 0
 359 175 381 184 399 198 c 128
 417 212 432 228 443 248 c 128
 454 268 464 288 469 308 c 128
 474 328 478 347 478 364 c 0
 478 401 474 430 465 452 c 128
 456 474 444 489 429 498 c 128
 414 507 398 512 382 512 c 0
 374 512 367 510 361 506 c 128
 355 502 349 495 344 484 c 128
 339 473 331 455 324 431 c 2
 221 98 l 2
 216 79 216 65 223 57 c 128
 230 49 245 41 267 32 c 0
 272 30 277 28 279 25 c 128
 281 22 282 18 280 12 c 0
 279 7 277 4 273 1 c 128
 269 -2 264 -3 258 -3 c 0
 244 -3 228 -3 211 -2 c 128
 194 -1 178 0 161 1 c 128
 144 2 130 2 117 2 c 0
 97 2 74 2 47 0 c 128
 20 -2 -3 -3 -25 -3 c 0
EndSplineSet
EndChar

